  0
SECTION
  2
HEADER
  9
$ACADVER
  1
AC1015
  9
$ACADMAINTVER
 70
     6
  9
$DWGCODEPAGE
  3
ANSI_1252
  9
$INSBASE
 10
0.0
 20
0.0
 30
0.0
  9
$EXTMIN
 10
0.0
 20
-0.0897435897
 30
0.0
  9
$EXTMAX
 10
370.0
 20
370.0
 30
0.0
  9
$LIMMIN
 10
0.0
 20
0.0
  9
$LIMMAX
 10
420.0
 20
297.0
  9
$ORTHOMODE
 70
     0
  9
$REGENMODE
 70
     1
  9
$FILLMODE
 70
     1
  9
$QTEXTMODE
 70
     0
  9
$MIRRTEXT
 70
     1
  9
$LTSCALE
 40
1.0
  9
$ATTMODE
 70
     1
  9
$TEXTSIZE
 40
3.5
  9
$TRACEWID
 40
1.0
  9
$TEXTSTYLE
  7
Standard
  9
$CLAYER
  8
0
  9
$CELTYPE
  6
ByLayer
  9
$CECOLOR
 62
   256
  9
$CELTSCALE
 40
1.0
  9
$DISPSILH
 70
     0
  9
$DIMSCALE
 40
1.0
  9
$DIMASZ
 40
3.302
  9
$DIMEXO
 40
1.0
  9
$DIMDLI
 40
3.75
  9
$DIMRND
 40
0.0
  9
$DIMDLE
 40
0.0
  9
$DIMEXE
 40
1.0
  9
$DIMTP
 40
0.0
  9
$DIMTM
 40
0.0
  9
$DIMTXT
 40
3.5
  9
$DIMCEN
 40
2.5
  9
$DIMTSZ
 40
0.0
  9
$DIMTOL
 70
     0
  9
$DIMLIM
 70
     0
  9
$DIMTIH
 70
     1
  9
$DIMTOH
 70
     1
  9
$DIMSE1
 70
     0
  9
$DIMSE2
 70
     0
  9
$DIMTAD
 70
     1
  9
$DIMZIN
 70
     0
  9
$DIMBLK
  1

  9
$DIMASO
 70
     1
  9
$DIMSHO
 70
     1
  9
$DIMPOST
  1

  9
$DIMAPOST
  1

  9
$DIMALT
 70
     0
  9
$DIMALTD
 70
     3
  9
$DIMALTF
 40
0.0393700787
  9
$DIMLFAC
 40
1.0
  9
$DIMTOFL
 70
     1
  9
$DIMTVP
 40
0.0
  9
$DIMTIX
 70
     0
  9
$DIMSOXD
 70
     0
  9
$DIMSAH
 70
     0
  9
$DIMBLK1
  1

  9
$DIMBLK2
  1

  9
$DIMSTYLE
  2
ISO-25
  9
$DIMCLRD
 70
     0
  9
$DIMCLRE
 70
     0
  9
$DIMCLRT
 70
     0
  9
$DIMTFAC
 40
1.0
  9
$DIMGAP
 40
1.524
  9
$DIMJUST
 70
     0
  9
$DIMSD1
 70
     0
  9
$DIMSD2
 70
     0
  9
$DIMTOLJ
 70
     0
  9
$DIMTZIN
 70
     0
  9
$DIMALTZ
 70
     0
  9
$DIMALTTZ
 70
     0
  9
$DIMUPT
 70
     0
  9
$DIMDEC
 70
     2
  9
$DIMTDEC
 70
     2
  9
$DIMALTU
 70
     2
  9
$DIMALTTD
 70
     3
  9
$DIMTXSTY
  7
Standard
  9
$DIMAUNIT
 70
     0
  9
$DIMADEC
 70
     2
  9
$DIMALTRND
 40
0.0
  9
$DIMAZIN
 70
     0
  9
$DIMDSEP
 70
    44
  9
$DIMATFIT
 70
     3
  9
$DIMFRAC
 70
     0
  9
$DIMLDRBLK
  1

  9
$DIMLUNIT
 70
     2
  9
$DIMLWD
 70
    -2
  9
$DIMLWE
 70
    -2
  9
$DIMTMOVE
 70
     0
  9
$LUNITS
 70
     2
  9
$LUPREC
 70
     2
  9
$SKETCHINC
 40
1.0
  9
$FILLETRAD
 40
10.0
  9
$AUNITS
 70
     0
  9
$AUPREC
 70
     2
  9
$MENU
  1
.
  9
$ELEVATION
 40
0.0
  9
$PELEVATION
 40
0.0
  9
$THICKNESS
 40
0.0
  9
$LIMCHECK
 70
     0
  9
$CHAMFERA
 40
0.0
  9
$CHAMFERB
 40
0.0
  9
$CHAMFERC
 40
0.0
  9
$CHAMFERD
 40
0.0
  9
$SKPOLY
 70
     0
  9
$TDCREATE
 40
2457035.876942708
  9
$TDUCREATE
 40
2457035.835276042
  9
$TDUPDATE
 40
2457035.878294109
  9
$TDUUPDATE
 40
2457035.836627442
  9
$TDINDWG
 40
0.0000000116
  9
$TDUSRTIMER
 40
0.0000000116
  9
$USRTIMER
 70
     1
  9
$ANGBASE
 50
0.0
  9
$ANGDIR
 70
     0
  9
$PDMODE
 70
     0
  9
$PDSIZE
 40
-1.0
  9
$PLINEWID
 40
0.0
  9
$SPLFRAME
 70
     0
  9
$SPLINETYPE
 70
     6
  9
$SPLINESEGS
 70
     8
  9
$HANDSEED
  5
162
  9
$SURFTAB1
 70
     6
  9
$SURFTAB2
 70
     6
  9
$SURFTYPE
 70
     6
  9
$SURFU
 70
     6
  9
$SURFV
 70
     6
  9
$UCSBASE
  2

  9
$UCSNAME
  2

  9
$UCSORG
 10
0.0
 20
0.0
 30
0.0
  9
$UCSXDIR
 10
1.0
 20
0.0
 30
0.0
  9
$UCSYDIR
 10
0.0
 20
1.0
 30
0.0
  9
$UCSORTHOREF
  2

  9
$UCSORTHOVIEW
 70
     0
  9
$UCSORGTOP
 10
0.0
 20
0.0
 30
0.0
  9
$UCSORGBOTTOM
 10
0.0
 20
0.0
 30
0.0
  9
$UCSORGLEFT
 10
0.0
 20
0.0
 30
0.0
  9
$UCSORGRIGHT
 10
0.0
 20
0.0
 30
0.0
  9
$UCSORGFRONT
 10
0.0
 20
0.0
 30
0.0
  9
$UCSORGBACK
 10
0.0
 20
0.0
 30
0.0
  9
$PUCSBASE
  2

  9
$PUCSNAME
  2

  9
$PUCSORG
 10
0.0
 20
0.0
 30
0.0
  9
$PUCSXDIR
 10
1.0
 20
0.0
 30
0.0
  9
$PUCSYDIR
 10
0.0
 20
1.0
 30
0.0
  9
$PUCSORTHOREF
  2

  9
$PUCSORTHOVIEW
 70
     0
  9
$PUCSORGTOP
 10
0.0
 20
0.0
 30
0.0
  9
$PUCSORGBOTTOM
 10
0.0
 20
0.0
 30
0.0
  9
$PUCSORGLEFT
 10
0.0
 20
0.0
 30
0.0
  9
$PUCSORGRIGHT
 10
0.0
 20
0.0
 30
0.0
  9
$PUCSORGFRONT
 10
0.0
 20
0.0
 30
0.0
  9
$PUCSORGBACK
 10
0.0
 20
0.0
 30
0.0
  9
$USERI1
 70
     0
  9
$USERI2
 70
     0
  9
$USERI3
 70
     0
  9
$USERI4
 70
     0
  9
$USERI5
 70
     0
  9
$USERR1
 40
0.0
  9
$USERR2
 40
0.0
  9
$USERR3
 40
0.0
  9
$USERR4
 40
0.0
  9
$USERR5
 40
0.0
  9
$WORLDVIEW
 70
     1
  9
$SHADEDGE
 70
     3
  9
$SHADEDIF
 70
    70
  9
$TILEMODE
 70
     1
  9
$MAXACTVP
 70
    64
  9
$PINSBASE
 10
0.0
 20
0.0
 30
0.0
  9
$PLIMCHECK
 70
     0
  9
$PEXTMIN
 10
1.0000000000E+20
 20
1.0000000000E+20
 30
1.0000000000E+20
  9
$PEXTMAX
 10
-1.0000000000E+20
 20
-1.0000000000E+20
 30
-1.0000000000E+20
  9
$PLIMMIN
 10
0.0
 20
0.0
  9
$PLIMMAX
 10
420.0
 20
297.0
  9
$UNITMODE
 70
     0
  9
$VISRETAIN
 70
     1
  9
$PLINEGEN
 70
     0
  9
$PSLTSCALE
 70
     1
  9
$TREEDEPTH
 70
  3020
  9
$CMLSTYLE
  2
Standard
  9
$CMLJUST
 70
     0
  9
$CMLSCALE
 40
20.0
  9
$PROXYGRAPHICS
 70
     1
  9
$MEASUREMENT
 70
     1
  9
$CELWEIGHT
370
    -1
  9
$ENDCAPS
280
     0
  9
$JOINSTYLE
280
     0
  9
$LWDISPLAY
290
     1
  9
$INSUNITS
 70
     4
  9
$HYPERLINKBASE
  1

  9
$STYLESHEET
  1

  9
$XEDIT
290
     1
  9
$CEPSNTYPE
380
     0
  9
$PSTYLEMODE
290
     1
  9
$FINGERPRINTGUID
  2
{258D6D80-16EF-4D4D-8CAA-909A1AFCA893}
  9
$VERSIONGUID
  2
{FAEB1C32-E019-11D5-929B-00C0DF256EC4}
  9
$EXTNAMES
290
     1
  9
$PSVPSCALE
 40
0.0
  9
$OLESTARTUP
290
     0
  0
ENDSEC
  0
SECTION
  2
CLASSES
  0
CLASS
  1
ACDBDICTIONARYWDFLT
  2
AcDbDictionaryWithDefault
  3
ObjectDBX Classes
 90
        0
280
     0
281
     0
  0
CLASS
  1
VISUALSTYLE
  2
AcDbVisualStyle
  3
ObjectDBX Classes
 90
     4095
280
     0
281
     0
  0
CLASS
  1
MATERIAL
  2
AcDbMaterial
  3
ObjectDBX Classes
 90
     1153
280
     0
281
     0
  0
CLASS
  1
SCALE
  2
AcDbScale
  3
ObjectDBX Classes
 90
     1153
280
     0
281
     0
  0
CLASS
  1
TABLESTYLE
  2
AcDbTableStyle
  3
ObjectDBX Classes
 90
     4095
280
     0
281
     0
  0
CLASS
  1
MLEADERSTYLE
  2
AcDbMLeaderStyle
  3
ACDB_MLEADERSTYLE_CLASS
 90
     4095
280
     0
281
     0
  0
CLASS
  1
SUN
  2
AcDbSun
  3
SCENEOE
 90
     1153
280
     0
281
     0
  0
CLASS
  1
ACDBPLACEHOLDER
  2
AcDbPlaceHolder
  3
ObjectDBX Classes
 90
        0
280
     0
281
     0
  0
CLASS
  1
LAYOUT
  2
AcDbLayout
  3
ObjectDBX Classes
 90
        0
280
     0
281
     0
  0
ENDSEC
  0
SECTION
  2
TABLES
  0
TABLE
  2
VPORT
  5
8
330
0
100
AcDbSymbolTable
 70
     1
  0
VPORT
  5
29
330
8
100
AcDbSymbolTableRecord
100
AcDbViewportTableRecord
  2
*Active
 70
     0
 10
0.0
 20
0.0
 11
1.0
 21
1.0
 12
185.0
 22
184.9551282051
 13
0.0
 23
0.0
 14
10.0
 24
10.0
 15
10.0
 25
10.0
 16
0.0
 26
0.0
 36
1.0
 17
0.0
 27
0.0
 37
0.0
 40
377.4915384615
 41
0.9997575086
 42
50.0
 43
0.0
 44
0.0
 50
0.0
 51
0.0
 71
     0
 72
   100
 73
     1
 74
     3
 75
     0
 76
     0
 77
     0
 78
     0
281
     0
 65
     1
110
0.0
120
0.0
130
0.0
111
1.0
121
0.0
131
0.0
112
0.0
122
1.0
132
0.0
 79
     0
146
0.0
  0
ENDTAB
  0
TABLE
  2
LTYPE
  5
5
330
0
100
AcDbSymbolTable
 70
     6
  0
LTYPE
  5
14
330
5
100
AcDbSymbolTableRecord
100
AcDbLinetypeTableRecord
  2
ByBlock
 70
     0
  3

 72
    65
 73
     0
 40
0.0
  0
LTYPE
  5
15
330
5
100
AcDbSymbolTableRecord
100
AcDbLinetypeTableRecord
  2
ByLayer
 70
     0
  3

 72
    65
 73
     0
 40
0.0
  0
LTYPE
  5
16
330
5
100
AcDbSymbolTableRecord
100
AcDbLinetypeTableRecord
  2
Continuous
 70
     0
  3
Solid line
 72
    65
 73
     0
 40
0.0
  0
LTYPE
  5
6E
330
5
100
AcDbSymbolTableRecord
100
AcDbLinetypeTableRecord
  2
HIDDEN
 70
     0
  3
Hidden __ __ __ __ __ __ __ __ __ __ __ __ __ __
 72
    65
 73
     2
 40
1.905
 49
1.27
 74
     0
 49
-0.635
 74
     0
  0
LTYPE
  5
6F
330
5
100
AcDbSymbolTableRecord
100
AcDbLinetypeTableRecord
  2
PHANTOM
 70
     0
  3
Phantom ______  __  __  ______  __  __  ______
 72
    65
 73
     6
 40
12.7
 49
6.35
 74
     0
 49
-1.27
 74
     0
 49
1.27
 74
     0
 49
-1.27
 74
     0
 49
1.27
 74
     0
 49
-1.27
 74
     0
  0
LTYPE
  5
70
330
5
100
AcDbSymbolTableRecord
100
AcDbLinetypeTableRecord
  2
CENTER
 70
     0
  3
Center ____ _ ____ _ ____ _ ____ _ ____ _ ____
 72
    65
 73
     4
 40
10.16
 49
6.35
 74
     0
 49
-1.27
 74
     0
 49
1.27
 74
     0
 49
-1.27
 74
     0
  0
LTYPE
  5
71
330
5
100
AcDbSymbolTableRecord
100
AcDbLinetypeTableRecord
  2
CENTERX2
 70
     0
  3
Center (2x) ________  __  ________  __  _____
 72
    65
 73
     4
 40
20.32
 49
12.7
 74
     0
 49
-2.54
 74
     0
 49
2.54
 74
     0
 49
-2.54
 74
     0
  0
LTYPE
  5
72
330
5
100
AcDbSymbolTableRecord
100
AcDbLinetypeTableRecord
  2
DOT2
 70
     0
  3
Dot (.5x) ........................................
 72
    65
 73
     2
 40
0.635
 49
0.0
 74
     0
 49
-0.635
 74
     0
  0
ENDTAB
  0
TABLE
  2
LAYER
  5
2
330
0
100
AcDbSymbolTable
 70
     1
  0
LAYER
  5
10
330
2
100
AcDbSymbolTableRecord
100
AcDbLayerTableRecord
  2
0
 70
     0
 62
     7
  6
Continuous
370
    -3
390
F
  0
ENDTAB
  0
TABLE
  2
STYLE
  5
3
330
0
100
AcDbSymbolTable
 70
     1
  0
STYLE
  5
11
330
3
100
AcDbSymbolTableRecord
100
AcDbTextStyleTableRecord
  2
Standard
 70
     0
 40
0.0
 41
1.0
 50
0.0
 71
     0
 42
3.5
  3
txt
  4

  0
ENDTAB
  0
TABLE
  2
VIEW
  5
6
330
0
100
AcDbSymbolTable
 70
     0
  0
ENDTAB
  0
TABLE
  2
UCS
  5
7
330
0
100
AcDbSymbolTable
 70
     0
  0
ENDTAB
  0
TABLE
  2
APPID
  5
9
330
0
100
AcDbSymbolTable
 70
     1
  0
APPID
  5
12
330
9
100
AcDbSymbolTableRecord
100
AcDbRegAppTableRecord
  2
ACAD
 70
     0
  0
ENDTAB
  0
TABLE
  2
DIMSTYLE
  5
A
330
0
100
AcDbSymbolTable
 70
     1
100
AcDbDimStyleTable
  0
DIMSTYLE
105
27
330
A
100
AcDbSymbolTableRecord
100
AcDbDimStyleTableRecord
  2
ISO-25
 70
     0
 41
2.5
 42
0.625
 43
3.75
 44
1.25
 73
     0
 74
     0
 77
     1
 78
     8
140
2.5
141
2.5
143
0.0393700787
147
0.625
171
     3
172
     1
178
     0
271
     2
272
     2
274
     3
278
    44
283
     0
284
     8
340
11
  0
ENDTAB
  0
TABLE
  2
BLOCK_RECORD
  5
1
330
0
100
AcDbSymbolTable
 70
     1
  0
BLOCK_RECORD
  5
1F
330
1
100
AcDbSymbolTableRecord
100
AcDbBlockTableRecord
  2
*Model_Space
340
22
  0
BLOCK_RECORD
  5
1B
330
1
100
AcDbSymbolTableRecord
100
AcDbBlockTableRecord
  2
*Paper_Space
340
1E
  0
BLOCK_RECORD
  5
23
330
1
100
AcDbSymbolTableRecord
100
AcDbBlockTableRecord
  2
*Paper_Space0
340
26
  0
ENDTAB
  0
ENDSEC
  0
SECTION
  2
BLOCKS
  0
BLOCK
  5
20
330
1F
100
AcDbEntity
  8
0
100
AcDbBlockBegin
  2
*Model_Space
 70
     0
 10
0.0
 20
0.0
 30
0.0
  3
*Model_Space
  1

  0
ENDBLK
  5
21
330
1F
100
AcDbEntity
  8
0
100
AcDbBlockEnd
  0
BLOCK
  5
1C
330
1B
100
AcDbEntity
 67
     1
  8
0
100
AcDbBlockBegin
  2
*Paper_Space
 70
     0
 10
0.0
 20
0.0
 30
0.0
  3
*Paper_Space
  1

  0
ENDBLK
  5
1D
330
1B
100
AcDbEntity
 67
     1
  8
0
100
AcDbBlockEnd
  0
BLOCK
  5
24
330
23
100
AcDbEntity
  8
0
100
AcDbBlockBegin
  2
*Paper_Space0
 70
     0
 10
0.0
 20
0.0
 30
0.0
  3
*Paper_Space0
  1

  0
ENDBLK
  5
25
330
23
100
AcDbEntity
  8
0
100
AcDbBlockEnd
  0
ENDSEC
  0
SECTION
  2
ENTITIES
  0
ARC
  5
73
330
1F
100
AcDbEntity
  8
0
  6
Continuous
 62
     7
100
AcDbCircle
 10
100.0
 20
20.0
 30
0.0
 40
5.0
100
AcDbArc
 50
180.0
 51
0.0
  0
ARC
  5
74
330
1F
100
AcDbEntity
  8
0
  6
Continuous
 62
     7
100
AcDbCircle
 10
270.0
 20
20.0
 30
0.0
 40
5.0
100
AcDbArc
 50
180.0
 51
0.0
  0
CIRCLE
  5
75
330
1F
100
AcDbEntity
  8
0
  6
Continuous
 62
     7
100
AcDbCircle
 10
3.2951080554
 20
74.6100448329
 30
0.0
 40
1.249999999999999
  0
CIRCLE
  5
76
330
1F
100
AcDbEntity
  8
0
  6
Continuous
 62
     7
100
AcDbCircle
 10
51.5551080554
 20
150.8100448329
 30
0.0
 40
1.249999999999991
  0
CIRCLE
  5
77
330
1F
100
AcDbEntity
  8
0
  6
Continuous
 62
     7
100
AcDbCircle
 10
3.2951080554
 20
157.1600448329
 30
0.0
 40
1.249999999999994
  0
CIRCLE
  5
78
330
1F
100
AcDbEntity
  8
0
  6
Continuous
 62
     7
100
AcDbCircle
 10
3.2951080554
 20
149.5400448329
 30
0.0
 40
1.250000000000003
  0
CIRCLE
  5
79
330
1F
100
AcDbEntity
  8
0
  6
Continuous
 62
     7
100
AcDbCircle
 10
75.0
 20
250.0
 30
0.0
 40
1.5
  0
CIRCLE
  5
7A
330
1F
100
AcDbEntity
  8
0
  6
Continuous
 62
     7
100
AcDbCircle
 10
95.0376194079
 20
250.0
 30
0.0
 40
1.499999999999992
  0
CIRCLE
  5
7B
330
1F
100
AcDbEntity
  8
0
  6
Continuous
 62
     7
100
AcDbCircle
 10
75.0
 20
180.0
 30
0.0
 40
1.5
  0
CIRCLE
  5
7C
330
1F
100
AcDbEntity
  8
0
  6
Continuous
 62
     7
100
AcDbCircle
 10
95.0
 20
180.0
 30
0.0
 40
1.5
  0
CIRCLE
  5
7D
330
1F
100
AcDbEntity
  8
0
  6
Continuous
 62
     7
100
AcDbCircle
 10
265.0
 20
215.0
 30
0.0
 40
1.500000000000033
  0
CIRCLE
  5
7E
330
1F
100
AcDbEntity
  8
0
  6
Continuous
 62
     7
100
AcDbCircle
 10
245.0
 20
215.0
 30
0.0
 40
1.5
  0
CIRCLE
  5
7F
330
1F
100
AcDbEntity
  8
0
  6
Continuous
 62
     7
100
AcDbCircle
 10
65.5
 20
319.5
 30
0.0
 40
1.5
  0
CIRCLE
  5
80
330
1F
100
AcDbEntity
  8
0
  6
Continuous
 62
     7
100
AcDbCircle
 10
274.5
 20
110.5
 30
0.0
 40
1.5
  0
CIRCLE
  5
81
330
1F
100
AcDbEntity
  8
0
  6
Continuous
 62
     7
100
AcDbCircle
 10
274.5
 20
319.5
 30
0.0
 40
1.5
  0
CIRCLE
  5
82
330
1F
100
AcDbEntity
  8
0
  6
Continuous
 62
     7
100
AcDbCircle
 10
65.5
 20
110.5
 30
0.0
 40
1.5
  0
CIRCLE
  5
83
330
1F
100
AcDbEntity
  8
0
  6
Continuous
 62
     7
100
AcDbCircle
 10
50.0
 20
6.0
 30
0.0
 40
1.250000000000003
  0
CIRCLE
  5
84
330
1F
100
AcDbEntity
  8
0
  6
Continuous
 62
     7
100
AcDbCircle
 10
320.0
 20
6.0
 30
0.0
 40
1.249999999999946
  0
CIRCLE
  5
85
330
1F
100
AcDbEntity
  8
0
  6
Continuous
 62
     7
100
AcDbCircle
 10
230.0
 20
6.0
 30
0.0
 40
1.25000000000003
  0
CIRCLE
  5
86
330
1F
100
AcDbEntity
  8
0
  6
Continuous
 62
     7
100
AcDbCircle
 10
140.0
 20
6.0
 30
0.0
 40
1.25000000000003
  0
CIRCLE
  5
87
330
1F
100
AcDbEntity
  8
0
  6
Continuous
 62
     7
100
AcDbCircle
 10
20.0
 20
10.0
 30
0.0
 40
4.0
  0
CIRCLE
  5
88
330
1F
100
AcDbEntity
  8
0
  6
Continuous
 62
     7
100
AcDbCircle
 10
350.0
 20
10.0
 30
0.0
 40
4.0
  0
ARC
  5
89
330
1F
100
AcDbEntity
  8
0
  6
Continuous
 62
     7
100
AcDbCircle
 10
84.0
 20
192.0
 30
0.0
 40
4.0
100
AcDbArc
 50
90.0
 51
180.0
  0
ARC
  5
8A
330
1F
100
AcDbEntity
  8
0
  6
Continuous
 62
     7
100
AcDbCircle
 10
86.0
 20
192.0
 30
0.0
 40
4.0
100
AcDbArc
 50
0.0
 51
90.0
  0
ARC
  5
8B
330
1F
100
AcDbEntity
  8
0
  6
Continuous
 62
     7
100
AcDbCircle
 10
84.0
 20
169.0
 30
0.0
 40
4.0
100
AcDbArc
 50
180.0
 51
270.0
  0
ARC
  5
8C
330
1F
100
AcDbEntity
  8
0
  6
Continuous
 62
     7
100
AcDbCircle
 10
86.0
 20
169.0
 30
0.0
 40
4.0
100
AcDbArc
 50
270.0
 51
0.0
  0
CIRCLE
  5
8D
330
1F
100
AcDbEntity
  8
0
  6
Continuous
 62
     7
100
AcDbCircle
 10
10.0
 20
40.0
 30
0.0
 40
1.250000000000002
  0
CIRCLE
  5
8E
330
1F
100
AcDbEntity
  8
0
  6
Continuous
 62
     7
100
AcDbCircle
 10
30.0
 20
40.0
 30
0.0
 40
1.25
  0
CIRCLE
  5
8F
330
1F
100
AcDbEntity
  8
0
  6
Continuous
 62
     7
100
AcDbCircle
 10
20.0
 20
20.0
 30
0.0
 40
1.250000000000003
  0
CIRCLE
  5
90
330
1F
100
AcDbEntity
  8
0
  6
Continuous
 62
     7
100
AcDbCircle
 10
350.0
 20
20.0
 30
0.0
 40
1.249999999999946
  0
CIRCLE
  5
91
330
1F
100
AcDbEntity
  8
0
  6
Continuous
 62
     7
100
AcDbCircle
 10
340.0
 20
40.0
 30
0.0
 40
1.250000000000002
  0
CIRCLE
  5
92
330
1F
100
AcDbEntity
  8
0
  6
Continuous
 62
     7
100
AcDbCircle
 10
360.0
 20
40.0
 30
0.0
 40
1.249999999999947
  0
CIRCLE
  5
93
330
1F
100
AcDbEntity
  8
0
  6
Continuous
 62
     7
100
AcDbCircle
 10
360.0
 20
360.0
 30
0.0
 40
1.500000000000033
  0
CIRCLE
  5
94
330
1F
100
AcDbEntity
  8
0
  6
Continuous
 62
     7
100
AcDbCircle
 10
340.0
 20
360.0
 30
0.0
 40
1.5
  0
CIRCLE
  5
95
330
1F
100
AcDbEntity
  8
0
  6
Continuous
 62
     7
100
AcDbCircle
 10
10.0
 20
360.0
 30
0.0
 40
1.5
  0
CIRCLE
  5
96
330
1F
100
AcDbEntity
  8
0
  6
Continuous
 62
     7
100
AcDbCircle
 10
30.0
 20
360.0
 30
0.0
 40
1.5
  0
CIRCLE
  5
97
330
1F
100
AcDbEntity
  8
0
  6
Continuous
 62
     7
100
AcDbCircle
 10
170.024675872
 20
194.0
 30
0.0
 40
1.499999999999987
  0
CIRCLE
  5
98
330
1F
100
AcDbEntity
  8
0
  6
Continuous
 62
     7
100
AcDbCircle
 10
170.024675872
 20
235.0
 30
0.0
 40
1.499999999999979
  0
ARC
  5
99
330
1F
100
AcDbEntity
  8
0
  6
Continuous
 62
     7
100
AcDbCircle
 10
86.0
 20
239.007036896
 30
0.0
 40
4.0
100
AcDbArc
 50
270.0
 51
0.0
  0
ARC
  5
9A
330
1F
100
AcDbEntity
  8
0
  6
Continuous
 62
     7
100
AcDbCircle
 10
84.0
 20
262.007036896
 30
0.0
 40
4.0
100
AcDbArc
 50
90.0
 51
180.0
  0
ARC
  5
9B
330
1F
100
AcDbEntity
  8
0
  6
Continuous
 62
     7
100
AcDbCircle
 10
86.0
 20
262.007036896
 30
0.0
 40
4.0
100
AcDbArc
 50
0.0
 51
90.0
  0
ARC
  5
9C
330
1F
100
AcDbEntity
  8
0
  6
Continuous
 62
     7
100
AcDbCircle
 10
84.0
 20
239.007036896
 30
0.0
 40
4.0
100
AcDbArc
 50
180.0
 51
270.0
  0
ARC
  5
9D
330
1F
100
AcDbEntity
  8
0
  6
Continuous
 62
     7
100
AcDbCircle
 10
256.0
 20
202.8628763929
 30
0.0
 40
4.0
100
AcDbArc
 50
270.0
 51
0.0
  0
ARC
  5
9E
330
1F
100
AcDbEntity
  8
0
  6
Continuous
 62
     7
100
AcDbCircle
 10
254.0
 20
225.8628763929
 30
0.0
 40
4.0
100
AcDbArc
 50
90.0
 51
180.0
  0
ARC
  5
9F
330
1F
100
AcDbEntity
  8
0
  6
Continuous
 62
     7
100
AcDbCircle
 10
256.0
 20
225.8628763929
 30
0.0
 40
4.0
100
AcDbArc
 50
0.0
 51
90.0
  0
ARC
  5
A0
330
1F
100
AcDbEntity
  8
0
  6
Continuous
 62
     7
100
AcDbCircle
 10
254.0
 20
202.8628763929
 30
0.0
 40
4.0
100
AcDbArc
 50
180.0
 51
270.0
  0
CIRCLE
  5
A1
330
1F
100
AcDbEntity
  8
0
  6
Continuous
 62
     7
100
AcDbCircle
 10
51.5551080554
 20
75.8800448329
 30
0.0
 40
1.249999999999995
  0
CIRCLE
  5
A2
330
1F
100
AcDbEntity
  8
0
  6
Continuous
 62
     7
100
AcDbCircle
 10
51.5551080554
 20
68.2600448329
 30
0.0
 40
1.249999999999995
  0
ARC
  5
A3
330
1F
100
AcDbEntity
  8
0
  6
Continuous
 62
     7
100
AcDbCircle
 10
123.8171154988
 20
281.0796424554
 30
0.0
 40
2.0
100
AcDbArc
 50
90.0
 51
227.6986992046
  0
ARC
  5
A4
330
1F
100
AcDbEntity
  8
0
  6
Continuous
 62
     7
100
AcDbCircle
 10
123.8171154988
 20
148.9203575446
 30
0.0
 40
2.000000000000085
100
AcDbArc
 50
132.3013007954
 51
270.0
  0
CIRCLE
  5
A5
330
1F
100
AcDbEntity
  8
0
  6
Continuous
 62
     7
100
AcDbCircle
 10
5.0
 20
269.5
 30
0.0
 40
1.500000000000001
  0
CIRCLE
  5
A6
330
1F
100
AcDbEntity
  8
0
  6
Continuous
 62
     7
100
AcDbCircle
 10
48.0
 20
269.5
 30
0.0
 40
1.5
  0
ARC
  5
A7
330
1F
100
AcDbEntity
  8
0
  6
Continuous
 62
     7
100
AcDbCircle
 10
216.2322362452
 20
281.0796424554
 30
0.0
 40
2.000000000000009
100
AcDbArc
 50
312.3013007954
 51
90.0
  0
ARC
  5
A8
330
1F
100
AcDbEntity
  8
0
  6
Continuous
 62
     7
100
AcDbCircle
 10
216.2322362452
 20
148.9203575446
 30
0.0
 40
2.000000000000028
100
AcDbArc
 50
270.0
 51
47.6986992046
  0
ARC
  5
A9
330
1F
100
AcDbEntity
  8
0
  6
Continuous
 62
     7
100
AcDbCircle
 10
180.8327612469
 20
218.9647967222
 30
0.0
 40
2.000000000000023
100
AcDbArc
 50
125.2676840366
 51
180.0
  0
ARC
  5
AA
330
1F
100
AcDbEntity
  8
0
  6
Continuous
 62
     7
100
AcDbCircle
 10
180.8327612469
 20
211.0352032778
 30
0.0
 40
2.0
100
AcDbArc
 50
180.0
 51
234.7323159634
  0
ARC
  5
AB
330
1F
100
AcDbEntity
  8
0
  6
Continuous
 62
     7
100
AcDbCircle
 10
159.2165904972
 20
218.9647967222
 30
0.0
 40
2.000000000000023
100
AcDbArc
 50
0.0
 51
54.7323159634
  0
ARC
  5
AC
330
1F
100
AcDbEntity
  8
0
  6
Continuous
 62
     7
100
AcDbCircle
 10
159.2165904972
 20
211.0352032778
 30
0.0
 40
2.0
100
AcDbArc
 50
305.2676840366
 51
0.0
  0
CIRCLE
  5
AD
330
1F
100
AcDbEntity
  8
0
  6
Continuous
 62
     7
100
AcDbCircle
 10
3.2951080554
 20
207.1600448329
 30
0.0
 40
1.250000000000004
  0
CIRCLE
  5
AE
330
1F
100
AcDbEntity
  8
0
  6
Continuous
 62
     7
100
AcDbCircle
 10
51.5551080554
 20
200.8100448329
 30
0.0
 40
1.249999999999999
  0
CIRCLE
  5
AF
330
1F
100
AcDbEntity
  8
0
  6
Continuous
 62
     7
100
AcDbCircle
 10
3.2951080554
 20
199.5400448329
 30
0.0
 40
1.249999999999995
  0
CIRCLE
  5
B0
330
1F
100
AcDbEntity
  8
0
  6
Continuous
 62
     7
100
AcDbCircle
 10
51.5551080554
 20
125.8800448329
 30
0.0
 40
1.249999999999995
  0
CIRCLE
  5
B1
330
1F
100
AcDbEntity
  8
0
  6
Continuous
 62
     7
100
AcDbCircle
 10
51.5551080554
 20
118.2600448329
 30
0.0
 40
1.249999999999999
  0
CIRCLE
  5
B2
330
1F
100
AcDbEntity
  8
0
  6
Continuous
 62
     7
100
AcDbCircle
 10
3.2951080554
 20
124.6100448329
 30
0.0
 40
1.250000000000003
  0
LINE
  5
B3
330
1F
100
AcDbEntity
  8
0
  6
Continuous
 62
     7
100
AcDbLine
 10
0.0
 20
4.8082515852
 30
0.0
 11
0.0
 21
365.0
 31
0.0
  0
LINE
  5
B4
330
1F
100
AcDbEntity
  8
0
  6
Continuous
 62
     7
100
AcDbLine
 10
5.0
 20
370.0
 30
0.0
 11
365.0
 21
370.0
 31
0.0
  0
LINE
  5
B5
330
1F
100
AcDbEntity
  8
0
  6
Continuous
 62
     7
100
AcDbLine
 10
370.0
 20
365.0
 30
0.0
 11
370.0
 21
5.0
 31
0.0
  0
LINE
  5
B6
330
1F
100
AcDbEntity
  8
0
  6
Continuous
 62
     7
100
AcDbLine
 10
365.0
 20
0.0
 30
0.0
 11
345.0
 21
0.0
 31
0.0
  0
LINE
  5
B7
330
1F
100
AcDbEntity
  8
0
  6
Continuous
 62
     7
100
AcDbLine
 10
5.0
 20
0.0
 30
0.0
 11
0.0
 21
4.8082515852
 31
0.0
  0
LINE
  5
B8
330
1F
100
AcDbEntity
  8
0
  6
Continuous
 62
     7
100
AcDbLine
 10
0.0
 20
4.8082515852
 30
0.0
 11
0.0
 21
365.0
 31
0.0
  0
LINE
  5
B9
330
1F
100
AcDbEntity
  8
0
  6
Continuous
 62
     7
100
AcDbLine
 10
0.0
 20
365.0
 30
0.0
 11
5.0
 21
370.0
 31
0.0
  0
LINE
  5
BA
330
1F
100
AcDbEntity
  8
0
  6
Continuous
 62
     7
100
AcDbLine
 10
5.0
 20
370.0
 30
0.0
 11
365.0
 21
370.0
 31
0.0
  0
LINE
  5
BB
330
1F
100
AcDbEntity
  8
0
  6
Continuous
 62
     7
100
AcDbLine
 10
365.0
 20
370.0
 30
0.0
 11
370.0
 21
365.0
 31
0.0
  0
LINE
  5
BC
330
1F
100
AcDbEntity
  8
0
  6
Continuous
 62
     7
100
AcDbLine
 10
370.0
 20
365.0
 30
0.0
 11
370.0
 21
5.0
 31
0.0
  0
LINE
  5
BD
330
1F
100
AcDbEntity
  8
0
  6
Continuous
 62
     7
100
AcDbLine
 10
370.0
 20
5.0
 30
0.0
 11
365.0
 21
0.0
 31
0.0
  0
LINE
  5
BE
330
1F
100
AcDbEntity
  8
0
  6
Continuous
 62
     7
100
AcDbLine
 10
365.0
 20
0.0
 30
0.0
 11
345.0
 21
0.0
 31
0.0
  0
LINE
  5
BF
330
1F
100
AcDbEntity
  8
0
  6
Continuous
 62
     7
100
AcDbLine
 10
345.0
 20
0.0
 30
0.0
 11
343.0
 21
2.0
 31
0.0
  0
LINE
  5
C0
330
1F
100
AcDbEntity
  8
0
  6
Continuous
 62
     7
100
AcDbLine
 10
329.0
 20
2.0
 30
0.0
 11
41.0
 21
2.0
 31
0.0
  0
LINE
  5
C1
330
1F
100
AcDbEntity
  8
0
  6
Continuous
 62
     7
100
AcDbLine
 10
27.0
 20
2.0
 30
0.0
 11
25.0
 21
0.0
 31
0.0
  0
LINE
  5
C2
330
1F
100
AcDbEntity
  8
0
  6
Continuous
 62
     7
100
AcDbLine
 10
25.0
 20
0.0
 30
0.0
 11
5.0
 21
0.0
 31
0.0
  0
LINE
  5
C3
330
1F
100
AcDbEntity
  8
0
  6
Continuous
 62
     7
100
AcDbLine
 10
95.0
 20
20.0
 30
0.0
 11
95.0
 21
35.0
 31
0.0
  0
LINE
  5
C4
330
1F
100
AcDbEntity
  8
0
  6
Continuous
 62
     7
100
AcDbLine
 10
95.0
 20
35.0
 30
0.0
 11
80.0
 21
50.0
 31
0.0
  0
LINE
  5
C5
330
1F
100
AcDbEntity
  8
0
  6
Continuous
 62
     7
100
AcDbLine
 10
80.0
 20
50.0
 30
0.0
 11
60.0
 21
50.0
 31
0.0
  0
LINE
  5
C6
330
1F
100
AcDbEntity
  8
0
  6
Continuous
 62
     7
100
AcDbLine
 10
60.0
 20
50.0
 30
0.0
 11
55.0
 21
55.0
 31
0.0
  0
LINE
  5
C7
330
1F
100
AcDbEntity
  8
0
  6
Continuous
 62
     7
100
AcDbLine
 10
55.0
 20
55.0
 30
0.0
 11
55.0
 21
325.0
 31
0.0
  0
LINE
  5
C8
330
1F
100
AcDbEntity
  8
0
  6
Continuous
 62
     7
100
AcDbLine
 10
55.0
 20
325.0
 30
0.0
 11
60.0
 21
330.0
 31
0.0
  0
LINE
  5
C9
330
1F
100
AcDbEntity
  8
0
  6
Continuous
 62
     7
100
AcDbLine
 10
60.0
 20
330.0
 30
0.0
 11
310.0
 21
330.0
 31
0.0
  0
LINE
  5
CA
330
1F
100
AcDbEntity
  8
0
  6
Continuous
 62
     7
100
AcDbLine
 10
310.0
 20
330.0
 30
0.0
 11
315.0
 21
325.0
 31
0.0
  0
LINE
  5
CB
330
1F
100
AcDbEntity
  8
0
  6
Continuous
 62
     7
100
AcDbLine
 10
315.0
 20
325.0
 30
0.0
 11
315.0
 21
55.0
 31
0.0
  0
LINE
  5
CC
330
1F
100
AcDbEntity
  8
0
  6
Continuous
 62
     7
100
AcDbLine
 10
315.0
 20
55.0
 30
0.0
 11
310.0
 21
50.0
 31
0.0
  0
LINE
  5
CD
330
1F
100
AcDbEntity
  8
0
  6
Continuous
 62
     7
100
AcDbLine
 10
105.0
 20
20.0
 30
0.0
 11
105.0
 21
35.0
 31
0.0
  0
LINE
  5
CE
330
1F
100
AcDbEntity
  8
0
  6
Continuous
 62
     7
100
AcDbLine
 10
105.0
 20
35.0
 30
0.0
 11
110.0
 21
40.0
 31
0.0
  0
LINE
  5
CF
330
1F
100
AcDbEntity
  8
0
  6
Continuous
 62
     7
100
AcDbLine
 10
310.0
 20
50.0
 30
0.0
 11
290.0
 21
50.0
 31
0.0
  0
LINE
  5
D0
330
1F
100
AcDbEntity
  8
0
  6
Continuous
 62
     7
100
AcDbLine
 10
290.0
 20
50.0
 30
0.0
 11
275.0
 21
35.0
 31
0.0
  0
LINE
  5
D1
330
1F
100
AcDbEntity
  8
0
  6
Continuous
 62
     7
100
AcDbLine
 10
275.0
 20
35.0
 30
0.0
 11
275.0
 21
20.0
 31
0.0
  0
LINE
  5
D2
330
1F
100
AcDbEntity
  8
0
  6
Continuous
 62
     7
100
AcDbLine
 10
265.0
 20
20.0
 30
0.0
 11
265.0
 21
35.0
 31
0.0
  0
LINE
  5
D3
330
1F
100
AcDbEntity
  8
0
  6
Continuous
 62
     7
100
AcDbLine
 10
265.0
 20
35.0
 30
0.0
 11
260.0
 21
40.0
 31
0.0
  0
LINE
  5
D4
330
1F
100
AcDbEntity
  8
0
  6
Continuous
 62
     7
100
AcDbLine
 10
177.175080184
 20
17.824919816
 30
0.0
 11
192.824919816
 21
17.824919816
 31
0.0
  0
LINE
  5
D5
330
1F
100
AcDbEntity
  8
0
  6
Continuous
 62
     7
100
AcDbLine
 10
192.824919816
 20
17.824919816
 30
0.0
 11
215.0
 21
40.0
 31
0.0
  0
LINE
  5
D6
330
1F
100
AcDbEntity
  8
0
  6
Continuous
 62
     7
100
AcDbLine
 10
177.175080184
 20
17.824919816
 30
0.0
 11
155.0
 21
40.0
 31
0.0
  0
LINE
  5
D7
330
1F
100
AcDbEntity
  8
0
  6
Continuous
 62
     7
100
AcDbLine
 10
110.0
 20
40.0
 30
0.0
 11
155.0
 21
40.0
 31
0.0
  0
LINE
  5
D8
330
1F
100
AcDbEntity
  8
0
  6
Continuous
 62
     7
100
AcDbLine
 10
215.0
 20
40.0
 30
0.0
 11
260.0
 21
40.0
 31
0.0
  0
LINE
  5
D9
330
1F
100
AcDbEntity
  8
0
  6
Continuous
 62
     7
100
AcDbLine
 10
65.0
 20
325.0
 30
0.0
 11
63.0
 21
325.0
 31
0.0
  0
LINE
  5
DA
330
1F
100
AcDbEntity
  8
0
  6
Continuous
 62
     7
100
AcDbLine
 10
63.0
 20
325.0
 30
0.0
 11
60.0
 21
322.0
 31
0.0
  0
LINE
  5
DB
330
1F
100
AcDbEntity
  8
0
  6
Continuous
 62
     7
100
AcDbLine
 10
60.0
 20
322.0
 30
0.0
 11
60.0
 21
320.0
 31
0.0
  0
LINE
  5
DC
330
1F
100
AcDbEntity
  8
0
  6
Continuous
 62
     7
100
AcDbLine
 10
60.0
 20
320.0
 30
0.0
 11
60.0
 21
318.0
 31
0.0
  0
LINE
  5
DD
330
1F
100
AcDbEntity
  8
0
  6
Continuous
 62
     7
100
AcDbLine
 10
60.0
 20
318.0
 30
0.0
 11
80.0
 21
298.0
 31
0.0
  0
LINE
  5
DE
330
1F
100
AcDbEntity
  8
0
  6
Continuous
 62
     7
100
AcDbLine
 10
80.0
 20
298.0
 30
0.0
 11
80.0
 21
278.0
 31
0.0
  0
LINE
  5
DF
330
1F
100
AcDbEntity
  8
0
  6
Continuous
 62
     7
100
AcDbLine
 10
80.0
 20
278.0
 30
0.0
 11
70.0
 21
268.0
 31
0.0
  0
LINE
  5
E0
330
1F
100
AcDbEntity
  8
0
  6
Continuous
 62
     7
100
AcDbLine
 10
70.0
 20
162.0
 30
0.0
 11
80.0
 21
152.0
 31
0.0
  0
LINE
  5
E1
330
1F
100
AcDbEntity
  8
0
  6
Continuous
 62
     7
100
AcDbLine
 10
60.0
 20
112.0
 30
0.0
 11
80.0
 21
132.0
 31
0.0
  0
LINE
  5
E2
330
1F
100
AcDbEntity
  8
0
  6
Continuous
 62
     7
100
AcDbLine
 10
80.0
 20
132.0
 30
0.0
 11
80.0
 21
152.0
 31
0.0
  0
LINE
  5
E3
330
1F
100
AcDbEntity
  8
0
  6
Continuous
 62
     7
100
AcDbLine
 10
60.0
 20
112.0
 30
0.0
 11
60.0
 21
108.0
 31
0.0
  0
LINE
  5
E4
330
1F
100
AcDbEntity
  8
0
  6
Continuous
 62
     7
100
AcDbLine
 10
60.0
 20
108.0
 30
0.0
 11
63.0
 21
105.0
 31
0.0
  0
LINE
  5
E5
330
1F
100
AcDbEntity
  8
0
  6
Continuous
 62
     7
100
AcDbLine
 10
63.0
 20
105.0
 30
0.0
 11
65.0
 21
105.0
 31
0.0
  0
LINE
  5
E6
330
1F
100
AcDbEntity
  8
0
  6
Continuous
 62
     7
100
AcDbLine
 10
275.0
 20
105.0
 30
0.0
 11
277.0
 21
105.0
 31
0.0
  0
LINE
  5
E7
330
1F
100
AcDbEntity
  8
0
  6
Continuous
 62
     7
100
AcDbLine
 10
277.0
 20
105.0
 30
0.0
 11
280.0
 21
108.0
 31
0.0
  0
LINE
  5
E8
330
1F
100
AcDbEntity
  8
0
  6
Continuous
 62
     7
100
AcDbLine
 10
280.0
 20
321.0
 30
0.0
 11
280.0
 21
322.0
 31
0.0
  0
LINE
  5
E9
330
1F
100
AcDbEntity
  8
0
  6
Continuous
 62
     7
100
AcDbLine
 10
280.0
 20
322.0
 30
0.0
 11
277.0
 21
325.0
 31
0.0
  0
LINE
  5
EA
330
1F
100
AcDbEntity
  8
0
  6
Continuous
 62
     7
100
AcDbLine
 10
280.0
 20
318.0
 30
0.0
 11
240.0
 21
278.0
 31
0.0
  0
LINE
  5
EB
330
1F
100
AcDbEntity
  8
0
  6
Continuous
 62
     7
100
AcDbLine
 10
270.0
 20
228.0
 30
0.0
 11
260.0
 21
238.0
 31
0.0
  0
LINE
  5
EC
330
1F
100
AcDbEntity
  8
0
  6
Continuous
 62
     7
100
AcDbLine
 10
260.0
 20
238.0
 30
0.0
 11
240.0
 21
258.0
 31
0.0
  0
LINE
  5
ED
330
1F
100
AcDbEntity
  8
0
  6
Continuous
 62
     7
100
AcDbLine
 10
240.0
 20
258.0
 30
0.0
 11
240.0
 21
278.0
 31
0.0
  0
LINE
  5
EE
330
1F
100
AcDbEntity
  8
0
  6
Continuous
 62
     7
100
AcDbLine
 10
270.0
 20
202.0
 30
0.0
 11
260.0
 21
192.0
 31
0.0
  0
LINE
  5
EF
330
1F
100
AcDbEntity
  8
0
  6
Continuous
 62
     7
100
AcDbLine
 10
260.0
 20
192.0
 30
0.0
 11
240.0
 21
172.0
 31
0.0
  0
LINE
  5
F0
330
1F
100
AcDbEntity
  8
0
  6
Continuous
 62
     7
100
AcDbLine
 10
280.0
 20
112.0
 30
0.0
 11
260.0
 21
132.0
 31
0.0
  0
LINE
  5
F1
330
1F
100
AcDbEntity
  8
0
  6
Continuous
 62
     7
100
AcDbLine
 10
260.0
 20
132.0
 30
0.0
 11
240.0
 21
152.0
 31
0.0
  0
LINE
  5
F2
330
1F
100
AcDbEntity
  8
0
  6
Continuous
 62
     7
100
AcDbLine
 10
240.0
 20
152.0
 30
0.0
 11
240.0
 21
172.0
 31
0.0
  0
LINE
  5
F3
330
1F
100
AcDbEntity
  8
0
  6
Continuous
 62
     7
100
AcDbLine
 10
273.0
 20
325.0
 30
0.0
 11
250.0
 21
302.0
 31
0.0
  0
LINE
  5
F4
330
1F
100
AcDbEntity
  8
0
  6
Continuous
 62
     7
100
AcDbLine
 10
161.2165904972
 20
218.9647967222
 30
0.0
 11
161.2165904972
 21
211.0352032778
 31
0.0
  0
LINE
  5
F5
330
1F
100
AcDbEntity
  8
0
  6
Continuous
 62
     7
100
AcDbLine
 10
122.4710568882
 20
279.6004108249
 30
0.0
 11
161.1146998932
 21
244.4357974285
 31
0.0
  0
LINE
  5
F6
330
1F
100
AcDbEntity
  8
0
  6
Continuous
 62
     7
100
AcDbLine
 10
161.1146998932
 20
244.4357974285
 30
0.0
 11
178.9346518508
 21
244.4357974285
 31
0.0
  0
LINE
  5
F7
330
1F
100
AcDbEntity
  8
0
  6
Continuous
 62
     7
100
AcDbLine
 10
273.0
 20
105.0
 30
0.0
 11
248.0
 21
130.0
 31
0.0
  0
LINE
  5
F8
330
1F
100
AcDbEntity
  8
0
  6
Continuous
 62
     7
100
AcDbLine
 10
104.0376194079
 20
234.4980654888
 30
0.0
 11
104.0376194079
 21
195.5019345112
 31
0.0
  0
LINE
  5
F9
330
1F
100
AcDbEntity
  8
0
  6
Continuous
 62
     7
100
AcDbLine
 10
92.0
 20
300.0
 30
0.0
 11
248.0
 21
300.0
 31
0.0
  0
LINE
  5
FA
330
1F
100
AcDbEntity
  8
0
  6
Continuous
 62
     7
100
AcDbLine
 10
92.0
 20
130.0
 30
0.0
 11
248.0
 21
130.0
 31
0.0
  0
LINE
  5
FB
330
1F
100
AcDbEntity
  8
0
  6
Continuous
 62
     7
100
AcDbLine
 10
70.0
 20
230.0
 30
0.0
 11
80.0
 21
220.0
 31
0.0
  0
LINE
  5
FC
330
1F
100
AcDbEntity
  8
0
  6
Continuous
 62
     7
100
AcDbLine
 10
80.0
 20
220.0
 30
0.0
 11
80.0
 21
210.0
 31
0.0
  0
LINE
  5
FD
330
1F
100
AcDbEntity
  8
0
  6
Continuous
 62
     7
100
AcDbLine
 10
80.0
 20
210.0
 30
0.0
 11
70.0
 21
200.0
 31
0.0
  0
LINE
  5
FE
330
1F
100
AcDbEntity
  8
0
  6
Continuous
 62
     7
100
AcDbLine
 10
104.0376194079
 20
234.4980654888
 30
0.0
 11
116.2301535904
 21
247.090525358
 31
0.0
  0
LINE
  5
FF
330
1F
100
AcDbEntity
  8
0
  6
Continuous
 62
     7
100
AcDbLine
 10
116.2301535904
 20
247.090525358
 30
0.0
 11
122.909474642
 21
247.090525358
 31
0.0
  0
LINE
  5
100
330
1F
100
AcDbEntity
  8
0
  6
Continuous
 62
     7
100
AcDbLine
 10
122.909474642
 20
247.090525358
 30
0.0
 11
160.3713849264
 21
220.5977234892
 31
0.0
  0
LINE
  5
101
330
1F
100
AcDbEntity
  8
0
  6
Continuous
 62
     7
100
AcDbLine
 10
217.1398771021
 20
247.090525358
 30
0.0
 11
179.6779668177
 21
220.5977234892
 31
0.0
  0
LINE
  5
102
330
1F
100
AcDbEntity
  8
0
  6
Continuous
 62
     7
100
AcDbLine
 10
223.8191981536
 20
247.090525358
 30
0.0
 11
217.1398771021
 21
247.090525358
 31
0.0
  0
LINE
  5
103
330
1F
100
AcDbEntity
  8
0
  6
Continuous
 62
     7
100
AcDbLine
 10
236.0117323362
 20
234.4980654888
 30
0.0
 11
223.8191981536
 21
247.090525358
 31
0.0
  0
LINE
  5
104
330
1F
100
AcDbEntity
  8
0
  6
Continuous
 62
     7
100
AcDbLine
 10
236.0117323362
 20
234.4980654888
 30
0.0
 11
236.0117323362
 21
195.5019345112
 31
0.0
  0
LINE
  5
105
330
1F
100
AcDbEntity
  8
0
  6
Continuous
 62
     7
100
AcDbLine
 10
236.0117323362
 20
195.5019345112
 30
0.0
 11
223.8191981536
 21
182.909474642
 31
0.0
  0
LINE
  5
106
330
1F
100
AcDbEntity
  8
0
  6
Continuous
 62
     7
100
AcDbLine
 10
223.8191981536
 20
182.909474642
 30
0.0
 11
217.1398771021
 21
182.909474642
 31
0.0
  0
LINE
  5
107
330
1F
100
AcDbEntity
  8
0
  6
Continuous
 62
     7
100
AcDbLine
 10
217.1398771021
 20
182.909474642
 30
0.0
 11
179.6779668177
 21
209.4022765108
 31
0.0
  0
LINE
  5
108
330
1F
100
AcDbEntity
  8
0
  6
Continuous
 62
     7
100
AcDbLine
 10
178.8327612469
 20
218.9647967222
 30
0.0
 11
178.8327612469
 21
211.0352032778
 31
0.0
  0
LINE
  5
109
330
1F
100
AcDbEntity
  8
0
  6
Continuous
 62
     7
100
AcDbLine
 10
122.909474642
 20
182.909474642
 30
0.0
 11
160.3713849264
 21
209.4022765108
 31
0.0
  0
LINE
  5
10A
330
1F
100
AcDbEntity
  8
0
  6
Continuous
 62
     7
100
AcDbLine
 10
104.0376194079
 20
195.5019345112
 30
0.0
 11
116.2301535904
 21
182.909474642
 31
0.0
  0
LINE
  5
10B
330
1F
100
AcDbEntity
  8
0
  6
Continuous
 62
     7
100
AcDbLine
 10
116.2301535904
 20
182.909474642
 30
0.0
 11
122.909474642
 21
182.909474642
 31
0.0
  0
LINE
  5
10C
330
1F
100
AcDbEntity
  8
0
  6
Continuous
 62
     7
100
AcDbLine
 10
123.8171154988
 20
283.0796424554
 30
0.0
 11
216.2322362452
 21
283.0796424554
 31
0.0
  0
LINE
  5
10D
330
1F
100
AcDbEntity
  8
0
  6
Continuous
 62
     7
100
AcDbLine
 10
217.5782948558
 20
279.6004108249
 30
0.0
 11
178.9346518508
 21
244.4357974285
 31
0.0
  0
LINE
  5
10E
330
1F
100
AcDbEntity
  8
0
  6
Continuous
 62
     7
100
AcDbLine
 10
65.0
 20
325.0
 30
0.0
 11
67.0
 21
325.0
 31
0.0
  0
LINE
  5
10F
330
1F
100
AcDbEntity
  8
0
  6
Continuous
 62
     7
100
AcDbLine
 10
277.0
 20
325.0
 30
0.0
 11
273.0
 21
325.0
 31
0.0
  0
LINE
  5
110
330
1F
100
AcDbEntity
  8
0
  6
Continuous
 62
     7
100
AcDbLine
 10
280.0
 20
321.0
 30
0.0
 11
280.0
 21
318.0
 31
0.0
  0
LINE
  5
111
330
1F
100
AcDbEntity
  8
0
  6
Continuous
 62
     7
100
AcDbLine
 10
280.0
 20
112.0
 30
0.0
 11
280.0
 21
108.0
 31
0.0
  0
LINE
  5
112
330
1F
100
AcDbEntity
  8
0
  6
Continuous
 62
     7
100
AcDbLine
 10
273.0
 20
105.0
 30
0.0
 11
275.0
 21
105.0
 31
0.0
  0
LINE
  5
113
330
1F
100
AcDbEntity
  8
0
  6
Continuous
 62
     7
100
AcDbLine
 10
67.0
 20
105.0
 30
0.0
 11
65.0
 21
105.0
 31
0.0
  0
LINE
  5
114
330
1F
100
AcDbEntity
  8
0
  6
Continuous
 62
     7
100
AcDbLine
 10
217.5782948558
 20
150.3995891751
 30
0.0
 11
178.9346518508
 21
185.5642025715
 31
0.0
  0
LINE
  5
115
330
1F
100
AcDbEntity
  8
0
  6
Continuous
 62
     7
100
AcDbLine
 10
250.0
 20
302.0
 30
0.0
 11
248.0
 21
300.0
 31
0.0
  0
LINE
  5
116
330
1F
100
AcDbEntity
  8
0
  6
Continuous
 62
     7
100
AcDbLine
 10
161.1146998932
 20
185.5642025715
 30
0.0
 11
178.9346518508
 21
185.5642025715
 31
0.0
  0
LINE
  5
117
330
1F
100
AcDbEntity
  8
0
  6
Continuous
 62
     7
100
AcDbLine
 10
67.0
 20
325.0
 30
0.0
 11
92.0
 21
300.0
 31
0.0
  0
LINE
  5
118
330
1F
100
AcDbEntity
  8
0
  6
Continuous
 62
     7
100
AcDbLine
 10
122.4710568882
 20
150.3995891751
 30
0.0
 11
161.1146998932
 21
185.5642025715
 31
0.0
  0
LINE
  5
119
330
1F
100
AcDbEntity
  8
0
  6
Continuous
 62
     7
100
AcDbLine
 10
123.8171154988
 20
146.9203575446
 30
0.0
 11
216.2322362452
 21
146.9203575446
 31
0.0
  0
LINE
  5
11A
330
1F
100
AcDbEntity
  8
0
  6
Continuous
 62
     7
100
AcDbLine
 10
67.0
 20
105.0
 30
0.0
 11
92.0
 21
130.0
 31
0.0
  0
LINE
  5
11B
330
1F
100
AcDbEntity
  8
0
  6
Continuous
 62
     7
100
AcDbLine
 10
70.0
 20
268.0
 30
0.0
 11
70.0
 21
230.0
 31
0.0
  0
LINE
  5
11C
330
1F
100
AcDbEntity
  8
0
  6
Continuous
 62
     7
100
AcDbLine
 10
70.0
 20
200.0
 30
0.0
 11
70.0
 21
162.0
 31
0.0
  0
LINE
  5
11D
330
1F
100
AcDbEntity
  8
0
  6
Continuous
 62
     7
100
AcDbLine
 10
270.0
 20
228.0
 30
0.0
 11
270.0
 21
202.0
 31
0.0
  0
LINE
  5
11E
330
1F
100
AcDbEntity
  8
0
  6
Continuous
 62
     7
100
AcDbLine
 10
343.0
 20
2.0
 30
0.0
 11
339.0
 21
6.0
 31
0.0
  0
LINE
  5
11F
330
1F
100
AcDbEntity
  8
0
  6
Continuous
 62
     7
100
AcDbLine
 10
339.0
 20
6.0
 30
0.0
 11
333.0
 21
6.0
 31
0.0
  0
LINE
  5
120
330
1F
100
AcDbEntity
  8
0
  6
Continuous
 62
     7
100
AcDbLine
 10
333.0
 20
6.0
 30
0.0
 11
329.0
 21
2.0
 31
0.0
  0
LINE
  5
121
330
1F
100
AcDbEntity
  8
0
  6
Continuous
 62
     7
100
AcDbLine
 10
27.0
 20
2.0
 30
0.0
 11
31.0
 21
6.0
 31
0.0
  0
LINE
  5
122
330
1F
100
AcDbEntity
  8
0
  6
Continuous
 62
     7
100
AcDbLine
 10
31.0
 20
6.0
 30
0.0
 11
37.0
 21
6.0
 31
0.0
  0
LINE
  5
123
330
1F
100
AcDbEntity
  8
0
  6
Continuous
 62
     7
100
AcDbLine
 10
37.0
 20
6.0
 30
0.0
 11
41.0
 21
2.0
 31
0.0
  0
LINE
  5
124
330
1F
100
AcDbEntity
  8
0
  6
Continuous
 62
     7
100
AcDbLine
 10
80.0
 20
169.0
 30
0.0
 11
80.0
 21
192.0
 31
0.0
  0
LINE
  5
125
330
1F
100
AcDbEntity
  8
0
  6
Continuous
 62
     7
100
AcDbLine
 10
84.0
 20
196.0
 30
0.0
 11
86.0
 21
196.0
 31
0.0
  0
LINE
  5
126
330
1F
100
AcDbEntity
  8
0
  6
Continuous
 62
     7
100
AcDbLine
 10
90.0
 20
192.0
 30
0.0
 11
90.0
 21
169.0
 31
0.0
  0
LINE
  5
127
330
1F
100
AcDbEntity
  8
0
  6
Continuous
 62
     7
100
AcDbLine
 10
86.0
 20
165.0
 30
0.0
 11
84.0
 21
165.0
 31
0.0
  0
LINE
  5
128
330
1F
100
AcDbEntity
  8
0
  6
Continuous
 62
     7
100
AcDbLine
 10
80.0
 20
239.007036896
 30
0.0
 11
80.0
 21
262.007036896
 31
0.0
  0
LINE
  5
129
330
1F
100
AcDbEntity
  8
0
  6
Continuous
 62
     7
100
AcDbLine
 10
84.0
 20
266.007036896
 30
0.0
 11
86.0
 21
266.007036896
 31
0.0
  0
LINE
  5
12A
330
1F
100
AcDbEntity
  8
0
  6
Continuous
 62
     7
100
AcDbLine
 10
90.0
 20
262.007036896
 30
0.0
 11
90.0
 21
239.007036896
 31
0.0
  0
LINE
  5
12B
330
1F
100
AcDbEntity
  8
0
  6
Continuous
 62
     7
100
AcDbLine
 10
86.0
 20
235.007036896
 30
0.0
 11
84.0
 21
235.007036896
 31
0.0
  0
LINE
  5
12C
330
1F
100
AcDbEntity
  8
0
  6
Continuous
 62
     7
100
AcDbLine
 10
250.0
 20
202.8628763929
 30
0.0
 11
250.0
 21
225.8628763929
 31
0.0
  0
LINE
  5
12D
330
1F
100
AcDbEntity
  8
0
  6
Continuous
 62
     7
100
AcDbLine
 10
254.0
 20
229.8628763929
 30
0.0
 11
256.0
 21
229.8628763929
 31
0.0
  0
LINE
  5
12E
330
1F
100
AcDbEntity
  8
0
  6
Continuous
 62
     7
100
AcDbLine
 10
260.0
 20
225.8628763929
 30
0.0
 11
260.0
 21
202.8628763929
 31
0.0
  0
LINE
  5
12F
330
1F
100
AcDbEntity
  8
0
  6
Continuous
 62
     7
100
AcDbLine
 10
256.0
 20
198.8628763929
 30
0.0
 11
254.0
 21
198.8628763929
 31
0.0
  0
LINE
  5
130
330
1F
100
AcDbEntity
  8
0
  6
Continuous
 62
     7
100
AcDbLine
 10
25.0
 20
0.0
 30
0.0
 11
5.0
 21
0.0
 31
0.0
  0
LINE
  5
133
330
1F
100
AcDbEntity
  8
0
  6
Continuous
 62
     7
100
AcDbLine
 10
121.731441073
 20
280.2734401302
 30
0.0
 11
117.9079898225
 21
283.7526717607
 31
0.0
  0
LINE
  5
134
330
1F
100
AcDbEntity
  8
0
  6
Continuous
 62
     7
100
AcDbLine
 10
122.8171154988
 20
283.0796424554
 30
0.0
 11
117.6476056378
 21
283.0796424554
 31
0.0
  0
LINE
  5
135
330
1F
100
AcDbEntity
  8
0
  6
Continuous
 62
     7
100
AcDbLine
 10
122.8171154988
 20
146.9203575446
 30
0.0
 11
117.6476056378
 21
146.9203575446
 31
0.0
  0
LINE
  5
136
330
1F
100
AcDbEntity
  8
0
  6
Continuous
 62
     7
100
AcDbLine
 10
121.731441073
 20
149.7265598698
 30
0.0
 11
117.9079898225
 21
146.2473282393
 31
0.0
  0
LINE
  5
137
330
1F
100
AcDbEntity
  8
0
  6
Continuous
 62
     7
100
AcDbLine
 10
218.3179106711
 20
280.2734401302
 30
0.0
 11
222.1413619216
 21
283.7526717607
 31
0.0
  0
LINE
  5
138
330
1F
100
AcDbEntity
  8
0
  6
Continuous
 62
     7
100
AcDbLine
 10
217.2322362452
 20
283.0796424554
 30
0.0
 11
222.4017461063
 21
283.0796424554
 31
0.0
  0
LINE
  5
139
330
1F
100
AcDbEntity
  8
0
  6
Continuous
 62
     7
100
AcDbLine
 10
217.2322362452
 20
146.9203575446
 30
0.0
 11
222.4017461063
 21
146.9203575446
 31
0.0
  0
LINE
  5
13A
330
1F
100
AcDbEntity
  8
0
  6
Continuous
 62
     7
100
AcDbLine
 10
218.3179106711
 20
149.7265598698
 30
0.0
 11
222.1413619216
 21
146.2473282393
 31
0.0
  0
LINE
  5
13B
330
1F
100
AcDbEntity
  8
0
  6
Continuous
 62
     7
100
AcDbLine
 10
178.8327612469
 20
219.9647967222
 30
0.0
 11
178.8327612469
 21
221.0
 31
0.0
  0
LINE
  5
13C
330
1F
100
AcDbEntity
  8
0
  6
Continuous
 62
     7
100
AcDbLine
 10
178.8615034342
 20
220.0203262746
 30
0.0
 11
178.0162978634
 21
219.4226027854
 31
0.0
  0
LINE
  5
13D
330
1F
100
AcDbEntity
  8
0
  6
Continuous
 62
     7
100
AcDbLine
 10
178.8327612469
 20
210.0352032778
 30
0.0
 11
178.8327612469
 21
209.0
 31
0.0
  0
LINE
  5
13E
330
1F
100
AcDbEntity
  8
0
  6
Continuous
 62
     7
100
AcDbLine
 10
178.8615034342
 20
209.9796737254
 30
0.0
 11
178.0162978634
 21
210.5773972146
 31
0.0
  0
LINE
  5
13F
330
1F
100
AcDbEntity
  8
0
  6
Continuous
 62
     7
100
AcDbLine
 10
161.2165904972
 20
219.9647967222
 30
0.0
 11
161.2165904972
 21
221.0
 31
0.0
  0
LINE
  5
140
330
1F
100
AcDbEntity
  8
0
  6
Continuous
 62
     7
100
AcDbLine
 10
161.1878483099
 20
220.0203262746
 30
0.0
 11
162.0330538807
 21
219.4226027854
 31
0.0
  0
LINE
  5
141
330
1F
100
AcDbEntity
  8
0
  6
Continuous
 62
     7
100
AcDbLine
 10
161.1878483099
 20
209.9796737254
 30
0.0
 11
162.0330538807
 21
210.5773972146
 31
0.0
  0
LINE
  5
142
330
1F
100
AcDbEntity
  8
0
  6
Continuous
 62
     7
100
AcDbLine
 10
161.2165904972
 20
210.0352032778
 30
0.0
 11
161.2165904972
 21
209.0
 31
0.0
  0
LWPOLYLINE
  5
14E
330
1F
100
AcDbEntity
  8
0
  6
Continuous
 62
     7
100
AcDbPolyline
 90
       62
 70
   128
 43
0.0
 10
0.4487177357
 20
3.5
 10
1.1351161859
 20
3.5
 10
1.1351161859
 20
3.5
 10
1.2767427885
 20
3.4992988782
 10
1.4064503205
 20
3.496494391
 10
1.5242387821
 20
3.4922876603
 10
1.6301081731
 20
3.4866786859
 10
1.7233573718
 20
3.4796674679
 10
1.8053886218
 20
3.4705528846
 10
1.8747996795
 20
3.4600360577
 10
1.9322916667
 20
3.4474158654
 10
1.9322916667
 20
3.4474158654
 10
2.0045072115
 20
3.4263822115
 10
2.0732171474
 20
3.4004407051
 10
2.1384214744
 20
3.3695913462
 10
2.2008213141
 20
3.3338341346
 10
2.2590144231
 20
3.2931690705
 10
2.3144030449
 20
3.2475961538
 10
2.3662860577
 20
3.1971153846
 10
2.4146634615
 20
3.1417267628
 10
2.4588341346
 20
3.0821314103
 10
2.4966947115
 20
3.0190304487
 10
2.5289463141
 20
2.9517227564
 10
2.5555889423
 20
2.8816105769
 10
2.5759214744
 20
2.8065905449
 10
2.5906450321
 20
2.7287660256
 10
2.5997596154
 20
2.6467347756
 10
2.6025641026
 20
2.5611979167
 10
2.6025641026
 20
2.5611979167
 10
2.5997596154
 20
2.4749599359
 10
2.5906450321
 20
2.3929286859
 10
2.5766225962
 20
2.3144030449
 10
2.5562900641
 20
2.2400841346
 10
2.5296474359
 20
2.1692708333
 10
2.4980969551
 20
2.1026642628
 10
2.4602363782
 20
2.0395633013
 10
2.4167668269
 20
1.9806690705
 10
2.3683894231
 20
1.9259815705
 10
2.3151041667
 20
1.8755008013
 10
2.2576121795
 20
1.8299278846
 10
2.1959134615
 20
1.7892628205
 10
2.129306891
 20
1.753505609
 10
2.0584935897
 20
1.7219551282
 10
1.9834735577
 20
1.6953125
 10
1.9042467949
 20
1.6728766026
 10
1.9042467949
 20
1.6728766026
 10
1.8383413462
 20
1.6595552885
 10
1.7591145833
 20
1.6476362179
 10
1.6672676282
 20
1.6378205128
 10
1.562099359
 20
1.6301081731
 10
1.4443108974
 20
1.6237980769
 10
1.3139022436
 20
1.6188902244
 10
1.1701722756
 20
1.6160857372
 10
1.0131209936
 20
1.6153846154
 10
1.0131209936
 20
1.6153846154
 10
0.7628205128
 20
1.6153846154
 10
0.7628205128
 20
1.6153846154
 10
0.7628205128
 20
0.0
 10
0.7628205128
 20
0.0
 10
0.4487179487
 20
0.0
 10
0.4487179487
 20
0.0
 10
0.4487179487
 20
3.5
  0
LWPOLYLINE
  5
14F
330
1F
100
AcDbEntity
  8
0
  6
Continuous
 62
     7
100
AcDbPolyline
 90
       40
 70
   128
 43
0.0
 10
0.7628202438
 20
3.141025641
 10
0.7628205128
 20
1.9743589744
 10
0.7628205128
 20
1.9743589744
 10
1.3756009615
 20
1.9666466346
 10
1.3756009615
 20
1.9666466346
 10
1.4653445513
 20
1.9673477564
 10
1.5487780449
 20
1.9708533654
 10
1.6259014423
 20
1.9757612179
 10
1.6974158654
 20
1.9827724359
 10
1.7619190705
 20
1.9918870192
 10
1.8208133013
 20
2.0024038462
 10
1.8726963141
 20
2.0157251603
 10
1.9189703526
 20
2.0304487179
 10
2.0003004808
 20
2.0676081731
 10
2.0732171474
 20
2.1145833333
 10
2.1356169872
 20
2.1720753205
 10
2.1896033654
 20
2.238681891
 10
2.2330729167
 20
2.3130008013
 10
2.2639222756
 20
2.3908253205
 10
2.2821514423
 20
2.4735576923
 10
2.2884615385
 20
2.5597956731
 10
2.2884615385
 20
2.5597956731
 10
2.2821514423
 20
2.6439302885
 10
2.2639222756
 20
2.7252604167
 10
2.2330729167
 20
2.8023838141
 10
2.1896033654
 20
2.8760016026
 10
2.136318109
 20
2.9426081731
 10
2.0760216346
 20
2.9986979167
 10
2.0066105769
 20
3.0449719551
 10
1.9301883013
 20
3.0800280449
 10
1.88671875
 20
3.0940504808
 10
1.8369391026
 20
3.1066706731
 10
1.7801482372
 20
3.1171875
 10
1.7177483974
 20
3.1256009615
 10
1.6483373397
 20
3.1326121795
 10
1.5733173077
 20
3.1375200321
 10
1.4912860577
 20
3.1403245192
 10
1.4029447115
 20
3.141025641
 10
1.4029447115
 20
3.141025641
 10
0.7628205128
 20
3.141025641
  0
LWPOLYLINE
  5
150
330
1F
100
AcDbEntity
  8
0
  6
Continuous
 62
     7
100
AcDbPolyline
 90
       53
 70
   128
 43
0.0
 10
3.1410250813
 20
2.5576923077
 10
3.4551282051
 20
2.5576923077
 10
3.4551282051
 20
2.5576923077
 10
3.4551282051
 20
2.1811899038
 10
3.4551282051
 20
2.1811899038
 10
3.5266426282
 20
2.2849559295
 10
3.6002604167
 20
2.3732972756
 10
3.6752804487
 20
2.4455128205
 10
3.7524038462
 20
2.5030048077
 10
3.831630609
 20
2.546474359
 10
3.9129607372
 20
2.5780248397
 10
3.9949919872
 20
2.5962540064
 10
4.0791266026
 20
2.6025641026
 10
4.0791266026
 20
2.6025641026
 10
4.1443309295
 20
2.5969551282
 10
4.2116386218
 20
2.5808293269
 10
4.2810496795
 20
2.5534855769
 10
4.3525641026
 20
2.5149238782
 10
4.3525641026
 20
2.5149238782
 10
4.180088141
 20
2.2428886218
 10
4.180088141
 20
2.2428886218
 10
4.1345152244
 20
2.2625200321
 10
4.0924479167
 20
2.2772435897
 10
4.0538862179
 20
2.2856570513
 10
4.01953125
 20
2.2884615385
 10
4.01953125
 20
2.2884615385
 10
3.9445112179
 20
2.2800480769
 10
3.8701923077
 20
2.2548076923
 10
3.7979767628
 20
2.2127403846
 10
3.7264623397
 20
2.1538461538
 10
3.6921073718
 20
2.1180889423
 10
3.6598557692
 20
2.0774238782
 10
3.6304086538
 20
2.0325520833
 10
3.6023637821
 20
1.9827724359
 10
3.5764222756
 20
1.9280849359
 10
3.5525841346
 20
1.8691907051
 10
3.530849359
 20
1.8053886218
 10
3.5112179487
 20
1.7373798077
 10
3.5112179487
 20
1.7373798077
 10
3.4978966346
 20
1.6763822115
 10
3.4866786859
 20
1.6013621795
 10
3.4768629808
 20
1.5123197115
 10
3.469150641
 20
1.4092548077
 10
3.4628405449
 20
1.2928685897
 10
3.4586338141
 20
1.1624599359
 10
3.4558293269
 20
1.0180288462
 10
3.4551282051
 20
0.8595753205
 10
3.4551282051
 20
0.8595753205
 10
3.4551282051
 20
0.0
 10
3.4551282051
 20
0.0
 10
3.141025641
 20
0.0
 10
3.141025641
 20
0.0
 10
3.141025641
 20
2.5576923077
  0
LWPOLYLINE
  5
151
330
1F
100
AcDbEntity
  8
0
  6
Continuous
 62
     7
100
AcDbPolyline
 90
      102
 70
   128
 43
0.0
 10
4.6217925847
 20
2.5576923077
 10
4.9358974359
 20
2.5576923077
 10
4.9358974359
 20
2.5576923077
 10
4.9358974359
 20
1.3713942308
 10
4.9358974359
 20
1.3713942308
 10
4.9365985577
 20
1.2669270833
 10
4.9387019231
 20
1.1715745192
 10
4.9429086538
 20
1.0839342949
 10
4.9485176282
 20
1.0047075321
 10
4.9555288462
 20
0.9345953526
 10
4.9639423077
 20
0.8721955128
 10
4.9737580128
 20
0.8189102564
 10
4.9856770833
 20
0.7733373397
 10
4.9856770833
 20
0.7733373397
 10
5.0067107372
 20
0.7165464744
 10
5.03125
 20
0.6625600962
 10
5.0606971154
 20
0.6120793269
 10
5.0936498397
 20
0.5644030449
 10
5.1315104167
 20
0.51953125
 10
5.1735777244
 20
0.4781650641
 10
5.219150641
 20
0.4396033654
 10
5.2696314103
 20
0.4045472756
 10
5.3797075321
 20
0.3456530449
 10
5.5003004808
 20
0.3028846154
 10
5.6307091346
 20
0.2776442308
 10
5.7709334936
 20
0.2692307692
 10
5.7709334936
 20
0.2692307692
 10
5.9111578526
 20
0.2776442308
 10
6.0401642628
 20
0.3021834936
 10
6.1579527244
 20
0.3435496795
 10
6.2645232372
 20
0.4010416667
 10
6.3577724359
 20
0.4718549679
 10
6.4355969551
 20
0.5538862179
 10
6.4979967949
 20
0.6457331731
 10
6.5442708333
 20
0.7480969551
 10
6.5442708333
 20
0.7480969551
 10
6.5561899038
 20
0.7901642628
 10
6.5667067308
 20
0.8420472756
 10
6.5758213141
 20
0.9044471154
 10
6.5835336538
 20
0.9773637821
 10
6.5891426282
 20
1.0607972756
 10
6.5926482372
 20
1.1540464744
 10
6.5954527244
 20
1.2578125
 10
6.5961538462
 20
1.3713942308
 10
6.5961538462
 20
1.3713942308
 10
6.5961538462
 20
2.5576923077
 10
6.5961538462
 20
2.5576923077
 10
6.9102564103
 20
2.5576923077
 10
6.9102564103
 20
2.5576923077
 10
6.9102564103
 20
1.3125
 10
6.9102564103
 20
1.3125
 10
6.9081530449
 20
1.1855969551
 10
6.9025440705
 20
1.06640625
 10
6.8927283654
 20
0.9549278846
 10
6.8787059295
 20
0.8525641026
 10
6.8611778846
 20
0.7572115385
 10
6.839443109
 20
0.6709735577
 10
6.8135016026
 20
0.5924479167
 10
6.7840544872
 20
0.5216346154
 10
6.750400641
 20
0.4571314103
 10
6.7132411859
 20
0.3961338141
 10
6.6711738782
 20
0.3386418269
 10
6.6263020833
 20
0.2846554487
 10
6.5765224359
 20
0.2341746795
 10
6.5232371795
 20
0.187900641
 10
6.4657451923
 20
0.1444310897
 10
6.4040464744
 20
0.1051682692
 10
6.3388421474
 20
0.0701121795
 10
6.2694310897
 20
0.0392628205
 10
6.1958133013
 20
0.0140224359
 10
6.1186899038
 20
-0.0070112179
 10
6.0366586538
 20
-0.023838141
 10
5.9511217949
 20
-0.0357572115
 10
5.8620793269
 20
-0.0427684295
 10
5.7681290064
 20
-0.0448717949
 10
5.7681290064
 20
-0.0448717949
 10
5.6748798077
 20
-0.0427684295
 10
5.5851362179
 20
-0.0357572115
 10
5.499599359
 20
-0.023838141
 10
5.417568109
 20
-0.0070112179
 10
5.3397435897
 20
0.0140224359
 10
5.2661258013
 20
0.0392628205
 10
5.1960136218
 20
0.0701121795
 10
5.1301081731
 20
0.1051682692
 10
5.0684094551
 20
0.1444310897
 10
5.0102163462
 20
0.187900641
 10
4.9562299679
 20
0.2348758013
 10
4.9064503205
 20
0.2853565705
 10
4.8608774038
 20
0.3400440705
 10
4.8195112179
 20
0.3982371795
 10
4.781650641
 20
0.4599358974
 10
4.7479967949
 20
0.5251402244
 10
4.7185496795
 20
0.5966546474
 10
4.6926081731
 20
0.6765825321
 10
4.6708733974
 20
0.765625
 10
4.6533453526
 20
0.8623798077
 10
4.6393229167
 20
0.9682491987
 10
4.6295072115
 20
1.0818309295
 10
4.6238982372
 20
1.2045272436
 10
4.6217948718
 20
1.3356370192
 10
4.6217948718
 20
1.3356370192
 10
4.6217948718
 20
2.5576923077
  0
LWPOLYLINE
  5
152
330
1F
100
AcDbEntity
  8
0
  6
Continuous
 62
     7
100
AcDbPolyline
 90
      148
 70
   128
 43
0.0
 10
8.8397413492
 20
2.238681891
 10
8.6266025641
 20
2.0192307692
 10
8.6266025641
 20
2.0192307692
 10
8.5705128205
 20
2.0823317308
 10
8.5144230769
 20
2.1370192308
 10
8.4583333333
 20
2.1832932692
 10
8.4036458333
 20
2.2211538462
 10
8.3482572115
 20
2.2506009615
 10
8.2935697115
 20
2.2716346154
 10
8.2388822115
 20
2.2842548077
 10
8.1848958333
 20
2.2884615385
 10
8.1848958333
 20
2.2884615385
 10
8.1189903846
 20
2.2821514423
 10
8.0579927885
 20
2.2625200321
 10
8.0012019231
 20
2.2302684295
 10
7.9500200321
 20
2.1846955128
 10
7.9072516026
 20
2.1307091346
 10
7.8771033654
 20
2.0732171474
 10
7.8588741987
 20
2.0108173077
 10
7.8525641026
 20
1.9442107372
 10
7.8525641026
 20
1.9442107372
 10
7.8581730769
 20
1.8839142628
 10
7.8742988782
 20
1.8257211538
 10
7.9016426282
 20
1.7682291667
 10
7.9395032051
 20
1.7121394231
 10
7.9395032051
 20
1.7121394231
 10
7.9640424679
 20
1.6833934295
 10
7.9948918269
 20
1.6539463141
 10
8.0313501603
 20
1.6223958333
 10
8.0741185897
 20
1.5901442308
 10
8.1231971154
 20
1.5564903846
 10
8.1778846154
 20
1.5221354167
 10
8.2381810897
 20
1.4856770833
 10
8.3047876603
 20
1.4485176282
 10
8.3047876603
 20
1.4485176282
 10
8.3861177885
 20
1.4022435897
 10
8.4604366987
 20
1.3566706731
 10
8.5284455128
 20
1.3110977564
 10
8.589443109
 20
1.2662259615
 10
8.6434294872
 20
1.2213541667
 10
8.6911057692
 20
1.1771834936
 10
8.7317708333
 20
1.1330128205
 10
8.7654246795
 20
1.0895432692
 10
8.7654246795
 20
1.0895432692
 10
8.8173076923
 20
0.9990985577
 10
8.8551682692
 20
0.9030448718
 10
8.8769030449
 20
0.8013822115
 10
8.8846153846
 20
0.6941105769
 10
8.8846153846
 20
0.6941105769
 10
8.8811097756
 20
0.6183894231
 10
8.8712940705
 20
0.5454727564
 10
8.8544671474
 20
0.4753605769
 10
8.8313301282
 20
0.4087540064
 10
8.8004807692
 20
0.3442508013
 10
8.7640224359
 20
0.2832532051
 10
8.7205528846
 20
0.2250600962
 10
8.6700721154
 20
0.1696714744
 10
8.6146834936
 20
0.1191907051
 10
8.5564903846
 20
0.0757211538
 10
8.4947916667
 20
0.0392628205
 10
8.4295873397
 20
0.0091145833
 10
8.3608774038
 20
-0.0147235577
 10
8.288661859
 20
-0.0315504808
 10
8.2136418269
 20
-0.0413661859
 10
8.1351161859
 20
-0.0448717949
 10
8.1351161859
 20
-0.0448717949
 10
8.0292467949
 20
-0.0392628205
 10
7.926181891
 20
-0.0217347756
 10
7.8252203526
 20
0.0070112179
 10
7.7263621795
 20
0.0469751603
 10
7.6331129808
 20
0.0974559295
 10
7.5482772436
 20
0.1570512821
 10
7.4718549679
 20
0.2250600962
 10
7.4038461538
 20
0.3014823718
 10
7.4038461538
 20
0.3014823718
 10
7.6120793269
 20
0.5384615385
 10
7.6120793269
 20
0.5384615385
 10
7.6723758013
 20
0.4753605769
 10
7.7333733974
 20
0.4206730769
 10
7.7957732372
 20
0.3743990385
 10
7.8581730769
 20
0.3365384615
 10
7.9219751603
 20
0.3070913462
 10
7.9871794872
 20
0.2860576923
 10
8.0523838141
 20
0.2734375
 10
8.1189903846
 20
0.2692307692
 10
8.1189903846
 20
0.2692307692
 10
8.2094350962
 20
0.276943109
 10
8.2928685897
 20
0.3000801282
 10
8.3692908654
 20
0.3379407051
 10
8.4387019231
 20
0.3919270833
 10
8.4961939103
 20
0.4557291667
 10
8.5375600962
 20
0.5258413462
 10
8.562099359
 20
0.6001602564
 10
8.5705128205
 20
0.6807892628
 10
8.5705128205
 20
0.6807892628
 10
8.5649038462
 20
0.7473958333
 10
8.5487780449
 20
0.8104967949
 10
8.5221354167
 20
0.8693910256
 10
8.4842748397
 20
0.9247796474
 10
8.4842748397
 20
0.9247796474
 10
8.4597355769
 20
0.9514222756
 10
8.4281850962
 20
0.9801682692
 10
8.3896233974
 20
1.0110176282
 10
8.3447516026
 20
1.0432692308
 10
8.2928685897
 20
1.0769230769
 10
8.233974359
 20
1.1119791667
 10
8.1687700321
 20
1.1491386218
 10
8.0965544872
 20
1.1884014423
 10
8.0965544872
 20
1.1884014423
 10
8.0187299679
 20
1.2325721154
 10
7.9472155449
 20
1.2767427885
 10
7.8827123397
 20
1.3209134615
 10
7.823818109
 20
1.3643830128
 10
7.7719350962
 20
1.4078525641
 10
7.7270633013
 20
1.4513221154
 10
7.6878004808
 20
1.4947916667
 10
7.6555488782
 20
1.5375600962
 10
7.6555488782
 20
1.5375600962
 10
7.6043669872
 20
1.6266025641
 10
7.5679086538
 20
1.72265625
 10
7.5454727564
 20
1.8236177885
 10
7.5384615385
 20
1.9315905449
 10
7.5384615385
 20
1.9315905449
 10
7.5412660256
 20
2.0024038462
 10
7.5496794872
 20
2.0697115385
 10
7.5644030449
 20
2.1342147436
 10
7.5840344551
 20
2.1959134615
 10
7.6099759615
 20
2.2541065705
 10
7.6415264423
 20
2.3094951923
 10
7.6786858974
 20
2.3620793269
 10
7.7214543269
 20
2.4111578526
 10
7.769130609
 20
2.4560296474
 10
7.8196113782
 20
2.4945913462
 10
7.8728966346
 20
2.5275440705
 10
7.9289863782
 20
2.5548878205
 10
7.9885817308
 20
2.5759214744
 10
8.0509815705
 20
2.5906450321
 10
8.1161858974
 20
2.5997596154
 10
8.1848958333
 20
2.6025641026
 10
8.1848958333
 20
2.6025641026
 10
8.2662259615
 20
2.5969551282
 10
8.3475560897
 20
2.5801282051
 10
8.4295873397
 20
2.5513822115
 10
8.5116185897
 20
2.5114182692
 10
8.5929487179
 20
2.4602363782
 10
8.6749799679
 20
2.3978365385
 10
8.7577123397
 20
2.32421875
 10
8.8397435897
 20
2.238681891
  0
LWPOLYLINE
  5
153
330
1F
100
AcDbEntity
  8
0
  6
Continuous
 62
     7
100
AcDbPolyline
 90
       62
 70
   128
 43
0.0
 10
12.1153816581
 20
2.5576923077
 10
12.1153846154
 20
0.0
 10
12.1153846154
 20
0.0
 10
11.8012820513
 20
0.0
 10
11.8012820513
 20
0.0
 10
11.8012820513
 20
0.4424078526
 10
11.8012820513
 20
0.4424078526
 10
11.6926081731
 20
0.324619391
 10
11.5783253205
 20
0.2236578526
 10
11.4563301282
 20
0.1395232372
 10
11.3287259615
 20
0.0722155449
 10
11.1948116987
 20
0.0210336538
 10
11.0552884615
 20
-0.0154246795
 10
10.9087540064
 20
-0.0378605769
 10
10.7566105769
 20
-0.0448717949
 10
10.7566105769
 20
-0.0448717949
 10
10.6212940705
 20
-0.0385616987
 10
10.4908854167
 20
-0.0203325321
 10
10.3653846154
 20
0.0098157051
 10
10.2447916667
 20
0.0518830128
 10
10.1298076923
 20
0.1065705128
 10
10.0190304487
 20
0.1731770833
 10
9.9138621795
 20
0.2517027244
 10
9.8136017628
 20
0.3428485577
 10
9.7217548077
 20
0.4424078526
 10
9.6425280449
 20
0.546875
 10
9.5759214744
 20
0.6569511218
 10
9.5205328526
 20
0.7726362179
 10
9.4777644231
 20
0.8932291667
 10
9.4476161859
 20
1.0187299679
 10
9.4293870192
 20
1.1498397436
 10
9.4230769231
 20
1.2858573718
 10
9.4230769231
 20
1.2858573718
 10
9.4293870192
 20
1.4190705128
 10
9.4476161859
 20
1.5480769231
 10
9.4784655449
 20
1.671474359
 10
9.5219350962
 20
1.7906650641
 10
9.5773237179
 20
1.9042467949
 10
9.6446314103
 20
2.0129206731
 10
9.7245592949
 20
2.1173878205
 10
9.8171073718
 20
2.2162459936
 10
9.9180689103
 20
2.3066907051
 10
10.0246394231
 20
2.3852163462
 10
10.1354166667
 20
2.4518229167
 10
10.2518028846
 20
2.5058092949
 10
10.3730969551
 20
2.5485777244
 10
10.4992988782
 20
2.5787259615
 10
10.6304086538
 20
2.5962540064
 10
10.7664262821
 20
2.6025641026
 10
10.7664262821
 20
2.6025641026
 10
10.9227764423
 20
2.5948517628
 10
11.0714142628
 20
2.5717147436
 10
11.2123397436
 20
2.5324519231
 10
11.3455528846
 20
2.4784655449
 10
11.4710536859
 20
2.4076522436
 10
11.5895432692
 20
2.3179086538
 10
11.6989182692
 20
2.2106370192
 10
11.8012820513
 20
2.0844350962
 10
11.8012820513
 20
2.0844350962
 10
11.8012820513
 20
2.5576923077
 10
11.8012820513
 20
2.5576923077
 10
12.1153846154
 20
2.5576923077
  0
LWPOLYLINE
  5
154
330
1F
100
AcDbEntity
  8
0
  6
Continuous
 62
     7
100
AcDbPolyline
 90
       56
 70
   128
 43
0.0
 10
10.7706263661
 20
2.2884615385
 10
10.633213141
 20
2.2800480769
 10
10.5014022436
 20
2.2555088141
 10
10.3752003205
 20
2.2141426282
 10
10.25390625
 20
2.156650641
 10
10.1417267628
 20
2.0844350962
 10
10.0414663462
 20
1.9981971154
 10
9.953125
 20
1.8993389423
 10
9.8767027244
 20
1.7864583333
 10
9.8157051282
 20
1.6658653846
 10
9.7722355769
 20
1.5410657051
 10
9.7455929487
 20
1.4134615385
 10
9.7371794872
 20
1.2823517628
 10
9.7371794872
 20
1.2823517628
 10
9.7462940705
 20
1.151943109
 10
9.7722355769
 20
1.0243389423
 10
9.81640625
 20
0.8995392628
 10
9.8781049679
 20
0.7775440705
 10
9.9552283654
 20
0.6639623397
 10
10.0435697115
 20
0.5637019231
 10
10.14453125
 20
0.4767628205
 10
10.257411859
 20
0.4031450321
 10
10.3787059295
 20
0.3442508013
 10
10.5042067308
 20
0.3028846154
 10
10.6339142628
 20
0.2776442308
 10
10.7678285256
 20
0.2692307692
 10
10.7678285256
 20
0.2692307692
 10
10.9038461538
 20
0.2776442308
 10
11.0363581731
 20
0.3021834936
 10
11.1646634615
 20
0.3435496795
 10
11.289463141
 20
0.4017427885
 10
11.4051482372
 20
0.4739583333
 10
11.5075120192
 20
0.5580929487
 10
11.5944511218
 20
0.6541466346
 10
11.6680689103
 20
0.7614182692
 10
11.7262620192
 20
0.878505609
 10
11.7683293269
 20
1.0033052885
 10
11.7928685897
 20
1.1344150641
 10
11.8012820513
 20
1.2732371795
 10
11.8012820513
 20
1.2732371795
 10
11.7963741987
 20
1.3791065705
 10
11.7823517628
 20
1.4807692308
 10
11.7592147436
 20
1.5782251603
 10
11.726963141
 20
1.6707732372
 10
11.6848958333
 20
1.7591145833
 10
11.6337139423
 20
1.8432491987
 10
11.5734174679
 20
1.9224759615
 10
11.5033052885
 20
1.9974959936
 10
11.4268830128
 20
2.0655048077
 10
11.3462540064
 20
2.1251001603
 10
11.2607171474
 20
2.1748798077
 10
11.1716746795
 20
2.2155448718
 10
11.077724359
 20
2.2477964744
 10
10.9795673077
 20
2.2702323718
 10
10.8772035256
 20
2.2842548077
 10
10.7706330128
 20
2.2884615385
  0
LWPOLYLINE
  5
155
330
1F
100
AcDbEntity
  8
0
  6
Continuous
 62
     7
100
AcDbPolyline
 90
       36
 70
   128
 43
0.0
 10
14.2902582884
 20
3.6346153846
 10
14.3484575321
 20
3.6297075321
 10
14.4024439103
 20
3.6149839744
 10
14.4522235577
 20
3.5897435897
 10
14.4970953526
 20
3.5553886218
 10
14.5349559295
 20
3.5140224359
 10
14.5615985577
 20
3.4677483974
 10
14.577724359
 20
3.41796875
 10
14.5833333333
 20
3.3639823718
 10
14.5833333333
 20
3.3639823718
 10
14.577724359
 20
3.3113982372
 10
14.5615985577
 20
3.2623197115
 10
14.5349559295
 20
3.2167467949
 10
14.4970953526
 20
3.175380609
 10
14.4522235577
 20
3.141025641
 10
14.4024439103
 20
3.1157852564
 10
14.3484575321
 20
3.1010616987
 10
14.2902644231
 20
3.0961538462
 10
14.2902644231
 20
3.0961538462
 10
14.2327724359
 20
3.1010616987
 10
14.1801883013
 20
3.1157852564
 10
14.1304086538
 20
3.141025641
 10
14.085536859
 20
3.175380609
 10
14.0483774038
 20
3.2167467949
 10
14.0217347756
 20
3.2623197115
 10
14.0056089744
 20
3.3113982372
 10
14.0
 20
3.3639823718
 10
14.0
 20
3.3639823718
 10
14.0056089744
 20
3.41796875
 10
14.0217347756
 20
3.4677483974
 10
14.0483774038
 20
3.5140224359
 10
14.085536859
 20
3.5553886218
 10
14.1304086538
 20
3.5897435897
 10
14.1801883013
 20
3.6149839744
 10
14.2327724359
 20
3.6297075321
 10
14.2902644231
 20
3.6346153846
  0
LWPOLYLINE
  5
156
330
1F
100
AcDbEntity
  8
0
  6
Continuous
 62
     7
100
AcDbPolyline
 90
        8
 70
   128
 43
0.0
 10
14.1346082091
 20
2.5576923077
 10
14.4487179487
 20
2.5576923077
 10
14.4487179487
 20
2.5576923077
 10
14.4487179487
 20
0.0
 10
14.4487179487
 20
0.0
 10
14.1346153846
 20
0.0
 10
14.1346153846
 20
0.0
 10
14.1346153846
 20
2.5576923077
  0
LWPOLYLINE
  5
157
330
1F
100
AcDbEntity
  8
0
  6
Continuous
 62
     7
100
AcDbPolyline
 90
      184
 70
   128
 43
0.0
 10
15.4358968139
 20
2.6923076923
 10
15.1217948718
 20
2.6923076923
 10
15.1217948718
 20
2.6923076923
 10
15.1491386218
 20
2.7974759615
 10
15.1827924679
 20
2.8956330128
 10
15.2213541667
 20
2.9881810897
 10
15.2662259615
 20
3.0744190705
 10
15.316005609
 20
3.1543469551
 10
15.3720953526
 20
3.2279647436
 10
15.4337940705
 20
3.2959735577
 10
15.5011017628
 20
3.3569711538
 10
15.5726161859
 20
3.4116586538
 10
15.6476362179
 20
3.4586338141
 10
15.7254607372
 20
3.4985977564
 10
15.8067908654
 20
3.5315504808
 10
15.8916266026
 20
3.5567908654
 10
15.9792668269
 20
3.5750200321
 10
16.0697115385
 20
3.5862379808
 10
16.163661859
 20
3.5897435897
 10
16.163661859
 20
3.5897435897
 10
16.300380609
 20
3.58203125
 10
16.4321915064
 20
3.558193109
 10
16.5590945513
 20
3.5189302885
 10
16.6817908654
 20
3.4642427885
 10
16.7953725962
 20
3.3962339744
 10
16.894931891
 20
3.3170072115
 10
16.9811698718
 20
3.2265625
 10
17.0540865385
 20
3.1256009615
 10
17.1115785256
 20
3.0176282051
 10
17.1529447115
 20
2.9075520833
 10
17.1774839744
 20
2.7953725962
 10
17.1858974359
 20
2.6803886218
 10
17.1858974359
 20
2.6803886218
 10
17.1795873397
 20
2.5696113782
 10
17.1606570513
 20
2.4651442308
 10
17.1284054487
 20
2.3662860577
 10
17.0835336538
 20
2.273036859
 10
17.0260416667
 20
2.1860977564
 10
16.9559294872
 20
2.1047676282
 10
16.8731971154
 20
2.0297475962
 10
16.7771434295
 20
1.9603365385
 10
16.7771434295
 20
1.9603365385
 10
16.8872195513
 20
1.9035456731
 10
16.9874799679
 20
1.8348357372
 10
17.0772235577
 20
1.7542067308
 10
17.1564503205
 20
1.6616586538
 10
17.1564503205
 20
1.6616586538
 10
17.2055288462
 20
1.5915464744
 10
17.2475961538
 20
1.5186298077
 10
17.2840544872
 20
1.4443108974
 10
17.3135016026
 20
1.3671875
 10
17.3359375
 20
1.288661859
 10
17.3520633013
 20
1.2080328526
 10
17.3618790064
 20
1.124599359
 10
17.3653846154
 20
1.0397636218
 10
17.3653846154
 20
1.0397636218
 10
17.3555689103
 20
0.8932291667
 10
17.3254206731
 20
0.7502003205
 10
17.2756410256
 20
0.6099759615
 10
17.2055288462
 20
0.4739583333
 10
17.1185897436
 20
0.3470552885
 10
17.0176282051
 20
0.2355769231
 10
16.9012419872
 20
0.1388221154
 10
16.7708333333
 20
0.0574919872
 10
16.6292067308
 20
-0.0070112179
 10
16.4791666667
 20
-0.0525841346
 10
16.320713141
 20
-0.0806290064
 10
16.1545472756
 20
-0.0897435897
 10
16.1545472756
 20
-0.0897435897
 10
16.0423677885
 20
-0.085536859
 10
15.9343950321
 20
-0.0736177885
 10
15.8313301282
 20
-0.0525841346
 10
15.7331730769
 20
-0.023838141
 10
15.6399238782
 20
0.0126201923
 10
15.5515825321
 20
0.0574919872
 10
15.4674479167
 20
0.1107772436
 10
15.3882211538
 20
0.1724759615
 10
15.3146033654
 20
0.2418870192
 10
15.2479967949
 20
0.3190104167
 10
15.1877003205
 20
0.4038461538
 10
15.1344150641
 20
0.4963942308
 10
15.0874399038
 20
0.5959535256
 10
15.0474759615
 20
0.7039262821
 10
15.0138221154
 20
0.8189102564
 10
14.9871794872
 20
0.9423076923
 10
14.9871794872
 20
0.9423076923
 10
15.3012820513
 20
0.9423076923
 10
15.3012820513
 20
0.9423076923
 10
15.3265224359
 20
0.8616786859
 10
15.3538661859
 20
0.7866586538
 10
15.3847155449
 20
0.7172475962
 10
15.4176682692
 20
0.6541466346
 10
15.452724359
 20
0.5966546474
 10
15.4912860577
 20
0.5447716346
 10
15.5319511218
 20
0.4984975962
 10
15.5754206731
 20
0.4585336538
 10
15.5754206731
 20
0.4585336538
 10
15.6350160256
 20
0.4143629808
 10
15.6981169872
 20
0.3758012821
 10
15.7654246795
 20
0.3428485577
 10
15.8362379808
 20
0.3169070513
 10
15.9112580128
 20
0.2958733974
 10
15.9904847756
 20
0.2811498397
 10
16.0732171474
 20
0.2720352564
 10
16.16015625
 20
0.2692307692
 10
16.16015625
 20
0.2692307692
 10
16.2583133013
 20
0.2727363782
 10
16.3515625
 20
0.2832532051
 10
16.4399038462
 20
0.3000801282
 10
16.5233373397
 20
0.324619391
 10
16.601161859
 20
0.35546875
 10
16.6747796474
 20
0.3940304487
 10
16.7427884615
 20
0.4389022436
 10
16.8065905449
 20
0.4907852564
 10
16.8640825321
 20
0.5475761218
 10
16.9138621795
 20
0.6064703526
 10
16.9559294872
 20
0.6674679487
 10
16.9902844551
 20
0.7312700321
 10
17.0169270833
 20
0.7971754808
 10
17.0358573718
 20
0.8658854167
 10
17.0477764423
 20
0.9366987179
 10
17.0512820513
 20
1.0096153846
 10
17.0512820513
 20
1.0096153846
 10
17.0435697115
 20
1.1070713141
 10
17.0211338141
 20
1.2017227564
 10
16.9832732372
 20
1.2928685897
 10
16.9299879808
 20
1.3805088141
 10
16.8640825321
 20
1.4618389423
 10
16.7883613782
 20
1.5326522436
 10
16.7014222756
 20
1.5922475962
 10
16.6046674679
 20
1.6413261218
 10
16.5506810897
 20
1.6623597756
 10
16.4889823718
 20
1.6812900641
 10
16.4209735577
 20
1.6974158654
 10
16.3452524038
 20
1.7121394231
 10
16.2632211538
 20
1.7247596154
 10
16.1741786859
 20
1.7352764423
 10
16.0774238782
 20
1.7436899038
 10
15.9743589744
 20
1.75
 10
15.9743589744
 20
1.75
 10
15.9743589744
 20
2.108974359
 10
15.9743589744
 20
2.108974359
 10
16.1040665064
 20
2.1138822115
 10
16.2274639423
 20
2.1300080128
 10
16.3452524038
 20
2.1552483974
 10
16.4567307692
 20
2.1917067308
 10
16.5583934295
 20
2.2358774038
 10
16.6446314103
 20
2.2856570513
 10
16.7161458333
 20
2.3410456731
 10
16.7729366987
 20
2.4020432692
 10
16.81640625
 20
2.4679487179
 10
16.847255609
 20
2.5359575321
 10
16.8654847756
 20
2.6074719551
 10
16.8717948718
 20
2.6817908654
 10
16.8717948718
 20
2.6817908654
 10
16.8689903846
 20
2.7364783654
 10
16.8591746795
 20
2.7897636218
 10
16.84375
 20
2.840244391
 10
16.8220152244
 20
2.8900240385
 10
16.7939703526
 20
2.9369991987
 10
16.7596153846
 20
2.9825721154
 10
16.7189503205
 20
3.0260416667
 10
16.6719751603
 20
3.0674078526
 10
16.6207932692
 20
3.1059695513
 10
16.5661057692
 20
3.1389222756
 10
16.5079126603
 20
3.1669671474
 10
16.4462139423
 20
3.1901041667
 10
16.3817107372
 20
3.2076322115
 10
16.3137019231
 20
3.2202524038
 10
16.2421875
 20
3.2279647436
 10
16.1678685897
 20
3.2307692308
 10
16.1678685897
 20
3.2307692308
 10
16.0486778846
 20
3.223056891
 10
15.9371995192
 20
3.1999198718
 10
15.8348357372
 20
3.1620592949
 10
15.7401842949
 20
3.1080729167
 10
15.6960136218
 20
3.0744190705
 10
15.6539463141
 20
3.0358573718
 10
15.61328125
 20
2.9923878205
 10
15.5747195513
 20
2.9426081731
 10
15.5368589744
 20
2.8879206731
 10
15.5018028846
 20
2.8283253205
 10
15.4681490385
 20
2.7631209936
 10
15.4358974359
 20
2.6923076923
  0
POINT
  5
158
330
1F
100
AcDbEntity
  8
0
  6
Continuous
 62
     7
100
AcDbPoint
 10
51.5551080554
 20
150.8100448329
 30
0.0
  0
POINT
  5
159
330
1F
100
AcDbEntity
  8
0
  6
Continuous
 62
     7
100
AcDbPoint
 10
3.2951080554
 20
149.5400448329
 30
0.0
  0
POINT
  5
15A
330
1F
100
AcDbEntity
  8
0
  6
Continuous
 62
     7
100
AcDbPoint
 10
51.5551080554
 20
68.2600448329
 30
0.0
  0
POINT
  5
15B
330
1F
100
AcDbEntity
  8
0
  6
Continuous
 62
     7
100
AcDbPoint
 10
3.2951080554
 20
74.6100448329
 30
0.0
  0
POINT
  5
15C
330
1F
100
AcDbEntity
  8
0
  6
Continuous
 62
     7
100
AcDbPoint
 10
236.0117323362
 20
215.0
 30
0.0
  0
POINT
  5
15D
330
1F
100
AcDbEntity
  8
0
  6
Continuous
 62
     7
100
AcDbPoint
 10
104.0376194079
 20
215.0
 30
0.0
  0
POINT
  5
15E
330
1F
100
AcDbEntity
  8
0
  6
Continuous
 62
     7
100
AcDbPoint
 10
170.024675872
 20
244.4357974285
 30
0.0
  0
POINT
  5
15F
330
1F
100
AcDbEntity
  8
0
  6
Continuous
 62
     7
100
AcDbPoint
 10
170.024675872
 20
283.0796424554
 30
0.0
  0
POINT
  5
160
330
1F
100
AcDbEntity
  8
0
  6
Continuous
 62
     7
100
AcDbPoint
 10
3.2951080554
 20
157.1600448329
 30
0.0
  0
POINT
  5
161
330
1F
100
AcDbEntity
  8
0
  6
Continuous
 62
     7
100
AcDbPoint
 10
51.5551080554
 20
75.8800448329
 30
0.0
  0
ENDSEC
  0
SECTION
  2
OBJECTS
  0
DICTIONARY
  5
C
330
0
100
AcDbDictionary
281
     1
  3
ACAD_GROUP
350
D
  3
ACAD_LAYOUT
350
1A
  3
ACAD_MLINESTYLE
350
17
  3
ACAD_PLOTSETTINGS
350
19
  3
ACAD_PLOTSTYLENAME
350
E
  3
ACAD_SCALELIST
350
47
  0
DICTIONARY
  5
D
102
{ACAD_REACTORS
330
C
102
}
330
C
100
AcDbDictionary
281
     1
  0
DICTIONARY
  5
1A
102
{ACAD_REACTORS
330
C
102
}
330
C
100
AcDbDictionary
281
     1
  3
Layout1
350
1E
  3
Layout2
350
26
  3
Model
350
22
  0
DICTIONARY
  5
17
102
{ACAD_REACTORS
330
C
102
}
330
C
100
AcDbDictionary
281
     1
  3
Standard
350
18
  0
DICTIONARY
  5
19
102
{ACAD_REACTORS
330
C
102
}
330
C
100
AcDbDictionary
281
     1
  0
ACDBDICTIONARYWDFLT
  5
E
102
{ACAD_REACTORS
330
C
102
}
330
C
100
AcDbDictionary
281
     1
  3
Normal
350
F
100
AcDbDictionaryWithDefault
340
F
  0
DICTIONARY
  5
47
102
{ACAD_REACTORS
330
C
102
}
330
C
100
AcDbDictionary
281
     1
  3
A0
350
48
  3
A1
350
49
  3
A2
350
4A
  3
A3
350
4B
  3
A4
350
4C
  3
A5
350
4D
  3
A6
350
4E
  3
A7
350
4F
  3
A8
350
50
  3
A9
350
51
  3
B0
350
52
  3
B1
350
53
  3
B2
350
54
  3
B3
350
55
  3
B4
350
56
  3
B5
350
57
  3
B6
350
58
  3
B7
350
59
  3
B8
350
5A
  3
B9
350
5B
  3
C0
350
5C
  3
C1
350
5D
  3
C2
350
5E
  3
C3
350
5F
  3
C4
350
60
  3
C5
350
61
  3
C6
350
62
  3
C7
350
63
  3
C8
350
64
  3
C9
350
65
  3
D0
350
66
  3
D1
350
67
  3
D2
350
68
  0
LAYOUT
  5
1E
102
{ACAD_REACTORS
330
1A
102
}
330
1A
100
AcDbPlotSettings
  1

  2
none_device
  4

  6

 40
0.0
 41
0.0
 42
0.0
 43
0.0
 44
0.0
 45
0.0
 46
0.0
 47
0.0
 48
0.0
 49
0.0
140
0.0
141
0.0
142
1.0
143
1.0
 70
   688
 72
     1
 73
     0
 74
     5
  7

 75
    16
147
1.0
148
0.0
149
0.0
100
AcDbLayout
  1
Layout1
 70
     1
 71
     1
 10
0.0
 20
0.0
 11
420.0
 21
297.0
 12
0.0
 22
0.0
 32
0.0
 14
1.0000000000E+20
 24
1.0000000000E+20
 34
1.0000000000E+20
 15
-1.0000000000E+20
 25
-1.0000000000E+20
 35
-1.0000000000E+20
146
0.0
 13
0.0
 23
0.0
 33
0.0
 16
1.0
 26
0.0
 36
0.0
 17
0.0
 27
1.0
 37
0.0
 76
     0
330
1B
  0
LAYOUT
  5
26
102
{ACAD_REACTORS
330
1A
102
}
330
1A
100
AcDbPlotSettings
  1

  2
none_device
  4

  6

 40
0.0
 41
0.0
 42
0.0
 43
0.0
 44
0.0
 45
0.0
 46
0.0
 47
0.0
 48
0.0
 49
0.0
140
0.0
141
0.0
142
1.0
143
1.0
 70
   688
 72
     1
 73
     0
 74
     5
  7

 75
    16
147
1.0
148
0.0
149
0.0
100
AcDbLayout
  1
Layout2
 70
     1
 71
     2
 10
0.0
 20
0.0
 11
0.0
 21
0.0
 12
0.0
 22
0.0
 32
0.0
 14
0.0
 24
0.0
 34
0.0
 15
0.0
 25
0.0
 35
0.0
146
0.0
 13
0.0
 23
0.0
 33
0.0
 16
1.0
 26
0.0
 36
0.0
 17
0.0
 27
1.0
 37
0.0
 76
     0
330
23
  0
LAYOUT
  5
22
102
{ACAD_REACTORS
330
1A
102
}
330
1A
100
AcDbPlotSettings
  1

  2
none_device
  4
ANSI_A_(11.00_x_8.50_Inches)
  6

 40
6.35
 41
19.05
 42
6.35000508
 43
19.05000254
 44
279.4
 45
215.9
 46
26.50541264
 47
-17.9186709101
 48
0.0
 49
0.0
140
0.0
141
0.0
142
0.0227377282
143
1.0
 70
  1696
 72
     0
 73
     0
 74
     0
  7

 75
     0
147
0.0179189148
148
-1300.4909072572
149
0.0
100
AcDbLayout
  1
Model
 70
     1
 71
     0
 10
0.0
 20
0.0
 11
420.0
 21
297.0
 12
0.0
 22
0.0
 32
0.0
 14
0.0
 24
-0.0897435897
 34
0.0
 15
370.0
 25
370.0
 35
0.0
146
0.0
 13
0.0
 23
0.0
 33
0.0
 16
1.0
 26
0.0
 36
0.0
 17
0.0
 27
1.0
 37
0.0
 76
     0
330
1F
331
29
  0
MLINESTYLE
  5
18
102
{ACAD_REACTORS
330
17
102
}
330
17
100
AcDbMlineStyle
  2
Standard
 70
     0
  3

 62
   256
 51
90.0
 52
90.0
 71
     2
 49
0.5
 62
   256
  6
BYLAYER
 49
-0.5
 62
   256
  6
BYLAYER
  0
ACDBPLACEHOLDER
  5
F
102
{ACAD_REACTORS
330
E
102
}
330
E
  0
SCALE
  5
48
102
{ACAD_REACTORS
330
47
102
}
330
47
100
AcDbScale
 70
     0
300
1:1
140
1.0
141
1.0
290
     1
  0
SCALE
  5
49
102
{ACAD_REACTORS
330
47
102
}
330
47
100
AcDbScale
 70
     0
300
1:2
140
1.0
141
2.0
290
     0
  0
SCALE
  5
4A
102
{ACAD_REACTORS
330
47
102
}
330
47
100
AcDbScale
 70
     0
300
1:4
140
1.0
141
4.0
290
     0
  0
SCALE
  5
4B
102
{ACAD_REACTORS
330
47
102
}
330
47
100
AcDbScale
 70
     0
300
1:5
140
1.0
141
5.0
290
     0
  0
SCALE
  5
4C
102
{ACAD_REACTORS
330
47
102
}
330
47
100
AcDbScale
 70
     0
300
1:8
140
1.0
141
8.0
290
     0
  0
SCALE
  5
4D
102
{ACAD_REACTORS
330
47
102
}
330
47
100
AcDbScale
 70
     0
300
1:10
140
1.0
141
10.0
290
     0
  0
SCALE
  5
4E
102
{ACAD_REACTORS
330
47
102
}
330
47
100
AcDbScale
 70
     0
300
1:16
140
1.0
141
16.0
290
     0
  0
SCALE
  5
4F
102
{ACAD_REACTORS
330
47
102
}
330
47
100
AcDbScale
 70
     0
300
1:20
140
1.0
141
20.0
290
     0
  0
SCALE
  5
50
102
{ACAD_REACTORS
330
47
102
}
330
47
100
AcDbScale
 70
     0
300
1:30
140
1.0
141
30.0
290
     0
  0
SCALE
  5
51
102
{ACAD_REACTORS
330
47
102
}
330
47
100
AcDbScale
 70
     0
300
1:40
140
1.0
141
40.0
290
     0
  0
SCALE
  5
52
102
{ACAD_REACTORS
330
47
102
}
330
47
100
AcDbScale
 70
     0
300
1:50
140
1.0
141
50.0
290
     0
  0
SCALE
  5
53
102
{ACAD_REACTORS
330
47
102
}
330
47
100
AcDbScale
 70
     0
300
1:100
140
1.0
141
100.0
290
     0
  0
SCALE
  5
54
102
{ACAD_REACTORS
330
47
102
}
330
47
100
AcDbScale
 70
     0
300
2:1
140
2.0
141
1.0
290
     0
  0
SCALE
  5
55
102
{ACAD_REACTORS
330
47
102
}
330
47
100
AcDbScale
 70
     0
300
4:1
140
4.0
141
1.0
290
     0
  0
SCALE
  5
56
102
{ACAD_REACTORS
330
47
102
}
330
47
100
AcDbScale
 70
     0
300
8:1
140
8.0
141
1.0
290
     0
  0
SCALE
  5
57
102
{ACAD_REACTORS
330
47
102
}
330
47
100
AcDbScale
 70
     0
300
10:1
140
10.0
141
1.0
290
     0
  0
SCALE
  5
58
102
{ACAD_REACTORS
330
47
102
}
330
47
100
AcDbScale
 70
     0
300
100:1
140
100.0
141
1.0
290
     0
  0
SCALE
  5
59
102
{ACAD_REACTORS
330
47
102
}
330
47
100
AcDbScale
 70
     0
300
1/128" = 1'-0"
140
0.0078125
141
12.0
290
     0
  0
SCALE
  5
5A
102
{ACAD_REACTORS
330
47
102
}
330
47
100
AcDbScale
 70
     0
300
1/64" = 1'-0"
140
0.015625
141
12.0
290
     0
  0
SCALE
  5
5B
102
{ACAD_REACTORS
330
47
102
}
330
47
100
AcDbScale
 70
     0
300
1/32" = 1'-0"
140
0.03125
141
12.0
290
     0
  0
SCALE
  5
5C
102
{ACAD_REACTORS
330
47
102
}
330
47
100
AcDbScale
 70
     0
300
1/16" = 1'-0"
140
0.0625
141
12.0
290
     0
  0
SCALE
  5
5D
102
{ACAD_REACTORS
330
47
102
}
330
47
100
AcDbScale
 70
     0
300
3/32" = 1'-0"
140
0.09375
141
12.0
290
     0
  0
SCALE
  5
5E
102
{ACAD_REACTORS
330
47
102
}
330
47
100
AcDbScale
 70
     0
300
1/8" = 1'-0"
140
0.125
141
12.0
290
     0
  0
SCALE
  5
5F
102
{ACAD_REACTORS
330
47
102
}
330
47
100
AcDbScale
 70
     0
300
3/16" = 1'-0"
140
0.1875
141
12.0
290
     0
  0
SCALE
  5
60
102
{ACAD_REACTORS
330
47
102
}
330
47
100
AcDbScale
 70
     0
300
1/4" = 1'-0"
140
0.25
141
12.0
290
     0
  0
SCALE
  5
61
102
{ACAD_REACTORS
330
47
102
}
330
47
100
AcDbScale
 70
     0
300
3/8" = 1'-0"
140
0.375
141
12.0
290
     0
  0
SCALE
  5
62
102
{ACAD_REACTORS
330
47
102
}
330
47
100
AcDbScale
 70
     0
300
1/2" = 1'-0"
140
0.5
141
12.0
290
     0
  0
SCALE
  5
63
102
{ACAD_REACTORS
330
47
102
}
330
47
100
AcDbScale
 70
     0
300
3/4" = 1'-0"
140
0.75
141
12.0
290
     0
  0
SCALE
  5
64
102
{ACAD_REACTORS
330
47
102
}
330
47
100
AcDbScale
 70
     0
300
1" = 1'-0"
140
1.0
141
12.0
290
     0
  0
SCALE
  5
65
102
{ACAD_REACTORS
330
47
102
}
330
47
100
AcDbScale
 70
     0
300
1-1/2" = 1'-0"
140
1.5
141
12.0
290
     0
  0
SCALE
  5
66
102
{ACAD_REACTORS
330
47
102
}
330
47
100
AcDbScale
 70
     0
300
3" = 1'-0"
140
3.0
141
12.0
290
     0
  0
SCALE
  5
67
102
{ACAD_REACTORS
330
47
102
}
330
47
100
AcDbScale
 70
     0
300
6" = 1'-0"
140
6.0
141
12.0
290
     0
  0
SCALE
  5
68
102
{ACAD_REACTORS
330
47
102
}
330
47
100
AcDbScale
 70
     0
300
1'-0" = 1'-0"
140
12.0
141
12.0
290
     0
  0
ENDSEC
  0
EOF
