  0
SECTION
  2
HEADER
  9
$ACADVER
  1
AC1015
  9
$ACADMAINTVER
 70
     6
  9
$DWGCODEPAGE
  3
ANSI_1252
  9
$INSBASE
 10
0.0
 20
0.0
 30
0.0
  9
$EXTMIN
 10
0.0
 20
0.0
 30
0.0
  9
$EXTMAX
 10
370.0
 20
370.0
 30
0.0
  9
$LIMMIN
 10
0.0
 20
0.0
  9
$LIMMAX
 10
420.0
 20
297.0
  9
$ORTHOMODE
 70
     0
  9
$REGENMODE
 70
     1
  9
$FILLMODE
 70
     1
  9
$QTEXTMODE
 70
     0
  9
$MIRRTEXT
 70
     1
  9
$LTSCALE
 40
1.0
  9
$ATTMODE
 70
     1
  9
$TEXTSIZE
 40
3.5
  9
$TRACEWID
 40
1.0
  9
$TEXTSTYLE
  7
Standard
  9
$CLAYER
  8
0
  9
$CELTYPE
  6
ByLayer
  9
$CECOLOR
 62
   256
  9
$CELTSCALE
 40
1.0
  9
$DISPSILH
 70
     0
  9
$DIMSCALE
 40
1.0
  9
$DIMASZ
 40
3.302
  9
$DIMEXO
 40
1.0
  9
$DIMDLI
 40
3.75
  9
$DIMRND
 40
0.0
  9
$DIMDLE
 40
0.0
  9
$DIMEXE
 40
1.0
  9
$DIMTP
 40
0.0
  9
$DIMTM
 40
0.0
  9
$DIMTXT
 40
3.5
  9
$DIMCEN
 40
2.5
  9
$DIMTSZ
 40
0.0
  9
$DIMTOL
 70
     0
  9
$DIMLIM
 70
     0
  9
$DIMTIH
 70
     1
  9
$DIMTOH
 70
     1
  9
$DIMSE1
 70
     0
  9
$DIMSE2
 70
     0
  9
$DIMTAD
 70
     1
  9
$DIMZIN
 70
     0
  9
$DIMBLK
  1

  9
$DIMASO
 70
     1
  9
$DIMSHO
 70
     1
  9
$DIMPOST
  1

  9
$DIMAPOST
  1

  9
$DIMALT
 70
     0
  9
$DIMALTD
 70
     3
  9
$DIMALTF
 40
0.0393700787
  9
$DIMLFAC
 40
1.0
  9
$DIMTOFL
 70
     1
  9
$DIMTVP
 40
0.0
  9
$DIMTIX
 70
     0
  9
$DIMSOXD
 70
     0
  9
$DIMSAH
 70
     0
  9
$DIMBLK1
  1

  9
$DIMBLK2
  1

  9
$DIMSTYLE
  2
ISO-25
  9
$DIMCLRD
 70
     0
  9
$DIMCLRE
 70
     0
  9
$DIMCLRT
 70
     0
  9
$DIMTFAC
 40
1.0
  9
$DIMGAP
 40
1.524
  9
$DIMJUST
 70
     0
  9
$DIMSD1
 70
     0
  9
$DIMSD2
 70
     0
  9
$DIMTOLJ
 70
     0
  9
$DIMTZIN
 70
     0
  9
$DIMALTZ
 70
     0
  9
$DIMALTTZ
 70
     0
  9
$DIMUPT
 70
     0
  9
$DIMDEC
 70
     2
  9
$DIMTDEC
 70
     2
  9
$DIMALTU
 70
     2
  9
$DIMALTTD
 70
     3
  9
$DIMTXSTY
  7
Standard
  9
$DIMAUNIT
 70
     0
  9
$DIMADEC
 70
     2
  9
$DIMALTRND
 40
0.0
  9
$DIMAZIN
 70
     0
  9
$DIMDSEP
 70
    44
  9
$DIMATFIT
 70
     3
  9
$DIMFRAC
 70
     0
  9
$DIMLDRBLK
  1

  9
$DIMLUNIT
 70
     2
  9
$DIMLWD
 70
    -2
  9
$DIMLWE
 70
    -2
  9
$DIMTMOVE
 70
     0
  9
$LUNITS
 70
     2
  9
$LUPREC
 70
     2
  9
$SKETCHINC
 40
1.0
  9
$FILLETRAD
 40
10.0
  9
$AUNITS
 70
     0
  9
$AUPREC
 70
     2
  9
$MENU
  1
.
  9
$ELEVATION
 40
0.0
  9
$PELEVATION
 40
0.0
  9
$THICKNESS
 40
0.0
  9
$LIMCHECK
 70
     0
  9
$CHAMFERA
 40
0.0
  9
$CHAMFERB
 40
0.0
  9
$CHAMFERC
 40
0.0
  9
$CHAMFERD
 40
0.0
  9
$SKPOLY
 70
     0
  9
$TDCREATE
 40
2457032.872767419
  9
$TDUCREATE
 40
2457032.831100752
  9
$TDUPDATE
 40
2457032.873233056
  9
$TDUUPDATE
 40
2457032.831566389
  9
$TDINDWG
 40
0.0000000116
  9
$TDUSRTIMER
 40
0.0000000116
  9
$USRTIMER
 70
     1
  9
$ANGBASE
 50
0.0
  9
$ANGDIR
 70
     0
  9
$PDMODE
 70
     0
  9
$PDSIZE
 40
-1.0
  9
$PLINEWID
 40
0.0
  9
$SPLFRAME
 70
     0
  9
$SPLINETYPE
 70
     6
  9
$SPLINESEGS
 70
     8
  9
$HANDSEED
  5
152
  9
$SURFTAB1
 70
     6
  9
$SURFTAB2
 70
     6
  9
$SURFTYPE
 70
     6
  9
$SURFU
 70
     6
  9
$SURFV
 70
     6
  9
$UCSBASE
  2

  9
$UCSNAME
  2

  9
$UCSORG
 10
0.0
 20
0.0
 30
0.0
  9
$UCSXDIR
 10
1.0
 20
0.0
 30
0.0
  9
$UCSYDIR
 10
0.0
 20
1.0
 30
0.0
  9
$UCSORTHOREF
  2

  9
$UCSORTHOVIEW
 70
     0
  9
$UCSORGTOP
 10
0.0
 20
0.0
 30
0.0
  9
$UCSORGBOTTOM
 10
0.0
 20
0.0
 30
0.0
  9
$UCSORGLEFT
 10
0.0
 20
0.0
 30
0.0
  9
$UCSORGRIGHT
 10
0.0
 20
0.0
 30
0.0
  9
$UCSORGFRONT
 10
0.0
 20
0.0
 30
0.0
  9
$UCSORGBACK
 10
0.0
 20
0.0
 30
0.0
  9
$PUCSBASE
  2

  9
$PUCSNAME
  2

  9
$PUCSORG
 10
0.0
 20
0.0
 30
0.0
  9
$PUCSXDIR
 10
1.0
 20
0.0
 30
0.0
  9
$PUCSYDIR
 10
0.0
 20
1.0
 30
0.0
  9
$PUCSORTHOREF
  2

  9
$PUCSORTHOVIEW
 70
     0
  9
$PUCSORGTOP
 10
0.0
 20
0.0
 30
0.0
  9
$PUCSORGBOTTOM
 10
0.0
 20
0.0
 30
0.0
  9
$PUCSORGLEFT
 10
0.0
 20
0.0
 30
0.0
  9
$PUCSORGRIGHT
 10
0.0
 20
0.0
 30
0.0
  9
$PUCSORGFRONT
 10
0.0
 20
0.0
 30
0.0
  9
$PUCSORGBACK
 10
0.0
 20
0.0
 30
0.0
  9
$USERI1
 70
     0
  9
$USERI2
 70
     0
  9
$USERI3
 70
     0
  9
$USERI4
 70
     0
  9
$USERI5
 70
     0
  9
$USERR1
 40
0.0
  9
$USERR2
 40
0.0
  9
$USERR3
 40
0.0
  9
$USERR4
 40
0.0
  9
$USERR5
 40
0.0
  9
$WORLDVIEW
 70
     1
  9
$SHADEDGE
 70
     3
  9
$SHADEDIF
 70
    70
  9
$TILEMODE
 70
     1
  9
$MAXACTVP
 70
    64
  9
$PINSBASE
 10
0.0
 20
0.0
 30
0.0
  9
$PLIMCHECK
 70
     0
  9
$PEXTMIN
 10
1.0000000000E+20
 20
1.0000000000E+20
 30
1.0000000000E+20
  9
$PEXTMAX
 10
-1.0000000000E+20
 20
-1.0000000000E+20
 30
-1.0000000000E+20
  9
$PLIMMIN
 10
0.0
 20
0.0
  9
$PLIMMAX
 10
420.0
 20
297.0
  9
$UNITMODE
 70
     0
  9
$VISRETAIN
 70
     1
  9
$PLINEGEN
 70
     0
  9
$PSLTSCALE
 70
     1
  9
$TREEDEPTH
 70
  3020
  9
$CMLSTYLE
  2
Standard
  9
$CMLJUST
 70
     0
  9
$CMLSCALE
 40
20.0
  9
$PROXYGRAPHICS
 70
     1
  9
$MEASUREMENT
 70
     1
  9
$CELWEIGHT
370
    -1
  9
$ENDCAPS
280
     0
  9
$JOINSTYLE
280
     0
  9
$LWDISPLAY
290
     1
  9
$INSUNITS
 70
     4
  9
$HYPERLINKBASE
  1

  9
$STYLESHEET
  1

  9
$XEDIT
290
     1
  9
$CEPSNTYPE
380
     0
  9
$PSTYLEMODE
290
     1
  9
$FINGERPRINTGUID
  2
{28B23C1C-48D9-4F5E-92AC-5369908D17C9}
  9
$VERSIONGUID
  2
{FAEB1C32-E019-11D5-929B-00C0DF256EC4}
  9
$EXTNAMES
290
     1
  9
$PSVPSCALE
 40
0.0
  9
$OLESTARTUP
290
     0
  0
ENDSEC
  0
SECTION
  2
CLASSES
  0
CLASS
  1
ACDBDICTIONARYWDFLT
  2
AcDbDictionaryWithDefault
  3
ObjectDBX Classes
 90
        0
280
     0
281
     0
  0
CLASS
  1
VISUALSTYLE
  2
AcDbVisualStyle
  3
ObjectDBX Classes
 90
     4095
280
     0
281
     0
  0
CLASS
  1
MATERIAL
  2
AcDbMaterial
  3
ObjectDBX Classes
 90
     1153
280
     0
281
     0
  0
CLASS
  1
SCALE
  2
AcDbScale
  3
ObjectDBX Classes
 90
     1153
280
     0
281
     0
  0
CLASS
  1
TABLESTYLE
  2
AcDbTableStyle
  3
ObjectDBX Classes
 90
     4095
280
     0
281
     0
  0
CLASS
  1
MLEADERSTYLE
  2
AcDbMLeaderStyle
  3
ACDB_MLEADERSTYLE_CLASS
 90
     4095
280
     0
281
     0
  0
CLASS
  1
SUN
  2
AcDbSun
  3
SCENEOE
 90
     1153
280
     0
281
     0
  0
CLASS
  1
ACDBPLACEHOLDER
  2
AcDbPlaceHolder
  3
ObjectDBX Classes
 90
        0
280
     0
281
     0
  0
CLASS
  1
LAYOUT
  2
AcDbLayout
  3
ObjectDBX Classes
 90
        0
280
     0
281
     0
  0
ENDSEC
  0
SECTION
  2
TABLES
  0
TABLE
  2
VPORT
  5
8
330
0
100
AcDbSymbolTable
 70
     1
  0
VPORT
  5
29
330
8
100
AcDbSymbolTableRecord
100
AcDbViewportTableRecord
  2
*Active
 70
     0
 10
0.0
 20
0.0
 11
1.0
 21
1.0
 12
185.0
 22
185.0
 13
0.0
 23
0.0
 14
10.0
 24
10.0
 15
10.0
 25
10.0
 16
0.0
 26
0.0
 36
1.0
 17
0.0
 27
0.0
 37
0.0
 40
377.4
 41
1.0
 42
50.0
 43
0.0
 44
0.0
 50
0.0
 51
0.0
 71
     0
 72
   100
 73
     1
 74
     3
 75
     0
 76
     0
 77
     0
 78
     0
281
     0
 65
     1
110
0.0
120
0.0
130
0.0
111
1.0
121
0.0
131
0.0
112
0.0
122
1.0
132
0.0
 79
     0
146
0.0
  0
ENDTAB
  0
TABLE
  2
LTYPE
  5
5
330
0
100
AcDbSymbolTable
 70
     6
  0
LTYPE
  5
14
330
5
100
AcDbSymbolTableRecord
100
AcDbLinetypeTableRecord
  2
ByBlock
 70
     0
  3

 72
    65
 73
     0
 40
0.0
  0
LTYPE
  5
15
330
5
100
AcDbSymbolTableRecord
100
AcDbLinetypeTableRecord
  2
ByLayer
 70
     0
  3

 72
    65
 73
     0
 40
0.0
  0
LTYPE
  5
16
330
5
100
AcDbSymbolTableRecord
100
AcDbLinetypeTableRecord
  2
Continuous
 70
     0
  3
Solid line
 72
    65
 73
     0
 40
0.0
  0
LTYPE
  5
6E
330
5
100
AcDbSymbolTableRecord
100
AcDbLinetypeTableRecord
  2
HIDDEN
 70
     0
  3
Hidden __ __ __ __ __ __ __ __ __ __ __ __ __ __
 72
    65
 73
     2
 40
1.905
 49
1.27
 74
     0
 49
-0.635
 74
     0
  0
LTYPE
  5
6F
330
5
100
AcDbSymbolTableRecord
100
AcDbLinetypeTableRecord
  2
PHANTOM
 70
     0
  3
Phantom ______  __  __  ______  __  __  ______
 72
    65
 73
     6
 40
12.7
 49
6.35
 74
     0
 49
-1.27
 74
     0
 49
1.27
 74
     0
 49
-1.27
 74
     0
 49
1.27
 74
     0
 49
-1.27
 74
     0
  0
LTYPE
  5
70
330
5
100
AcDbSymbolTableRecord
100
AcDbLinetypeTableRecord
  2
CENTER
 70
     0
  3
Center ____ _ ____ _ ____ _ ____ _ ____ _ ____
 72
    65
 73
     4
 40
10.16
 49
6.35
 74
     0
 49
-1.27
 74
     0
 49
1.27
 74
     0
 49
-1.27
 74
     0
  0
LTYPE
  5
71
330
5
100
AcDbSymbolTableRecord
100
AcDbLinetypeTableRecord
  2
CENTERX2
 70
     0
  3
Center (2x) ________  __  ________  __  _____
 72
    65
 73
     4
 40
20.32
 49
12.7
 74
     0
 49
-2.54
 74
     0
 49
2.54
 74
     0
 49
-2.54
 74
     0
  0
LTYPE
  5
72
330
5
100
AcDbSymbolTableRecord
100
AcDbLinetypeTableRecord
  2
DOT2
 70
     0
  3
Dot (.5x) ........................................
 72
    65
 73
     2
 40
0.635
 49
0.0
 74
     0
 49
-0.635
 74
     0
  0
ENDTAB
  0
TABLE
  2
LAYER
  5
2
330
0
100
AcDbSymbolTable
 70
     1
  0
LAYER
  5
10
330
2
100
AcDbSymbolTableRecord
100
AcDbLayerTableRecord
  2
0
 70
     0
 62
     7
  6
Continuous
370
    -3
390
F
  0
ENDTAB
  0
TABLE
  2
STYLE
  5
3
330
0
100
AcDbSymbolTable
 70
     1
  0
STYLE
  5
11
330
3
100
AcDbSymbolTableRecord
100
AcDbTextStyleTableRecord
  2
Standard
 70
     0
 40
0.0
 41
1.0
 50
0.0
 71
     0
 42
3.5
  3
txt
  4

  0
ENDTAB
  0
TABLE
  2
VIEW
  5
6
330
0
100
AcDbSymbolTable
 70
     0
  0
ENDTAB
  0
TABLE
  2
UCS
  5
7
330
0
100
AcDbSymbolTable
 70
     0
  0
ENDTAB
  0
TABLE
  2
APPID
  5
9
330
0
100
AcDbSymbolTable
 70
     1
  0
APPID
  5
12
330
9
100
AcDbSymbolTableRecord
100
AcDbRegAppTableRecord
  2
ACAD
 70
     0
  0
ENDTAB
  0
TABLE
  2
DIMSTYLE
  5
A
330
0
100
AcDbSymbolTable
 70
     1
100
AcDbDimStyleTable
  0
DIMSTYLE
105
27
330
A
100
AcDbSymbolTableRecord
100
AcDbDimStyleTableRecord
  2
ISO-25
 70
     0
 41
2.5
 42
0.625
 43
3.75
 44
1.25
 73
     0
 74
     0
 77
     1
 78
     8
140
2.5
141
2.5
143
0.0393700787
147
0.625
171
     3
172
     1
178
     0
271
     2
272
     2
274
     3
278
    44
283
     0
284
     8
340
11
  0
ENDTAB
  0
TABLE
  2
BLOCK_RECORD
  5
1
330
0
100
AcDbSymbolTable
 70
     1
  0
BLOCK_RECORD
  5
1F
330
1
100
AcDbSymbolTableRecord
100
AcDbBlockTableRecord
  2
*Model_Space
340
22
  0
BLOCK_RECORD
  5
1B
330
1
100
AcDbSymbolTableRecord
100
AcDbBlockTableRecord
  2
*Paper_Space
340
1E
  0
BLOCK_RECORD
  5
23
330
1
100
AcDbSymbolTableRecord
100
AcDbBlockTableRecord
  2
*Paper_Space0
340
26
  0
ENDTAB
  0
ENDSEC
  0
SECTION
  2
BLOCKS
  0
BLOCK
  5
20
330
1F
100
AcDbEntity
  8
0
100
AcDbBlockBegin
  2
*Model_Space
 70
     0
 10
0.0
 20
0.0
 30
0.0
  3
*Model_Space
  1

  0
ENDBLK
  5
21
330
1F
100
AcDbEntity
  8
0
100
AcDbBlockEnd
  0
BLOCK
  5
1C
330
1B
100
AcDbEntity
 67
     1
  8
0
100
AcDbBlockBegin
  2
*Paper_Space
 70
     0
 10
0.0
 20
0.0
 30
0.0
  3
*Paper_Space
  1

  0
ENDBLK
  5
1D
330
1B
100
AcDbEntity
 67
     1
  8
0
100
AcDbBlockEnd
  0
BLOCK
  5
24
330
23
100
AcDbEntity
  8
0
100
AcDbBlockBegin
  2
*Paper_Space0
 70
     0
 10
0.0
 20
0.0
 30
0.0
  3
*Paper_Space0
  1

  0
ENDBLK
  5
25
330
23
100
AcDbEntity
  8
0
100
AcDbBlockEnd
  0
ENDSEC
  0
SECTION
  2
ENTITIES
  0
ARC
  5
73
330
1F
100
AcDbEntity
  8
0
  6
Continuous
 62
     7
100
AcDbCircle
 10
100.0
 20
20.0
 30
0.0
 40
5.0
100
AcDbArc
 50
180.0
 51
0.0
  0
ARC
  5
74
330
1F
100
AcDbEntity
  8
0
  6
Continuous
 62
     7
100
AcDbCircle
 10
270.0
 20
20.0
 30
0.0
 40
5.0
100
AcDbArc
 50
180.0
 51
0.0
  0
CIRCLE
  5
75
330
1F
100
AcDbEntity
  8
0
  6
Continuous
 62
     7
100
AcDbCircle
 10
3.2951080554
 20
74.6100448329
 30
0.0
 40
1.249999999999999
  0
CIRCLE
  5
76
330
1F
100
AcDbEntity
  8
0
  6
Continuous
 62
     7
100
AcDbCircle
 10
51.5551080554
 20
150.8100448329
 30
0.0
 40
1.249999999999991
  0
CIRCLE
  5
77
330
1F
100
AcDbEntity
  8
0
  6
Continuous
 62
     7
100
AcDbCircle
 10
3.2951080554
 20
157.1600448329
 30
0.0
 40
1.249999999999994
  0
CIRCLE
  5
78
330
1F
100
AcDbEntity
  8
0
  6
Continuous
 62
     7
100
AcDbCircle
 10
3.2951080554
 20
149.5400448329
 30
0.0
 40
1.250000000000003
  0
CIRCLE
  5
79
330
1F
100
AcDbEntity
  8
0
  6
Continuous
 62
     7
100
AcDbCircle
 10
75.0
 20
250.0
 30
0.0
 40
1.5
  0
CIRCLE
  5
7A
330
1F
100
AcDbEntity
  8
0
  6
Continuous
 62
     7
100
AcDbCircle
 10
95.0376194079
 20
250.0
 30
0.0
 40
1.499999999999992
  0
CIRCLE
  5
7B
330
1F
100
AcDbEntity
  8
0
  6
Continuous
 62
     7
100
AcDbCircle
 10
75.0
 20
180.0
 30
0.0
 40
1.5
  0
CIRCLE
  5
7C
330
1F
100
AcDbEntity
  8
0
  6
Continuous
 62
     7
100
AcDbCircle
 10
95.0
 20
180.0
 30
0.0
 40
1.5
  0
CIRCLE
  5
7D
330
1F
100
AcDbEntity
  8
0
  6
Continuous
 62
     7
100
AcDbCircle
 10
265.0
 20
215.0
 30
0.0
 40
1.500000000000033
  0
CIRCLE
  5
7E
330
1F
100
AcDbEntity
  8
0
  6
Continuous
 62
     7
100
AcDbCircle
 10
245.0
 20
215.0
 30
0.0
 40
1.5
  0
CIRCLE
  5
7F
330
1F
100
AcDbEntity
  8
0
  6
Continuous
 62
     7
100
AcDbCircle
 10
65.5
 20
319.5
 30
0.0
 40
1.5
  0
CIRCLE
  5
80
330
1F
100
AcDbEntity
  8
0
  6
Continuous
 62
     7
100
AcDbCircle
 10
274.5
 20
110.5
 30
0.0
 40
1.5
  0
CIRCLE
  5
81
330
1F
100
AcDbEntity
  8
0
  6
Continuous
 62
     7
100
AcDbCircle
 10
274.5
 20
319.5
 30
0.0
 40
1.5
  0
CIRCLE
  5
82
330
1F
100
AcDbEntity
  8
0
  6
Continuous
 62
     7
100
AcDbCircle
 10
65.5
 20
110.5
 30
0.0
 40
1.5
  0
CIRCLE
  5
83
330
1F
100
AcDbEntity
  8
0
  6
Continuous
 62
     7
100
AcDbCircle
 10
50.0
 20
6.0
 30
0.0
 40
1.500000000000007
  0
CIRCLE
  5
84
330
1F
100
AcDbEntity
  8
0
  6
Continuous
 62
     7
100
AcDbCircle
 10
320.0
 20
6.0
 30
0.0
 40
1.5
  0
CIRCLE
  5
85
330
1F
100
AcDbEntity
  8
0
  6
Continuous
 62
     7
100
AcDbCircle
 10
230.0
 20
6.0
 30
0.0
 40
1.5
  0
CIRCLE
  5
86
330
1F
100
AcDbEntity
  8
0
  6
Continuous
 62
     7
100
AcDbCircle
 10
140.0
 20
6.0
 30
0.0
 40
1.500000000000028
  0
CIRCLE
  5
87
330
1F
100
AcDbEntity
  8
0
  6
Continuous
 62
     7
100
AcDbCircle
 10
20.0
 20
10.0
 30
0.0
 40
4.0
  0
CIRCLE
  5
88
330
1F
100
AcDbEntity
  8
0
  6
Continuous
 62
     7
100
AcDbCircle
 10
350.0
 20
10.0
 30
0.0
 40
4.0
  0
ARC
  5
89
330
1F
100
AcDbEntity
  8
0
  6
Continuous
 62
     7
100
AcDbCircle
 10
84.0
 20
192.0
 30
0.0
 40
4.0
100
AcDbArc
 50
90.0
 51
180.0
  0
ARC
  5
8A
330
1F
100
AcDbEntity
  8
0
  6
Continuous
 62
     7
100
AcDbCircle
 10
86.0
 20
192.0
 30
0.0
 40
4.0
100
AcDbArc
 50
0.0
 51
90.0
  0
ARC
  5
8B
330
1F
100
AcDbEntity
  8
0
  6
Continuous
 62
     7
100
AcDbCircle
 10
84.0
 20
169.0
 30
0.0
 40
4.0
100
AcDbArc
 50
180.0
 51
270.0
  0
ARC
  5
8C
330
1F
100
AcDbEntity
  8
0
  6
Continuous
 62
     7
100
AcDbCircle
 10
86.0
 20
169.0
 30
0.0
 40
4.0
100
AcDbArc
 50
270.0
 51
0.0
  0
CIRCLE
  5
8D
330
1F
100
AcDbEntity
  8
0
  6
Continuous
 62
     7
100
AcDbCircle
 10
10.0
 20
40.0
 30
0.0
 40
1.5
  0
CIRCLE
  5
8E
330
1F
100
AcDbEntity
  8
0
  6
Continuous
 62
     7
100
AcDbCircle
 10
30.0
 20
40.0
 30
0.0
 40
1.5
  0
CIRCLE
  5
8F
330
1F
100
AcDbEntity
  8
0
  6
Continuous
 62
     7
100
AcDbCircle
 10
20.0
 20
20.0
 30
0.0
 40
1.5
  0
CIRCLE
  5
90
330
1F
100
AcDbEntity
  8
0
  6
Continuous
 62
     7
100
AcDbCircle
 10
350.0
 20
20.0
 30
0.0
 40
1.5
  0
CIRCLE
  5
91
330
1F
100
AcDbEntity
  8
0
  6
Continuous
 62
     7
100
AcDbCircle
 10
340.0
 20
40.0
 30
0.0
 40
1.5
  0
CIRCLE
  5
92
330
1F
100
AcDbEntity
  8
0
  6
Continuous
 62
     7
100
AcDbCircle
 10
360.0
 20
40.0
 30
0.0
 40
1.5
  0
CIRCLE
  5
93
330
1F
100
AcDbEntity
  8
0
  6
Continuous
 62
     7
100
AcDbCircle
 10
360.0
 20
360.0
 30
0.0
 40
1.500000000000033
  0
CIRCLE
  5
94
330
1F
100
AcDbEntity
  8
0
  6
Continuous
 62
     7
100
AcDbCircle
 10
340.0
 20
360.0
 30
0.0
 40
1.5
  0
CIRCLE
  5
95
330
1F
100
AcDbEntity
  8
0
  6
Continuous
 62
     7
100
AcDbCircle
 10
10.0
 20
360.0
 30
0.0
 40
1.5
  0
CIRCLE
  5
96
330
1F
100
AcDbEntity
  8
0
  6
Continuous
 62
     7
100
AcDbCircle
 10
30.0
 20
360.0
 30
0.0
 40
1.5
  0
CIRCLE
  5
97
330
1F
100
AcDbEntity
  8
0
  6
Continuous
 62
     7
100
AcDbCircle
 10
170.024675872
 20
194.0
 30
0.0
 40
1.499999999999987
  0
CIRCLE
  5
98
330
1F
100
AcDbEntity
  8
0
  6
Continuous
 62
     7
100
AcDbCircle
 10
170.024675872
 20
235.0
 30
0.0
 40
1.499999999999979
  0
ARC
  5
99
330
1F
100
AcDbEntity
  8
0
  6
Continuous
 62
     7
100
AcDbCircle
 10
86.0
 20
239.007036896
 30
0.0
 40
4.0
100
AcDbArc
 50
270.0
 51
0.0
  0
ARC
  5
9A
330
1F
100
AcDbEntity
  8
0
  6
Continuous
 62
     7
100
AcDbCircle
 10
84.0
 20
262.007036896
 30
0.0
 40
4.0
100
AcDbArc
 50
90.0
 51
180.0
  0
ARC
  5
9B
330
1F
100
AcDbEntity
  8
0
  6
Continuous
 62
     7
100
AcDbCircle
 10
86.0
 20
262.007036896
 30
0.0
 40
4.0
100
AcDbArc
 50
0.0
 51
90.0
  0
ARC
  5
9C
330
1F
100
AcDbEntity
  8
0
  6
Continuous
 62
     7
100
AcDbCircle
 10
84.0
 20
239.007036896
 30
0.0
 40
4.0
100
AcDbArc
 50
180.0
 51
270.0
  0
ARC
  5
9D
330
1F
100
AcDbEntity
  8
0
  6
Continuous
 62
     7
100
AcDbCircle
 10
256.0
 20
202.8628763929
 30
0.0
 40
4.0
100
AcDbArc
 50
270.0
 51
0.0
  0
ARC
  5
9E
330
1F
100
AcDbEntity
  8
0
  6
Continuous
 62
     7
100
AcDbCircle
 10
254.0
 20
225.8628763929
 30
0.0
 40
4.0
100
AcDbArc
 50
90.0
 51
180.0
  0
ARC
  5
9F
330
1F
100
AcDbEntity
  8
0
  6
Continuous
 62
     7
100
AcDbCircle
 10
256.0
 20
225.8628763929
 30
0.0
 40
4.0
100
AcDbArc
 50
0.0
 51
90.0
  0
ARC
  5
A0
330
1F
100
AcDbEntity
  8
0
  6
Continuous
 62
     7
100
AcDbCircle
 10
254.0
 20
202.8628763929
 30
0.0
 40
4.0
100
AcDbArc
 50
180.0
 51
270.0
  0
CIRCLE
  5
A1
330
1F
100
AcDbEntity
  8
0
  6
Continuous
 62
     7
100
AcDbCircle
 10
51.5551080554
 20
75.8800448329
 30
0.0
 40
1.249999999999995
  0
CIRCLE
  5
A2
330
1F
100
AcDbEntity
  8
0
  6
Continuous
 62
     7
100
AcDbCircle
 10
51.5551080554
 20
68.2600448329
 30
0.0
 40
1.249999999999995
  0
ARC
  5
A3
330
1F
100
AcDbEntity
  8
0
  6
Continuous
 62
     7
100
AcDbCircle
 10
123.8171154988
 20
281.0796424554
 30
0.0
 40
2.0
100
AcDbArc
 50
90.0
 51
227.6986992046
  0
ARC
  5
A4
330
1F
100
AcDbEntity
  8
0
  6
Continuous
 62
     7
100
AcDbCircle
 10
123.8171154988
 20
148.9203575446
 30
0.0
 40
2.000000000000028
100
AcDbArc
 50
132.3013007954
 51
270.0
  0
CIRCLE
  5
A5
330
1F
100
AcDbEntity
  8
0
  6
Continuous
 62
     7
100
AcDbCircle
 10
5.0
 20
269.5
 30
0.0
 40
1.500000000000001
  0
CIRCLE
  5
A6
330
1F
100
AcDbEntity
  8
0
  6
Continuous
 62
     7
100
AcDbCircle
 10
48.0
 20
269.5
 30
0.0
 40
1.5
  0
ARC
  5
A7
330
1F
100
AcDbEntity
  8
0
  6
Continuous
 62
     7
100
AcDbCircle
 10
216.2322362452
 20
281.0796424554
 30
0.0
 40
2.000000000000009
100
AcDbArc
 50
312.3013007954
 51
90.0
  0
ARC
  5
A8
330
1F
100
AcDbEntity
  8
0
  6
Continuous
 62
     7
100
AcDbCircle
 10
216.2322362452
 20
148.9203575446
 30
0.0
 40
2.000000000000028
100
AcDbArc
 50
270.0
 51
47.6986992046
  0
ARC
  5
A9
330
1F
100
AcDbEntity
  8
0
  6
Continuous
 62
     7
100
AcDbCircle
 10
180.8327612469
 20
218.9647967222
 30
0.0
 40
2.000000000000023
100
AcDbArc
 50
125.2676840366
 51
180.0
  0
ARC
  5
AA
330
1F
100
AcDbEntity
  8
0
  6
Continuous
 62
     7
100
AcDbCircle
 10
180.8327612469
 20
211.0352032778
 30
0.0
 40
2.0
100
AcDbArc
 50
180.0
 51
234.7323159634
  0
ARC
  5
AB
330
1F
100
AcDbEntity
  8
0
  6
Continuous
 62
     7
100
AcDbCircle
 10
159.2165904972
 20
218.9647967222
 30
0.0
 40
2.000000000000023
100
AcDbArc
 50
0.0
 51
54.7323159634
  0
ARC
  5
AC
330
1F
100
AcDbEntity
  8
0
  6
Continuous
 62
     7
100
AcDbCircle
 10
159.2165904972
 20
211.0352032778
 30
0.0
 40
2.0
100
AcDbArc
 50
305.2676840366
 51
0.0
  0
LINE
  5
AD
330
1F
100
AcDbEntity
  8
0
  6
Continuous
 62
     7
100
AcDbLine
 10
0.0
 20
4.8082515852
 30
0.0
 11
0.0
 21
365.0
 31
0.0
  0
LINE
  5
AE
330
1F
100
AcDbEntity
  8
0
  6
Continuous
 62
     7
100
AcDbLine
 10
5.0
 20
370.0
 30
0.0
 11
365.0
 21
370.0
 31
0.0
  0
LINE
  5
AF
330
1F
100
AcDbEntity
  8
0
  6
Continuous
 62
     7
100
AcDbLine
 10
370.0
 20
365.0
 30
0.0
 11
370.0
 21
5.0
 31
0.0
  0
LINE
  5
B0
330
1F
100
AcDbEntity
  8
0
  6
Continuous
 62
     7
100
AcDbLine
 10
365.0
 20
0.0
 30
0.0
 11
345.0
 21
0.0
 31
0.0
  0
LINE
  5
B1
330
1F
100
AcDbEntity
  8
0
  6
Continuous
 62
     7
100
AcDbLine
 10
5.0
 20
0.0
 30
0.0
 11
0.0
 21
4.8082515852
 31
0.0
  0
LINE
  5
B2
330
1F
100
AcDbEntity
  8
0
  6
Continuous
 62
     7
100
AcDbLine
 10
0.0
 20
4.8082515852
 30
0.0
 11
0.0
 21
365.0
 31
0.0
  0
LINE
  5
B3
330
1F
100
AcDbEntity
  8
0
  6
Continuous
 62
     7
100
AcDbLine
 10
0.0
 20
365.0
 30
0.0
 11
5.0
 21
370.0
 31
0.0
  0
LINE
  5
B4
330
1F
100
AcDbEntity
  8
0
  6
Continuous
 62
     7
100
AcDbLine
 10
5.0
 20
370.0
 30
0.0
 11
365.0
 21
370.0
 31
0.0
  0
LINE
  5
B5
330
1F
100
AcDbEntity
  8
0
  6
Continuous
 62
     7
100
AcDbLine
 10
365.0
 20
370.0
 30
0.0
 11
370.0
 21
365.0
 31
0.0
  0
LINE
  5
B6
330
1F
100
AcDbEntity
  8
0
  6
Continuous
 62
     7
100
AcDbLine
 10
370.0
 20
365.0
 30
0.0
 11
370.0
 21
5.0
 31
0.0
  0
LINE
  5
B7
330
1F
100
AcDbEntity
  8
0
  6
Continuous
 62
     7
100
AcDbLine
 10
370.0
 20
5.0
 30
0.0
 11
365.0
 21
0.0
 31
0.0
  0
LINE
  5
B8
330
1F
100
AcDbEntity
  8
0
  6
Continuous
 62
     7
100
AcDbLine
 10
365.0
 20
0.0
 30
0.0
 11
345.0
 21
0.0
 31
0.0
  0
LINE
  5
B9
330
1F
100
AcDbEntity
  8
0
  6
Continuous
 62
     7
100
AcDbLine
 10
345.0
 20
0.0
 30
0.0
 11
343.0
 21
2.0
 31
0.0
  0
LINE
  5
BA
330
1F
100
AcDbEntity
  8
0
  6
Continuous
 62
     7
100
AcDbLine
 10
329.0
 20
2.0
 30
0.0
 11
41.0
 21
2.0
 31
0.0
  0
LINE
  5
BB
330
1F
100
AcDbEntity
  8
0
  6
Continuous
 62
     7
100
AcDbLine
 10
27.0
 20
2.0
 30
0.0
 11
25.0
 21
0.0
 31
0.0
  0
LINE
  5
BC
330
1F
100
AcDbEntity
  8
0
  6
Continuous
 62
     7
100
AcDbLine
 10
25.0
 20
0.0
 30
0.0
 11
5.0
 21
0.0
 31
0.0
  0
LINE
  5
BD
330
1F
100
AcDbEntity
  8
0
  6
Continuous
 62
     7
100
AcDbLine
 10
95.0
 20
20.0
 30
0.0
 11
95.0
 21
35.0
 31
0.0
  0
LINE
  5
BE
330
1F
100
AcDbEntity
  8
0
  6
Continuous
 62
     7
100
AcDbLine
 10
95.0
 20
35.0
 30
0.0
 11
80.0
 21
50.0
 31
0.0
  0
LINE
  5
BF
330
1F
100
AcDbEntity
  8
0
  6
Continuous
 62
     7
100
AcDbLine
 10
80.0
 20
50.0
 30
0.0
 11
60.0
 21
50.0
 31
0.0
  0
LINE
  5
C0
330
1F
100
AcDbEntity
  8
0
  6
Continuous
 62
     7
100
AcDbLine
 10
60.0
 20
50.0
 30
0.0
 11
55.0
 21
55.0
 31
0.0
  0
LINE
  5
C1
330
1F
100
AcDbEntity
  8
0
  6
Continuous
 62
     7
100
AcDbLine
 10
55.0
 20
55.0
 30
0.0
 11
55.0
 21
325.0
 31
0.0
  0
LINE
  5
C2
330
1F
100
AcDbEntity
  8
0
  6
Continuous
 62
     7
100
AcDbLine
 10
55.0
 20
325.0
 30
0.0
 11
60.0
 21
330.0
 31
0.0
  0
LINE
  5
C3
330
1F
100
AcDbEntity
  8
0
  6
Continuous
 62
     7
100
AcDbLine
 10
60.0
 20
330.0
 30
0.0
 11
310.0
 21
330.0
 31
0.0
  0
LINE
  5
C4
330
1F
100
AcDbEntity
  8
0
  6
Continuous
 62
     7
100
AcDbLine
 10
310.0
 20
330.0
 30
0.0
 11
315.0
 21
325.0
 31
0.0
  0
LINE
  5
C5
330
1F
100
AcDbEntity
  8
0
  6
Continuous
 62
     7
100
AcDbLine
 10
315.0
 20
325.0
 30
0.0
 11
315.0
 21
55.0
 31
0.0
  0
LINE
  5
C6
330
1F
100
AcDbEntity
  8
0
  6
Continuous
 62
     7
100
AcDbLine
 10
315.0
 20
55.0
 30
0.0
 11
310.0
 21
50.0
 31
0.0
  0
LINE
  5
C7
330
1F
100
AcDbEntity
  8
0
  6
Continuous
 62
     7
100
AcDbLine
 10
105.0
 20
20.0
 30
0.0
 11
105.0
 21
35.0
 31
0.0
  0
LINE
  5
C8
330
1F
100
AcDbEntity
  8
0
  6
Continuous
 62
     7
100
AcDbLine
 10
105.0
 20
35.0
 30
0.0
 11
110.0
 21
40.0
 31
0.0
  0
LINE
  5
C9
330
1F
100
AcDbEntity
  8
0
  6
Continuous
 62
     7
100
AcDbLine
 10
310.0
 20
50.0
 30
0.0
 11
290.0
 21
50.0
 31
0.0
  0
LINE
  5
CA
330
1F
100
AcDbEntity
  8
0
  6
Continuous
 62
     7
100
AcDbLine
 10
290.0
 20
50.0
 30
0.0
 11
275.0
 21
35.0
 31
0.0
  0
LINE
  5
CB
330
1F
100
AcDbEntity
  8
0
  6
Continuous
 62
     7
100
AcDbLine
 10
275.0
 20
35.0
 30
0.0
 11
275.0
 21
20.0
 31
0.0
  0
LINE
  5
CC
330
1F
100
AcDbEntity
  8
0
  6
Continuous
 62
     7
100
AcDbLine
 10
265.0
 20
20.0
 30
0.0
 11
265.0
 21
35.0
 31
0.0
  0
LINE
  5
CD
330
1F
100
AcDbEntity
  8
0
  6
Continuous
 62
     7
100
AcDbLine
 10
265.0
 20
35.0
 30
0.0
 11
260.0
 21
40.0
 31
0.0
  0
LINE
  5
CE
330
1F
100
AcDbEntity
  8
0
  6
Continuous
 62
     7
100
AcDbLine
 10
177.175080184
 20
17.824919816
 30
0.0
 11
192.824919816
 21
17.824919816
 31
0.0
  0
LINE
  5
CF
330
1F
100
AcDbEntity
  8
0
  6
Continuous
 62
     7
100
AcDbLine
 10
192.824919816
 20
17.824919816
 30
0.0
 11
215.0
 21
40.0
 31
0.0
  0
LINE
  5
D0
330
1F
100
AcDbEntity
  8
0
  6
Continuous
 62
     7
100
AcDbLine
 10
177.175080184
 20
17.824919816
 30
0.0
 11
155.0
 21
40.0
 31
0.0
  0
LINE
  5
D1
330
1F
100
AcDbEntity
  8
0
  6
Continuous
 62
     7
100
AcDbLine
 10
110.0
 20
40.0
 30
0.0
 11
155.0
 21
40.0
 31
0.0
  0
LINE
  5
D2
330
1F
100
AcDbEntity
  8
0
  6
Continuous
 62
     7
100
AcDbLine
 10
215.0
 20
40.0
 30
0.0
 11
260.0
 21
40.0
 31
0.0
  0
LINE
  5
D3
330
1F
100
AcDbEntity
  8
0
  6
Continuous
 62
     7
100
AcDbLine
 10
65.0
 20
325.0
 30
0.0
 11
63.0
 21
325.0
 31
0.0
  0
LINE
  5
D4
330
1F
100
AcDbEntity
  8
0
  6
Continuous
 62
     7
100
AcDbLine
 10
63.0
 20
325.0
 30
0.0
 11
60.0
 21
322.0
 31
0.0
  0
LINE
  5
D5
330
1F
100
AcDbEntity
  8
0
  6
Continuous
 62
     7
100
AcDbLine
 10
60.0
 20
322.0
 30
0.0
 11
60.0
 21
320.0
 31
0.0
  0
LINE
  5
D6
330
1F
100
AcDbEntity
  8
0
  6
Continuous
 62
     7
100
AcDbLine
 10
60.0
 20
320.0
 30
0.0
 11
60.0
 21
318.0
 31
0.0
  0
LINE
  5
D7
330
1F
100
AcDbEntity
  8
0
  6
Continuous
 62
     7
100
AcDbLine
 10
60.0
 20
318.0
 30
0.0
 11
80.0
 21
298.0
 31
0.0
  0
LINE
  5
D8
330
1F
100
AcDbEntity
  8
0
  6
Continuous
 62
     7
100
AcDbLine
 10
80.0
 20
298.0
 30
0.0
 11
80.0
 21
278.0
 31
0.0
  0
LINE
  5
D9
330
1F
100
AcDbEntity
  8
0
  6
Continuous
 62
     7
100
AcDbLine
 10
80.0
 20
278.0
 30
0.0
 11
70.0
 21
268.0
 31
0.0
  0
LINE
  5
DA
330
1F
100
AcDbEntity
  8
0
  6
Continuous
 62
     7
100
AcDbLine
 10
70.0
 20
162.0
 30
0.0
 11
80.0
 21
152.0
 31
0.0
  0
LINE
  5
DB
330
1F
100
AcDbEntity
  8
0
  6
Continuous
 62
     7
100
AcDbLine
 10
60.0
 20
112.0
 30
0.0
 11
80.0
 21
132.0
 31
0.0
  0
LINE
  5
DC
330
1F
100
AcDbEntity
  8
0
  6
Continuous
 62
     7
100
AcDbLine
 10
80.0
 20
132.0
 30
0.0
 11
80.0
 21
152.0
 31
0.0
  0
LINE
  5
DD
330
1F
100
AcDbEntity
  8
0
  6
Continuous
 62
     7
100
AcDbLine
 10
60.0
 20
112.0
 30
0.0
 11
60.0
 21
108.0
 31
0.0
  0
LINE
  5
DE
330
1F
100
AcDbEntity
  8
0
  6
Continuous
 62
     7
100
AcDbLine
 10
60.0
 20
108.0
 30
0.0
 11
63.0
 21
105.0
 31
0.0
  0
LINE
  5
DF
330
1F
100
AcDbEntity
  8
0
  6
Continuous
 62
     7
100
AcDbLine
 10
63.0
 20
105.0
 30
0.0
 11
65.0
 21
105.0
 31
0.0
  0
LINE
  5
E0
330
1F
100
AcDbEntity
  8
0
  6
Continuous
 62
     7
100
AcDbLine
 10
275.0
 20
105.0
 30
0.0
 11
277.0
 21
105.0
 31
0.0
  0
LINE
  5
E1
330
1F
100
AcDbEntity
  8
0
  6
Continuous
 62
     7
100
AcDbLine
 10
277.0
 20
105.0
 30
0.0
 11
280.0
 21
108.0
 31
0.0
  0
LINE
  5
E2
330
1F
100
AcDbEntity
  8
0
  6
Continuous
 62
     7
100
AcDbLine
 10
280.0
 20
321.0
 30
0.0
 11
280.0
 21
322.0
 31
0.0
  0
LINE
  5
E3
330
1F
100
AcDbEntity
  8
0
  6
Continuous
 62
     7
100
AcDbLine
 10
280.0
 20
322.0
 30
0.0
 11
277.0
 21
325.0
 31
0.0
  0
LINE
  5
E4
330
1F
100
AcDbEntity
  8
0
  6
Continuous
 62
     7
100
AcDbLine
 10
280.0
 20
318.0
 30
0.0
 11
240.0
 21
278.0
 31
0.0
  0
LINE
  5
E5
330
1F
100
AcDbEntity
  8
0
  6
Continuous
 62
     7
100
AcDbLine
 10
270.0
 20
228.0
 30
0.0
 11
260.0
 21
238.0
 31
0.0
  0
LINE
  5
E6
330
1F
100
AcDbEntity
  8
0
  6
Continuous
 62
     7
100
AcDbLine
 10
260.0
 20
238.0
 30
0.0
 11
240.0
 21
258.0
 31
0.0
  0
LINE
  5
E7
330
1F
100
AcDbEntity
  8
0
  6
Continuous
 62
     7
100
AcDbLine
 10
240.0
 20
258.0
 30
0.0
 11
240.0
 21
278.0
 31
0.0
  0
LINE
  5
E8
330
1F
100
AcDbEntity
  8
0
  6
Continuous
 62
     7
100
AcDbLine
 10
270.0
 20
202.0
 30
0.0
 11
260.0
 21
192.0
 31
0.0
  0
LINE
  5
E9
330
1F
100
AcDbEntity
  8
0
  6
Continuous
 62
     7
100
AcDbLine
 10
260.0
 20
192.0
 30
0.0
 11
240.0
 21
172.0
 31
0.0
  0
LINE
  5
EA
330
1F
100
AcDbEntity
  8
0
  6
Continuous
 62
     7
100
AcDbLine
 10
280.0
 20
112.0
 30
0.0
 11
260.0
 21
132.0
 31
0.0
  0
LINE
  5
EB
330
1F
100
AcDbEntity
  8
0
  6
Continuous
 62
     7
100
AcDbLine
 10
260.0
 20
132.0
 30
0.0
 11
240.0
 21
152.0
 31
0.0
  0
LINE
  5
EC
330
1F
100
AcDbEntity
  8
0
  6
Continuous
 62
     7
100
AcDbLine
 10
240.0
 20
152.0
 30
0.0
 11
240.0
 21
172.0
 31
0.0
  0
LINE
  5
ED
330
1F
100
AcDbEntity
  8
0
  6
Continuous
 62
     7
100
AcDbLine
 10
273.0
 20
325.0
 30
0.0
 11
250.0
 21
302.0
 31
0.0
  0
LINE
  5
EE
330
1F
100
AcDbEntity
  8
0
  6
Continuous
 62
     7
100
AcDbLine
 10
161.2165904972
 20
218.9647967222
 30
0.0
 11
161.2165904972
 21
211.0352032778
 31
0.0
  0
LINE
  5
EF
330
1F
100
AcDbEntity
  8
0
  6
Continuous
 62
     7
100
AcDbLine
 10
122.4710568882
 20
279.6004108249
 30
0.0
 11
161.1146998932
 21
244.4357974285
 31
0.0
  0
LINE
  5
F0
330
1F
100
AcDbEntity
  8
0
  6
Continuous
 62
     7
100
AcDbLine
 10
161.1146998932
 20
244.4357974285
 30
0.0
 11
178.9346518508
 21
244.4357974285
 31
0.0
  0
LINE
  5
F1
330
1F
100
AcDbEntity
  8
0
  6
Continuous
 62
     7
100
AcDbLine
 10
273.0
 20
105.0
 30
0.0
 11
248.0
 21
130.0
 31
0.0
  0
LINE
  5
F2
330
1F
100
AcDbEntity
  8
0
  6
Continuous
 62
     7
100
AcDbLine
 10
104.0376194079
 20
234.4980654888
 30
0.0
 11
104.0376194079
 21
195.5019345112
 31
0.0
  0
LINE
  5
F3
330
1F
100
AcDbEntity
  8
0
  6
Continuous
 62
     7
100
AcDbLine
 10
92.0
 20
300.0
 30
0.0
 11
248.0
 21
300.0
 31
0.0
  0
LINE
  5
F4
330
1F
100
AcDbEntity
  8
0
  6
Continuous
 62
     7
100
AcDbLine
 10
92.0
 20
130.0
 30
0.0
 11
248.0
 21
130.0
 31
0.0
  0
LINE
  5
F5
330
1F
100
AcDbEntity
  8
0
  6
Continuous
 62
     7
100
AcDbLine
 10
70.0
 20
230.0
 30
0.0
 11
80.0
 21
220.0
 31
0.0
  0
LINE
  5
F6
330
1F
100
AcDbEntity
  8
0
  6
Continuous
 62
     7
100
AcDbLine
 10
80.0
 20
220.0
 30
0.0
 11
80.0
 21
210.0
 31
0.0
  0
LINE
  5
F7
330
1F
100
AcDbEntity
  8
0
  6
Continuous
 62
     7
100
AcDbLine
 10
80.0
 20
210.0
 30
0.0
 11
70.0
 21
200.0
 31
0.0
  0
LINE
  5
F8
330
1F
100
AcDbEntity
  8
0
  6
Continuous
 62
     7
100
AcDbLine
 10
104.0376194079
 20
234.4980654888
 30
0.0
 11
116.2301535904
 21
247.090525358
 31
0.0
  0
LINE
  5
F9
330
1F
100
AcDbEntity
  8
0
  6
Continuous
 62
     7
100
AcDbLine
 10
116.2301535904
 20
247.090525358
 30
0.0
 11
122.909474642
 21
247.090525358
 31
0.0
  0
LINE
  5
FA
330
1F
100
AcDbEntity
  8
0
  6
Continuous
 62
     7
100
AcDbLine
 10
122.909474642
 20
247.090525358
 30
0.0
 11
160.3713849264
 21
220.5977234892
 31
0.0
  0
LINE
  5
FB
330
1F
100
AcDbEntity
  8
0
  6
Continuous
 62
     7
100
AcDbLine
 10
217.1398771021
 20
247.090525358
 30
0.0
 11
179.6779668177
 21
220.5977234892
 31
0.0
  0
LINE
  5
FC
330
1F
100
AcDbEntity
  8
0
  6
Continuous
 62
     7
100
AcDbLine
 10
223.8191981536
 20
247.090525358
 30
0.0
 11
217.1398771021
 21
247.090525358
 31
0.0
  0
LINE
  5
FD
330
1F
100
AcDbEntity
  8
0
  6
Continuous
 62
     7
100
AcDbLine
 10
236.0117323362
 20
234.4980654888
 30
0.0
 11
223.8191981536
 21
247.090525358
 31
0.0
  0
LINE
  5
FE
330
1F
100
AcDbEntity
  8
0
  6
Continuous
 62
     7
100
AcDbLine
 10
236.0117323362
 20
234.4980654888
 30
0.0
 11
236.0117323362
 21
195.5019345112
 31
0.0
  0
LINE
  5
FF
330
1F
100
AcDbEntity
  8
0
  6
Continuous
 62
     7
100
AcDbLine
 10
236.0117323362
 20
195.5019345112
 30
0.0
 11
223.8191981536
 21
182.909474642
 31
0.0
  0
LINE
  5
100
330
1F
100
AcDbEntity
  8
0
  6
Continuous
 62
     7
100
AcDbLine
 10
223.8191981536
 20
182.909474642
 30
0.0
 11
217.1398771021
 21
182.909474642
 31
0.0
  0
LINE
  5
101
330
1F
100
AcDbEntity
  8
0
  6
Continuous
 62
     7
100
AcDbLine
 10
217.1398771021
 20
182.909474642
 30
0.0
 11
179.6779668177
 21
209.4022765108
 31
0.0
  0
LINE
  5
102
330
1F
100
AcDbEntity
  8
0
  6
Continuous
 62
     7
100
AcDbLine
 10
178.8327612469
 20
218.9647967222
 30
0.0
 11
178.8327612469
 21
211.0352032778
 31
0.0
  0
LINE
  5
103
330
1F
100
AcDbEntity
  8
0
  6
Continuous
 62
     7
100
AcDbLine
 10
122.909474642
 20
182.909474642
 30
0.0
 11
160.3713849264
 21
209.4022765108
 31
0.0
  0
LINE
  5
104
330
1F
100
AcDbEntity
  8
0
  6
Continuous
 62
     7
100
AcDbLine
 10
104.0376194079
 20
195.5019345112
 30
0.0
 11
116.2301535904
 21
182.909474642
 31
0.0
  0
LINE
  5
105
330
1F
100
AcDbEntity
  8
0
  6
Continuous
 62
     7
100
AcDbLine
 10
116.2301535904
 20
182.909474642
 30
0.0
 11
122.909474642
 21
182.909474642
 31
0.0
  0
LINE
  5
106
330
1F
100
AcDbEntity
  8
0
  6
Continuous
 62
     7
100
AcDbLine
 10
123.8171154988
 20
283.0796424554
 30
0.0
 11
216.2322362452
 21
283.0796424554
 31
0.0
  0
LINE
  5
107
330
1F
100
AcDbEntity
  8
0
  6
Continuous
 62
     7
100
AcDbLine
 10
217.5782948558
 20
279.6004108249
 30
0.0
 11
178.9346518508
 21
244.4357974285
 31
0.0
  0
LINE
  5
108
330
1F
100
AcDbEntity
  8
0
  6
Continuous
 62
     7
100
AcDbLine
 10
65.0
 20
325.0
 30
0.0
 11
67.0
 21
325.0
 31
0.0
  0
LINE
  5
109
330
1F
100
AcDbEntity
  8
0
  6
Continuous
 62
     7
100
AcDbLine
 10
277.0
 20
325.0
 30
0.0
 11
273.0
 21
325.0
 31
0.0
  0
LINE
  5
10A
330
1F
100
AcDbEntity
  8
0
  6
Continuous
 62
     7
100
AcDbLine
 10
280.0
 20
321.0
 30
0.0
 11
280.0
 21
318.0
 31
0.0
  0
LINE
  5
10B
330
1F
100
AcDbEntity
  8
0
  6
Continuous
 62
     7
100
AcDbLine
 10
280.0
 20
112.0
 30
0.0
 11
280.0
 21
108.0
 31
0.0
  0
LINE
  5
10C
330
1F
100
AcDbEntity
  8
0
  6
Continuous
 62
     7
100
AcDbLine
 10
273.0
 20
105.0
 30
0.0
 11
275.0
 21
105.0
 31
0.0
  0
LINE
  5
10D
330
1F
100
AcDbEntity
  8
0
  6
Continuous
 62
     7
100
AcDbLine
 10
67.0
 20
105.0
 30
0.0
 11
65.0
 21
105.0
 31
0.0
  0
LINE
  5
10E
330
1F
100
AcDbEntity
  8
0
  6
Continuous
 62
     7
100
AcDbLine
 10
217.5782948558
 20
150.3995891751
 30
0.0
 11
178.9346518508
 21
185.5642025715
 31
0.0
  0
LINE
  5
10F
330
1F
100
AcDbEntity
  8
0
  6
Continuous
 62
     7
100
AcDbLine
 10
250.0
 20
302.0
 30
0.0
 11
248.0
 21
300.0
 31
0.0
  0
LINE
  5
110
330
1F
100
AcDbEntity
  8
0
  6
Continuous
 62
     7
100
AcDbLine
 10
161.1146998932
 20
185.5642025715
 30
0.0
 11
178.9346518508
 21
185.5642025715
 31
0.0
  0
LINE
  5
111
330
1F
100
AcDbEntity
  8
0
  6
Continuous
 62
     7
100
AcDbLine
 10
67.0
 20
325.0
 30
0.0
 11
92.0
 21
300.0
 31
0.0
  0
LINE
  5
112
330
1F
100
AcDbEntity
  8
0
  6
Continuous
 62
     7
100
AcDbLine
 10
122.4710568882
 20
150.3995891751
 30
0.0
 11
161.1146998932
 21
185.5642025715
 31
0.0
  0
LINE
  5
113
330
1F
100
AcDbEntity
  8
0
  6
Continuous
 62
     7
100
AcDbLine
 10
123.8171154988
 20
146.9203575446
 30
0.0
 11
216.2322362452
 21
146.9203575446
 31
0.0
  0
LINE
  5
114
330
1F
100
AcDbEntity
  8
0
  6
Continuous
 62
     7
100
AcDbLine
 10
67.0
 20
105.0
 30
0.0
 11
92.0
 21
130.0
 31
0.0
  0
LINE
  5
115
330
1F
100
AcDbEntity
  8
0
  6
Continuous
 62
     7
100
AcDbLine
 10
70.0
 20
268.0
 30
0.0
 11
70.0
 21
230.0
 31
0.0
  0
LINE
  5
116
330
1F
100
AcDbEntity
  8
0
  6
Continuous
 62
     7
100
AcDbLine
 10
70.0
 20
200.0
 30
0.0
 11
70.0
 21
162.0
 31
0.0
  0
LINE
  5
117
330
1F
100
AcDbEntity
  8
0
  6
Continuous
 62
     7
100
AcDbLine
 10
270.0
 20
228.0
 30
0.0
 11
270.0
 21
202.0
 31
0.0
  0
LINE
  5
118
330
1F
100
AcDbEntity
  8
0
  6
Continuous
 62
     7
100
AcDbLine
 10
343.0
 20
2.0
 30
0.0
 11
339.0
 21
6.0
 31
0.0
  0
LINE
  5
119
330
1F
100
AcDbEntity
  8
0
  6
Continuous
 62
     7
100
AcDbLine
 10
339.0
 20
6.0
 30
0.0
 11
333.0
 21
6.0
 31
0.0
  0
LINE
  5
11A
330
1F
100
AcDbEntity
  8
0
  6
Continuous
 62
     7
100
AcDbLine
 10
333.0
 20
6.0
 30
0.0
 11
329.0
 21
2.0
 31
0.0
  0
LINE
  5
11B
330
1F
100
AcDbEntity
  8
0
  6
Continuous
 62
     7
100
AcDbLine
 10
27.0
 20
2.0
 30
0.0
 11
31.0
 21
6.0
 31
0.0
  0
LINE
  5
11C
330
1F
100
AcDbEntity
  8
0
  6
Continuous
 62
     7
100
AcDbLine
 10
31.0
 20
6.0
 30
0.0
 11
37.0
 21
6.0
 31
0.0
  0
LINE
  5
11D
330
1F
100
AcDbEntity
  8
0
  6
Continuous
 62
     7
100
AcDbLine
 10
37.0
 20
6.0
 30
0.0
 11
41.0
 21
2.0
 31
0.0
  0
LINE
  5
11E
330
1F
100
AcDbEntity
  8
0
  6
Continuous
 62
     7
100
AcDbLine
 10
80.0
 20
169.0
 30
0.0
 11
80.0
 21
192.0
 31
0.0
  0
LINE
  5
11F
330
1F
100
AcDbEntity
  8
0
  6
Continuous
 62
     7
100
AcDbLine
 10
84.0
 20
196.0
 30
0.0
 11
86.0
 21
196.0
 31
0.0
  0
LINE
  5
120
330
1F
100
AcDbEntity
  8
0
  6
Continuous
 62
     7
100
AcDbLine
 10
90.0
 20
192.0
 30
0.0
 11
90.0
 21
169.0
 31
0.0
  0
LINE
  5
121
330
1F
100
AcDbEntity
  8
0
  6
Continuous
 62
     7
100
AcDbLine
 10
86.0
 20
165.0
 30
0.0
 11
84.0
 21
165.0
 31
0.0
  0
LINE
  5
122
330
1F
100
AcDbEntity
  8
0
  6
Continuous
 62
     7
100
AcDbLine
 10
80.0
 20
239.007036896
 30
0.0
 11
80.0
 21
262.007036896
 31
0.0
  0
LINE
  5
123
330
1F
100
AcDbEntity
  8
0
  6
Continuous
 62
     7
100
AcDbLine
 10
84.0
 20
266.007036896
 30
0.0
 11
86.0
 21
266.007036896
 31
0.0
  0
LINE
  5
124
330
1F
100
AcDbEntity
  8
0
  6
Continuous
 62
     7
100
AcDbLine
 10
90.0
 20
262.007036896
 30
0.0
 11
90.0
 21
239.007036896
 31
0.0
  0
LINE
  5
125
330
1F
100
AcDbEntity
  8
0
  6
Continuous
 62
     7
100
AcDbLine
 10
86.0
 20
235.007036896
 30
0.0
 11
84.0
 21
235.007036896
 31
0.0
  0
LINE
  5
126
330
1F
100
AcDbEntity
  8
0
  6
Continuous
 62
     7
100
AcDbLine
 10
250.0
 20
202.8628763929
 30
0.0
 11
250.0
 21
225.8628763929
 31
0.0
  0
LINE
  5
127
330
1F
100
AcDbEntity
  8
0
  6
Continuous
 62
     7
100
AcDbLine
 10
254.0
 20
229.8628763929
 30
0.0
 11
256.0
 21
229.8628763929
 31
0.0
  0
LINE
  5
128
330
1F
100
AcDbEntity
  8
0
  6
Continuous
 62
     7
100
AcDbLine
 10
260.0
 20
225.8628763929
 30
0.0
 11
260.0
 21
202.8628763929
 31
0.0
  0
LINE
  5
129
330
1F
100
AcDbEntity
  8
0
  6
Continuous
 62
     7
100
AcDbLine
 10
256.0
 20
198.8628763929
 30
0.0
 11
254.0
 21
198.8628763929
 31
0.0
  0
LINE
  5
12A
330
1F
100
AcDbEntity
  8
0
  6
Continuous
 62
     7
100
AcDbLine
 10
25.0
 20
0.0
 30
0.0
 11
5.0
 21
0.0
 31
0.0
  0
LINE
  5
12D
330
1F
100
AcDbEntity
  8
0
  6
Continuous
 62
     7
100
AcDbLine
 10
121.731441073
 20
280.2734401302
 30
0.0
 11
117.9079898225
 21
283.7526717607
 31
0.0
  0
LINE
  5
12E
330
1F
100
AcDbEntity
  8
0
  6
Continuous
 62
     7
100
AcDbLine
 10
122.8171154988
 20
283.0796424554
 30
0.0
 11
117.6476056378
 21
283.0796424554
 31
0.0
  0
LINE
  5
12F
330
1F
100
AcDbEntity
  8
0
  6
Continuous
 62
     7
100
AcDbLine
 10
122.8171154988
 20
146.9203575446
 30
0.0
 11
117.6476056378
 21
146.9203575446
 31
0.0
  0
LINE
  5
130
330
1F
100
AcDbEntity
  8
0
  6
Continuous
 62
     7
100
AcDbLine
 10
121.731441073
 20
149.7265598698
 30
0.0
 11
117.9079898225
 21
146.2473282393
 31
0.0
  0
LINE
  5
131
330
1F
100
AcDbEntity
  8
0
  6
Continuous
 62
     7
100
AcDbLine
 10
218.3179106711
 20
280.2734401302
 30
0.0
 11
222.1413619216
 21
283.7526717607
 31
0.0
  0
LINE
  5
132
330
1F
100
AcDbEntity
  8
0
  6
Continuous
 62
     7
100
AcDbLine
 10
217.2322362452
 20
283.0796424554
 30
0.0
 11
222.4017461063
 21
283.0796424554
 31
0.0
  0
LINE
  5
133
330
1F
100
AcDbEntity
  8
0
  6
Continuous
 62
     7
100
AcDbLine
 10
217.2322362452
 20
146.9203575446
 30
0.0
 11
222.4017461063
 21
146.9203575446
 31
0.0
  0
LINE
  5
134
330
1F
100
AcDbEntity
  8
0
  6
Continuous
 62
     7
100
AcDbLine
 10
218.3179106711
 20
149.7265598698
 30
0.0
 11
222.1413619216
 21
146.2473282393
 31
0.0
  0
LINE
  5
135
330
1F
100
AcDbEntity
  8
0
  6
Continuous
 62
     7
100
AcDbLine
 10
178.8327612469
 20
219.9647967222
 30
0.0
 11
178.8327612469
 21
221.0
 31
0.0
  0
LINE
  5
136
330
1F
100
AcDbEntity
  8
0
  6
Continuous
 62
     7
100
AcDbLine
 10
178.8615034342
 20
220.0203262746
 30
0.0
 11
178.0162978634
 21
219.4226027854
 31
0.0
  0
LINE
  5
137
330
1F
100
AcDbEntity
  8
0
  6
Continuous
 62
     7
100
AcDbLine
 10
178.8327612469
 20
210.0352032778
 30
0.0
 11
178.8327612469
 21
209.0
 31
0.0
  0
LINE
  5
138
330
1F
100
AcDbEntity
  8
0
  6
Continuous
 62
     7
100
AcDbLine
 10
178.8615034342
 20
209.9796737254
 30
0.0
 11
178.0162978634
 21
210.5773972146
 31
0.0
  0
LINE
  5
139
330
1F
100
AcDbEntity
  8
0
  6
Continuous
 62
     7
100
AcDbLine
 10
161.2165904972
 20
219.9647967222
 30
0.0
 11
161.2165904972
 21
221.0
 31
0.0
  0
LINE
  5
13A
330
1F
100
AcDbEntity
  8
0
  6
Continuous
 62
     7
100
AcDbLine
 10
161.1878483099
 20
220.0203262746
 30
0.0
 11
162.0330538807
 21
219.4226027854
 31
0.0
  0
LINE
  5
13B
330
1F
100
AcDbEntity
  8
0
  6
Continuous
 62
     7
100
AcDbLine
 10
161.1878483099
 20
209.9796737254
 30
0.0
 11
162.0330538807
 21
210.5773972146
 31
0.0
  0
LINE
  5
13C
330
1F
100
AcDbEntity
  8
0
  6
Continuous
 62
     7
100
AcDbLine
 10
161.2165904972
 20
210.0352032778
 30
0.0
 11
161.2165904972
 21
209.0
 31
0.0
  0
LWPOLYLINE
  5
13D
330
1F
100
AcDbEntity
  8
0
  6
Continuous
 62
     7
100
AcDbPolyline
 90
       62
 70
   128
 43
0.0
 10
62.820494175
 20
360.8734170481
 10
67.1350160256
 20
360.8734170481
 10
67.1350160256
 20
360.8734170481
 10
68.0252403846
 20
360.8690099968
 10
68.8405448718
 20
360.8513817917
 10
69.5809294872
 20
360.824939484
 10
70.2463942308
 20
360.7896830738
 10
70.8325320513
 20
360.7456125609
 10
71.3481570513
 20
360.6883208943
 10
71.7844551282
 20
360.622215125
 10
72.1458333333
 20
360.542888202
 10
72.1458333333
 20
360.542888202
 10
72.5997596154
 20
360.4106766635
 10
73.031650641
 20
360.2476157661
 10
73.4415064103
 20
360.0537055097
 10
73.8337339744
 20
359.8289458943
 10
74.1995192308
 20
359.5733369199
 10
74.5476762821
 20
359.2868785866
 10
74.8737980769
 20
358.9695708943
 10
75.1778846154
 20
358.621413843
 10
75.4555288462
 20
358.246814484
 10
75.6935096154
 20
357.8501798686
 10
75.8962339744
 20
357.4271029456
 10
76.0637019231
 20
356.9863978174
 10
76.1915064103
 20
356.5148433302
 10
76.2840544872
 20
356.0256606379
 10
76.3413461538
 20
355.5100356379
 10
76.358974359
 20
354.9723753815
 10
76.358974359
 20
354.9723753815
 10
76.3413461538
 20
354.4303080738
 10
76.2840544872
 20
353.9146830738
 10
76.1959134615
 20
353.4210933302
 10
76.0681089744
 20
352.9539458943
 10
75.9006410256
 20
352.5088337148
 10
75.7023237179
 20
352.090163843
 10
75.4643429487
 20
351.6935292276
 10
75.1911057692
 20
351.3233369199
 10
74.8870192308
 20
350.9795869199
 10
74.5520833333
 20
350.6622792276
 10
74.1907051282
 20
350.3758208943
 10
73.8028846154
 20
350.1202119199
 10
73.3842147436
 20
349.8954523045
 10
72.9391025641
 20
349.6971349968
 10
72.4675480769
 20
349.5296670481
 10
71.9695512821
 20
349.3886414071
 10
71.9695512821
 20
349.3886414071
 10
71.5552884615
 20
349.3049074327
 10
71.0572916667
 20
349.2299875609
 10
70.4799679487
 20
349.168288843
 10
69.8189102564
 20
349.1198112789
 10
69.078525641
 20
349.0801478174
 10
68.2588141026
 20
349.0492984584
 10
67.3553685897
 20
349.0316702532
 10
66.3681891026
 20
349.027263202
 10
66.3681891026
 20
349.027263202
 10
64.7948717949
 20
349.027263202
 10
64.7948717949
 20
349.027263202
 10
64.7948717949
 20
338.8734170481
 10
64.7948717949
 20
338.8734170481
 10
62.8205128205
 20
338.8734170481
 10
62.8205128205
 20
338.8734170481
 10
62.8205128205
 20
360.8734170481
  0
LWPOLYLINE
  5
13E
330
1F
100
AcDbEntity
  8
0
  6
Continuous
 62
     7
100
AcDbPolyline
 90
       40
 70
   128
 43
0.0
 10
64.7948384285
 20
358.6170067917
 10
64.7948717949
 20
351.2836734584
 10
64.7948717949
 20
351.2836734584
 10
68.6466346154
 20
351.2351958943
 10
68.6466346154
 20
351.2351958943
 10
69.2107371795
 20
351.2396029456
 10
69.7351762821
 20
351.261638202
 10
70.2199519231
 20
351.2924875609
 10
70.6694711538
 20
351.3365580738
 10
71.0749198718
 20
351.3938497404
 10
71.4451121795
 20
351.4599555097
 10
71.7712339744
 20
351.543689484
 10
72.062099359
 20
351.6362375609
 10
72.5733173077
 20
351.8698112789
 10
73.031650641
 20
352.1650837148
 10
73.4238782051
 20
352.5264619199
 10
73.7632211538
 20
352.9451317917
 10
74.0364583333
 20
353.4122792276
 10
74.2303685897
 20
353.9014619199
 10
74.3449519231
 20
354.4214939712
 10
74.3846153846
 20
354.9635612789
 10
74.3846153846
 20
354.9635612789
 10
74.3449519231
 20
355.4924074327
 10
74.2303685897
 20
356.0036253815
 10
74.0364583333
 20
356.4884010225
 10
73.7632211538
 20
356.9511414071
 10
73.4282852564
 20
357.3698112789
 10
73.0492788462
 20
357.7223753815
 10
72.6129807692
 20
358.0132407661
 10
72.1326121795
 20
358.2335933302
 10
71.859375
 20
358.3217343558
 10
71.546474359
 20
358.4010612789
 10
71.1895032051
 20
358.4671670481
 10
70.797275641
 20
358.5200516635
 10
70.3609775641
 20
358.5641221763
 10
69.8894230769
 20
358.5949715353
 10
69.3737980769
 20
358.6125997404
 10
68.8185096154
 20
358.6170067917
 10
68.8185096154
 20
358.6170067917
 10
64.7948717949
 20
358.6170067917
  0
LWPOLYLINE
  5
13F
330
1F
100
AcDbEntity
  8
0
  6
Continuous
 62
     7
100
AcDbPolyline
 90
       59
 70
   128
 43
0.0
 10
80.8717608452
 20
360.8734170481
 10
85.2744391026
 20
360.8734170481
 10
85.2744391026
 20
360.8734170481
 10
86.155849359
 20
360.8690099968
 10
86.9667467949
 20
360.855788843
 10
87.6983173077
 20
360.8293465353
 10
88.359375
 20
360.7984971763
 10
88.9455128205
 20
360.7544266635
 10
89.4567307692
 20
360.7059490994
 10
89.8974358974
 20
360.6442503815
 10
90.2588141026
 20
360.5737375609
 10
90.2588141026
 20
360.5737375609
 10
90.7391826923
 20
360.4459330738
 10
91.1975160256
 20
360.2828721763
 10
91.6338141026
 20
360.0889619199
 10
92.0436698718
 20
359.8642023045
 10
92.4314903846
 20
359.6041862789
 10
92.797275641
 20
359.3133208943
 10
93.141025641
 20
358.9916061507
 10
93.4583333333
 20
358.6346349968
 10
93.7491987179
 20
358.2556285866
 10
94.000400641
 20
357.8501798686
 10
94.2119391026
 20
357.4271029456
 10
94.3838141026
 20
356.9819907661
 10
94.5204326923
 20
356.5148433302
 10
94.6173878205
 20
356.0300676891
 10
94.6746794872
 20
355.5188497404
 10
94.6923076923
 20
354.9900035866
 10
94.6923076923
 20
354.9900035866
 10
94.6394230769
 20
354.1130003815
 10
94.4763621795
 20
353.293288843
 10
94.203125
 20
352.5264619199
 10
93.8241185897
 20
351.8125196122
 10
93.34375
 20
351.169090125
 10
92.7708333333
 20
350.6093946122
 10
92.1009615385
 20
350.1334330738
 10
91.3429487179
 20
349.7412055097
 10
90.9198717949
 20
349.5781446122
 10
90.4615384615
 20
349.4327119199
 10
89.9635416667
 20
349.3137215353
 10
89.4258814103
 20
349.2123593558
 10
88.8485576923
 20
349.1330324327
 10
88.2359775641
 20
349.0757407661
 10
87.5837339744
 20
349.0404843558
 10
86.8918269231
 20
349.027263202
 10
86.8918269231
 20
349.027263202
 10
94.9743589744
 20
338.8734170481
 10
94.9743589744
 20
338.8734170481
 10
92.5328525641
 20
338.8734170481
 10
92.5328525641
 20
338.8734170481
 10
84.4503205128
 20
349.027263202
 10
84.4503205128
 20
349.027263202
 10
82.8461538462
 20
349.027263202
 10
82.8461538462
 20
349.027263202
 10
82.8461538462
 20
338.8734170481
 10
82.8461538462
 20
338.8734170481
 10
80.8717948718
 20
338.8734170481
 10
80.8717948718
 20
338.8734170481
 10
80.8717948718
 20
360.8734170481
  0
LWPOLYLINE
  5
140
330
1F
100
AcDbEntity
  8
0
  6
Continuous
 62
     7
100
AcDbPolyline
 90
       40
 70
   128
 43
0.0
 10
82.8461050987
 20
358.6170067917
 10
82.8461538462
 20
351.2836734584
 10
82.8461538462
 20
351.2836734584
 10
86.8741987179
 20
351.2528240994
 10
86.8741987179
 20
351.2528240994
 10
87.4383012821
 20
351.2572311507
 10
87.9671474359
 20
351.2792664071
 10
88.4563301282
 20
351.3101157661
 10
88.9102564103
 20
351.3541862789
 10
89.3245192308
 20
351.4114779456
 10
89.6991185897
 20
351.4819907661
 10
90.0384615385
 20
351.5657247404
 10
90.3381410256
 20
351.6626798686
 10
90.8669871795
 20
351.9006606379
 10
91.3385416667
 20
352.1959330738
 10
91.7439903846
 20
352.5573112789
 10
92.0877403846
 20
352.9759811507
 10
92.3653846154
 20
353.4431285866
 10
92.5592948718
 20
353.9323112789
 10
92.6782852564
 20
354.4523433302
 10
92.7179487179
 20
354.9944106379
 10
92.7179487179
 20
354.9944106379
 10
92.6782852564
 20
355.5232567917
 10
92.5592948718
 20
356.0300676891
 10
92.3565705128
 20
356.5104362789
 10
92.0789262821
 20
356.9643625609
 10
91.7351762821
 20
357.3786253815
 10
91.3429487179
 20
357.7267824327
 10
90.9022435897
 20
358.0132407661
 10
90.4086538462
 20
358.2335933302
 10
90.1266025641
 20
358.3217343558
 10
89.8048878205
 20
358.4010612789
 10
89.4391025641
 20
358.4671670481
 10
89.0336538462
 20
358.5200516635
 10
88.5797275641
 20
358.5641221763
 10
88.0861378205
 20
358.5949715353
 10
87.5484775641
 20
358.6125997404
 10
86.9711538462
 20
358.6170067917
 10
86.9711538462
 20
358.6170067917
 10
82.8461538462
 20
358.6170067917
  0
LWPOLYLINE
  5
141
330
1F
100
AcDbEntity
  8
0
  6
Continuous
 62
     7
100
AcDbPolyline
 90
      107
 70
   128
 43
0.0
 10
99.4871258736
 20
360.8734170481
 10
101.4615384615
 20
360.8734170481
 10
101.4615384615
 20
360.8734170481
 10
101.4615384615
 20
347.6919266635
 10
101.4615384615
 20
347.6919266635
 10
101.4615384615
 20
347.1322311507
 10
101.4659455128
 20
346.6298273045
 10
101.4747596154
 20
346.1803080738
 10
101.4835737179
 20
345.7880805097
 10
101.4967948718
 20
345.4487375609
 10
101.5100160256
 20
345.1666862789
 10
101.5276442308
 20
344.9375196122
 10
101.5496794872
 20
344.7656446122
 10
101.5496794872
 20
344.7656446122
 10
101.6598557692
 20
344.1486574327
 10
101.8229166667
 20
343.5801478174
 10
102.0432692308
 20
343.0689298686
 10
102.312099359
 20
342.606189484
 10
102.6514423077
 20
342.1919266635
 10
103.0701121795
 20
341.808513202
 10
103.5725160256
 20
341.464763202
 10
104.1498397436
 20
341.1518625609
 10
104.7712339744
 20
340.8962535866
 10
105.3926282051
 20
340.7111574327
 10
106.0184294872
 20
340.6009811507
 10
106.6442307692
 20
340.5657247404
 10
106.6442307692
 20
340.5657247404
 10
107.1818910256
 20
340.5965740994
 10
107.7107371795
 20
340.6803080738
 10
108.2263621795
 20
340.8257407661
 10
108.7331730769
 20
341.0240580738
 10
109.2135416667
 20
341.2796670481
 10
109.6498397436
 20
341.574939484
 10
110.046474359
 20
341.918689484
 10
110.4034455128
 20
342.3021029456
 10
110.7163461538
 20
342.7295869199
 10
110.9895833333
 20
343.2055484584
 10
111.2099358974
 20
343.7167664071
 10
111.390625
 20
344.2764619199
 10
111.390625
 20
344.2764619199
 10
111.4435096154
 20
344.5100356379
 10
111.4875801282
 20
344.8009010225
 10
111.5272435897
 20
345.1490580738
 10
111.5580929487
 20
345.5456926891
 10
111.5845352564
 20
345.9996189712
 10
111.6021634615
 20
346.5108369199
 10
111.6109775641
 20
347.074939484
 10
111.6153846154
 20
347.6919266635
 10
111.6153846154
 20
347.6919266635
 10
111.6153846154
 20
360.8734170481
 10
111.6153846154
 20
360.8734170481
 10
113.5897435897
 20
360.8734170481
 10
113.5897435897
 20
360.8734170481
 10
113.5897435897
 20
347.5861574327
 10
113.5897435897
 20
347.5861574327
 10
113.5809294872
 20
346.8678080738
 10
113.5544871795
 20
346.184715125
 10
113.5104166667
 20
345.5324715353
 10
113.4487179487
 20
344.9198914071
 10
113.3693910256
 20
344.3425676891
 10
113.2768429487
 20
343.8005003815
 10
113.1622596154
 20
343.2892824327
 10
113.0300480769
 20
342.8177279456
 10
112.8758012821
 20
342.3726157661
 10
112.6818910256
 20
341.9407247404
 10
112.4571314103
 20
341.5220548686
 10
112.1971153846
 20
341.121013202
 10
111.8974358974
 20
340.7287856379
 10
111.5669070513
 20
340.3585933302
 10
111.2011217949
 20
339.997215125
 10
110.8000801282
 20
339.653465125
 10
110.3725961538
 20
339.340564484
 10
109.9230769231
 20
339.0673273045
 10
109.4471153846
 20
338.8337535866
 10
108.953525641
 20
338.6442503815
 10
108.437900641
 20
338.4988176891
 10
107.9002403846
 20
338.3930484584
 10
107.3361378205
 20
338.3313497404
 10
106.7544070513
 20
338.309314484
 10
106.7544070513
 20
338.309314484
 10
106.1197916667
 20
338.3313497404
 10
105.5116185897
 20
338.3886414071
 10
104.9254807692
 20
338.4900035866
 10
104.3613782051
 20
338.6266221763
 10
103.8193108974
 20
338.8073112789
 10
103.3036858974
 20
339.0232567917
 10
102.8100961538
 20
339.2832728174
 10
102.3385416667
 20
339.5785452532
 10
101.8978365385
 20
339.9090740994
 10
101.4967948718
 20
340.2660452532
 10
101.1310096154
 20
340.6494587148
 10
100.8048878205
 20
341.059314484
 10
100.5184294872
 20
341.4912055097
 10
100.2672275641
 20
341.9539458943
 10
100.0556891026
 20
342.4387215353
 10
99.8794070513
 20
342.949939484
 10
99.8794070513
 20
342.949939484
 10
99.7868589744
 20
343.3025035866
 10
99.7075320513
 20
343.7211734584
 10
99.6414262821
 20
344.2059490994
 10
99.5841346154
 20
344.7524234584
 10
99.5444711538
 20
345.3650035866
 10
99.5136217949
 20
346.0392824327
 10
99.4915865385
 20
346.7796670481
 10
99.4871794872
 20
347.5861574327
 10
99.4871794872
 20
347.5861574327
 10
99.4871794872
 20
360.8734170481
  0
LWPOLYLINE
  5
142
330
1F
100
AcDbEntity
  8
0
  6
Continuous
 62
     7
100
AcDbPolyline
 90
      171
 70
   128
 43
0.0
 10
116.9743537903
 20
343.1174074327
 10
118.8341346154
 20
344.2323914071
 10
118.8341346154
 20
344.2323914071
 10
119.3673878205
 20
343.3730164071
 10
119.9182692308
 20
342.6282247404
 10
120.4911858974
 20
341.9980164071
 10
121.0861378205
 20
341.4823914071
 10
121.6987179487
 20
341.0813497404
 10
122.3333333333
 20
340.7948914071
 10
122.9899839744
 20
340.6230164071
 10
123.6642628205
 20
340.5657247404
 10
123.6642628205
 20
340.5657247404
 10
124.2415865385
 20
340.5965740994
 10
124.8012820513
 20
340.6935292276
 10
125.343349359
 20
340.8521830738
 10
125.8677884615
 20
341.0769426891
 10
126.3525641026
 20
341.3545869199
 10
126.7756410256
 20
341.6807087148
 10
127.1370192308
 20
342.0464939712
 10
127.4366987179
 20
342.4563497404
 10
127.6702724359
 20
342.8970548686
 10
127.8421474359
 20
343.3509811507
 10
127.9391025641
 20
343.8137215353
 10
127.9743589744
 20
344.294090125
 10
127.9743589744
 20
344.294090125
 10
127.9258814103
 20
344.840564484
 10
127.7760416667
 20
345.387038843
 10
127.5292467949
 20
345.9202920481
 10
127.1854967949
 20
346.4535452532
 10
127.1854967949
 20
346.4535452532
 10
126.8858173077
 20
346.8281446122
 10
126.5332532051
 20
347.2203721763
 10
126.1189903846
 20
347.6302279456
 10
125.6518429487
 20
348.0621189712
 10
125.1274038462
 20
348.5072311507
 10
124.5500801282
 20
348.9743785866
 10
123.9110576923
 20
349.4591542276
 10
123.219150641
 20
349.9615580738
 10
123.219150641
 20
349.9615580738
 10
122.5272435897
 20
350.4595548686
 10
121.905849359
 20
350.9267023045
 10
121.3549679487
 20
351.3541862789
 10
120.8701923077
 20
351.746413843
 10
120.4515224359
 20
352.1033849968
 10
120.1033653846
 20
352.4206926891
 10
119.8257211538
 20
352.7071510225
 10
119.6141826923
 20
352.9539458943
 10
119.6141826923
 20
352.9539458943
 10
119.327724359
 20
353.3461734584
 10
119.0765224359
 20
353.7428080738
 10
118.8649839744
 20
354.1482567917
 10
118.6931089744
 20
354.5669266635
 10
118.5564903846
 20
354.9855965353
 10
118.4595352564
 20
355.4174875609
 10
118.4022435897
 20
355.8581926891
 10
118.3846153846
 20
356.3033048686
 10
118.3846153846
 20
356.3033048686
 10
118.4286858974
 20
356.9996189712
 10
118.5608974359
 20
357.6694907661
 10
118.7768429487
 20
358.3041061507
 10
119.0809294872
 20
358.9078721763
 10
119.46875
 20
359.4631606379
 10
119.9226762821
 20
359.9611574327
 10
120.4515224359
 20
360.3886414071
 10
121.046474359
 20
360.7588337148
 10
121.6943108974
 20
361.0541061507
 10
122.3729967949
 20
361.2700516635
 10
123.0737179487
 20
361.3934490994
 10
123.8052884615
 20
361.4375196122
 10
123.8052884615
 20
361.4375196122
 10
124.5809294872
 20
361.3890420481
 10
125.3345352564
 20
361.2392023045
 10
126.0572916667
 20
360.9880003815
 10
126.7580128205
 20
360.6398433302
 10
127.1061698718
 20
360.4194907661
 10
127.4543269231
 20
360.1594747404
 10
127.8112980769
 20
359.855388202
 10
128.1726762821
 20
359.511638202
 10
128.5384615385
 20
359.1238176891
 10
128.9086538462
 20
358.6963337148
 10
129.2876602564
 20
358.2247792276
 10
129.6666666667
 20
357.7135612789
 10
129.6666666667
 20
357.7135612789
 10
127.8818108974
 20
356.3605965353
 10
127.8818108974
 20
356.3605965353
 10
127.5556891026
 20
356.7748593558
 10
127.2427884615
 20
357.1494587148
 10
126.9431089744
 20
357.4888016635
 10
126.6522435897
 20
357.7884811507
 10
126.3790064103
 20
358.0529042276
 10
126.1145833333
 20
358.2820708943
 10
125.858974359
 20
358.4759811507
 10
125.6209935897
 20
358.6302279456
 10
125.1450320513
 20
358.8726157661
 10
124.6470352564
 20
359.0444907661
 10
124.1270032051
 20
359.1458529456
 10
123.5849358974
 20
359.1811093558
 10
123.5849358974
 20
359.1811093558
 10
122.90625
 20
359.1326317917
 10
122.2936698718
 20
358.9783849968
 10
121.7471955128
 20
358.7271830738
 10
121.2624198718
 20
358.3746189712
 10
120.8657852564
 20
357.9515420481
 10
120.5837339744
 20
357.4799875609
 10
120.4162660256
 20
356.9599555097
 10
120.358974359
 20
356.3958529456
 10
120.358974359
 20
356.3958529456
 10
120.3766025641
 20
356.043288843
 10
120.4383012821
 20
355.6951317917
 10
120.530849359
 20
355.3513817917
 10
120.6674679487
 20
355.012038843
 10
120.8569711538
 20
354.668288843
 10
121.1081730769
 20
354.3113176891
 10
121.4254807692
 20
353.9411253815
 10
121.8088942308
 20
353.5533048686
 10
121.8088942308
 20
353.5533048686
 10
121.9543269231
 20
353.4255003815
 10
122.1614583333
 20
353.2580324327
 10
122.4346955128
 20
353.0509010225
 10
122.7740384615
 20
352.7952920481
 10
123.1750801282
 20
352.5000196122
 10
123.6422275641
 20
352.1650837148
 10
124.1710737179
 20
351.7860773045
 10
124.766025641
 20
351.3630003815
 10
124.766025641
 20
351.3630003815
 10
125.4799679487
 20
350.8385612789
 10
126.1366185897
 20
350.3317503815
 10
126.7315705128
 20
349.8381606379
 10
127.2692307692
 20
349.3577920481
 10
127.749599359
 20
348.8950516635
 10
128.1726762821
 20
348.4455324327
 10
128.5384615385
 20
348.0092343558
 10
128.8425480769
 20
347.5861574327
 10
129.3273237179
 20
346.7576317917
 10
129.6710737179
 20
345.9291061507
 10
129.8782051282
 20
345.0961734584
 10
129.9487179487
 20
344.2632407661
 10
129.9487179487
 20
344.2632407661
 10
129.922275641
 20
343.6726958943
 10
129.8341346154
 20
343.0997792276
 10
129.6931089744
 20
342.5488978174
 10
129.4903846154
 20
342.0156446122
 10
129.234775641
 20
341.5000196122
 10
128.9174679487
 20
341.0064298686
 10
128.547275641
 20
340.5348753815
 10
128.1153846154
 20
340.0809490994
 10
127.6438301282
 20
339.6666862789
 10
127.1502403846
 20
339.3053080738
 10
126.6302083333
 20
339.0012215353
 10
126.0881410256
 20
338.7544266635
 10
125.5196314103
 20
338.5605164071
 10
124.9246794872
 20
338.4194907661
 10
124.3076923077
 20
338.3357567917
 10
123.6642628205
 20
338.309314484
 10
123.6642628205
 20
338.309314484
 10
123.1662660256
 20
338.3269426891
 10
122.6770833333
 20
338.3798273045
 10
122.2011217949
 20
338.4635612789
 10
121.7383814103
 20
338.5869587148
 10
121.2888621795
 20
338.7412055097
 10
120.8481570513
 20
338.9307087148
 10
120.4206730769
 20
339.1554683302
 10
120.0020032051
 20
339.4154843558
 10
119.5965544872
 20
339.715163843
 10
119.1999198718
 20
340.0633208943
 10
118.8076923077
 20
340.4555484584
 10
118.4242788462
 20
340.8962535866
 10
118.0496794872
 20
341.3810292276
 10
117.6838942308
 20
341.9142824327
 10
117.3269230769
 20
342.4916061507
 10
116.9743589744
 20
343.1174074327
  0
LWPOLYLINE
  5
143
330
1F
100
AcDbEntity
  8
0
  6
Continuous
 62
     7
100
AcDbPolyline
 90
       16
 70
   128
 43
0.0
 10
143.4870958328
 20
360.8734170481
 10
153.641025641
 20
338.8734170481
 10
153.641025641
 20
338.8734170481
 10
151.4947916667
 20
338.8734170481
 10
151.4947916667
 20
338.8734170481
 10
148.2423878205
 20
345.9246990994
 10
148.2423878205
 20
345.9246990994
 10
138.2692307692
 20
345.9246990994
 10
138.2692307692
 20
345.9246990994
 10
134.9242788462
 20
338.8734170481
 10
134.9242788462
 20
338.8734170481
 10
132.7692307692
 20
338.8734170481
 10
132.7692307692
 20
338.8734170481
 10
143.2051282051
 20
360.8734170481
 10
143.2051282051
 20
360.8734170481
 10
143.4871794872
 20
360.8734170481
  0
LWPOLYLINE
  5
144
330
1F
100
AcDbEntity
  8
0
  6
Continuous
 62
     7
100
AcDbPolyline
 90
        6
 70
   128
 43
0.0
 10
143.3240175247
 20
356.5853561507
 10
139.3401442308
 20
348.1811093558
 10
139.3401442308
 20
348.1811093558
 10
147.2023237179
 20
348.1811093558
 10
147.2023237179
 20
348.1811093558
 10
143.3241185897
 20
356.5853561507
  0
LWPOLYLINE
  5
145
330
1F
100
AcDbEntity
  8
0
  6
Continuous
 62
     7
100
AcDbPolyline
 90
       36
 70
   128
 43
0.0
 10
166.1834716797
 20
361.7195708943
 10
166.5492788462
 20
361.6887215353
 10
166.8886217949
 20
361.5961734584
 10
167.2015224359
 20
361.4375196122
 10
167.4835737179
 20
361.2215740994
 10
167.7215544872
 20
360.9615580738
 10
167.8890224359
 20
360.6706926891
 10
167.9903846154
 20
360.3577920481
 10
168.0256410256
 20
360.0184490994
 10
168.0256410256
 20
360.0184490994
 10
167.9903846154
 20
359.6879202532
 10
167.8890224359
 20
359.3794266635
 10
167.7215544872
 20
359.0929683302
 10
167.4835737179
 20
358.8329523045
 10
167.2015224359
 20
358.6170067917
 10
166.8886217949
 20
358.4583529456
 10
166.5492788462
 20
358.3658048686
 10
166.1834935897
 20
358.3349555097
 10
166.1834935897
 20
358.3349555097
 10
165.8221153846
 20
358.3658048686
 10
165.4915865385
 20
358.4583529456
 10
165.1786858974
 20
358.6170067917
 10
164.8966346154
 20
358.8329523045
 10
164.6630608974
 20
359.0929683302
 10
164.4955929487
 20
359.3794266635
 10
164.3942307692
 20
359.6879202532
 10
164.358974359
 20
360.0184490994
 10
164.358974359
 20
360.0184490994
 10
164.3942307692
 20
360.3577920481
 10
164.4955929487
 20
360.6706926891
 10
164.6630608974
 20
360.9615580738
 10
164.8966346154
 20
361.2215740994
 10
165.1786858974
 20
361.4375196122
 10
165.4915865385
 20
361.5961734584
 10
165.8221153846
 20
361.6887215353
 10
166.1834935897
 20
361.7195708943
  0
LWPOLYLINE
  5
146
330
1F
100
AcDbEntity
  8
0
  6
Continuous
 62
     7
100
AcDbPolyline
 90
        8
 70
   128
 43
0.0
 10
165.2051210403
 20
354.950340125
 10
167.1794871795
 20
354.950340125
 10
167.1794871795
 20
354.950340125
 10
167.1794871795
 20
338.8734170481
 10
167.1794871795
 20
338.8734170481
 10
165.2051282051
 20
338.8734170481
 10
165.2051282051
 20
338.8734170481
 10
165.2051282051
 20
354.950340125
  0
LWPOLYLINE
  5
147
330
1F
100
AcDbEntity
  8
0
  6
Continuous
 62
     7
100
AcDbPolyline
 90
      184
 70
   128
 43
0.0
 10
173.3845472336
 20
355.7964939712
 10
171.4102564103
 20
355.7964939712
 10
171.4102564103
 20
355.7964939712
 10
171.5821314103
 20
356.4575516635
 10
171.7936698718
 20
357.074538843
 10
172.0360576923
 20
357.6562696122
 10
172.3181089744
 20
358.1983369199
 10
172.6310096154
 20
358.7007407661
 10
172.9835737179
 20
359.1634811507
 10
173.3713942308
 20
359.590965125
 10
173.7944711538
 20
359.9743785866
 10
174.2439903846
 20
360.3181285866
 10
174.7155448718
 20
360.6134010225
 10
175.2047275641
 20
360.8646029456
 10
175.7159455128
 20
361.0717343558
 10
176.2491987179
 20
361.230388202
 10
176.8000801282
 20
361.3449715353
 10
177.3685897436
 20
361.4154843558
 10
177.9591346154
 20
361.4375196122
 10
177.9591346154
 20
361.4375196122
 10
178.8185096154
 20
361.3890420481
 10
179.6470352564
 20
361.2392023045
 10
180.4447115385
 20
360.9924074327
 10
181.2159455128
 20
360.6486574327
 10
181.9298878205
 20
360.2211734584
 10
182.5556891026
 20
359.7231766635
 10
183.0977564103
 20
359.1546670481
 10
183.5560897436
 20
358.5200516635
 10
183.9174679487
 20
357.8413657661
 10
184.1774839744
 20
357.1494587148
 10
184.3317307692
 20
356.4443305097
 10
184.3846153846
 20
355.7215740994
 10
184.3846153846
 20
355.7215740994
 10
184.3449519231
 20
355.0252599968
 10
184.2259615385
 20
354.3686093558
 10
184.0232371795
 20
353.747215125
 10
183.7411858974
 20
353.1610773045
 10
183.3798076923
 20
352.6146029456
 10
182.9391025641
 20
352.1033849968
 10
182.4190705128
 20
351.6318305097
 10
181.8153044872
 20
351.1955324327
 10
181.8153044872
 20
351.1955324327
 10
182.5072115385
 20
350.8385612789
 10
183.1374198718
 20
350.4066702532
 10
183.7015224359
 20
349.8998593558
 10
184.1995192308
 20
349.3181285866
 10
184.1995192308
 20
349.3181285866
 10
184.5080128205
 20
348.8774234584
 10
184.7724358974
 20
348.419090125
 10
185.0016025641
 20
347.9519426891
 10
185.1866987179
 20
347.4671670481
 10
185.327724359
 20
346.9735773045
 10
185.4290865385
 20
346.4667664071
 10
185.4907852564
 20
345.9423273045
 10
185.5128205128
 20
345.4090740994
 10
185.5128205128
 20
345.4090740994
 10
185.4511217949
 20
344.4880003815
 10
185.2616185897
 20
343.5889619199
 10
184.9487179487
 20
342.7075516635
 10
184.5080128205
 20
341.8525837148
 10
183.9615384615
 20
341.0549074327
 10
183.3269230769
 20
340.3541862789
 10
182.5953525641
 20
339.746013202
 10
181.7756410256
 20
339.2347952532
 10
180.8854166667
 20
338.8293465353
 10
179.9423076923
 20
338.542888202
 10
178.9463141026
 20
338.3666061507
 10
177.9018429487
 20
338.309314484
 10
177.9018429487
 20
338.309314484
 10
177.1967147436
 20
338.3357567917
 10
176.5180288462
 20
338.4106766635
 10
175.8701923077
 20
338.542888202
 10
175.2532051282
 20
338.7235773045
 10
174.6670673077
 20
338.9527439712
 10
174.1117788462
 20
339.2347952532
 10
173.5829326923
 20
339.5697311507
 10
173.0849358974
 20
339.9575516635
 10
172.6221955128
 20
340.3938497404
 10
172.203525641
 20
340.8786253815
 10
171.8245192308
 20
341.4118785866
 10
171.4895833333
 20
341.9936093558
 10
171.1943108974
 20
342.6194106379
 10
170.9431089744
 20
343.2980965353
 10
170.7315705128
 20
344.0208529456
 10
170.5641025641
 20
344.7964939712
 10
170.5641025641
 20
344.7964939712
 10
172.5384615385
 20
344.7964939712
 10
172.5384615385
 20
344.7964939712
 10
172.6971153846
 20
344.2896830738
 10
172.8689903846
 20
343.8181285866
 10
173.062900641
 20
343.3818305097
 10
173.2700320513
 20
342.9851958943
 10
173.4903846154
 20
342.6238176891
 10
173.7327724359
 20
342.2976958943
 10
173.9883814103
 20
342.0068305097
 10
174.2616185897
 20
341.7556285866
 10
174.2616185897
 20
341.7556285866
 10
174.6362179487
 20
341.4779843558
 10
175.0328525641
 20
341.2355965353
 10
175.4559294872
 20
341.028465125
 10
175.9010416667
 20
340.8654042276
 10
176.3725961538
 20
340.7331926891
 10
176.8705929487
 20
340.6406446122
 10
177.390625
 20
340.5833529456
 10
177.937099359
 20
340.5657247404
 10
177.937099359
 20
340.5657247404
 10
178.5540865385
 20
340.5877599968
 10
179.140224359
 20
340.6538657661
 10
179.6955128205
 20
340.7596349968
 10
180.2199519231
 20
340.9138817917
 10
180.7091346154
 20
341.1077920481
 10
181.171875
 20
341.3501798686
 10
181.5993589744
 20
341.6322311507
 10
182.000400641
 20
341.9583529456
 10
182.3617788462
 20
342.3153240994
 10
182.6746794872
 20
342.6855164071
 10
182.9391025641
 20
343.0689298686
 10
183.1550480769
 20
343.4699715353
 10
183.3225160256
 20
343.8842343558
 10
183.4415064103
 20
344.3161253815
 10
183.5164262821
 20
344.7612375609
 10
183.5384615385
 20
345.2195708943
 10
183.5384615385
 20
345.2195708943
 10
183.4899839744
 20
345.8321510225
 10
183.3489583333
 20
346.4271029456
 10
183.1109775641
 20
347.0000196122
 10
182.7760416667
 20
347.5509010225
 10
182.3617788462
 20
348.0621189712
 10
181.8858173077
 20
348.5072311507
 10
181.3393429487
 20
348.8818305097
 10
180.7311698718
 20
349.1903240994
 10
180.3918269231
 20
349.3225356379
 10
180.0040064103
 20
349.4415260225
 10
179.5765224359
 20
349.542888202
 10
179.1005608974
 20
349.6354362789
 10
178.5849358974
 20
349.714763202
 10
178.0252403846
 20
349.7808689712
 10
177.4170673077
 20
349.8337535866
 10
176.7692307692
 20
349.8734170481
 10
176.7692307692
 20
349.8734170481
 10
176.7692307692
 20
352.1298273045
 10
176.7692307692
 20
352.1298273045
 10
177.5845352564
 20
352.1606766635
 10
178.3601762821
 20
352.262038843
 10
179.1005608974
 20
352.4206926891
 10
179.8012820513
 20
352.6498593558
 10
180.4403044872
 20
352.9275035866
 10
180.9823717949
 20
353.2404042276
 10
181.4318910256
 20
353.5885612789
 10
181.7888621795
 20
353.9719747404
 10
182.062099359
 20
354.3862375609
 10
182.2560096154
 20
354.8137215353
 10
182.3705929487
 20
355.2632407661
 10
182.4102564103
 20
355.730388202
 10
182.4102564103
 20
355.730388202
 10
182.3926282051
 20
356.074138202
 10
182.3309294872
 20
356.4090740994
 10
182.233974359
 20
356.7263817917
 10
182.0973557692
 20
357.0392824327
 10
181.9210737179
 20
357.3345548686
 10
181.7051282051
 20
357.621013202
 10
181.4495192308
 20
357.8942503815
 10
181.1542467949
 20
358.1542664071
 10
180.8325320513
 20
358.3966542276
 10
180.4887820513
 20
358.6037856379
 10
180.1229967949
 20
358.7800676891
 10
179.7351762821
 20
358.9255003815
 10
179.3297275641
 20
359.0356766635
 10
178.9022435897
 20
359.1150035866
 10
178.452724359
 20
359.1634811507
 10
177.9855769231
 20
359.1811093558
 10
177.9855769231
 20
359.1811093558
 10
177.2363782051
 20
359.1326317917
 10
176.5356570513
 20
358.9871990994
 10
175.8922275641
 20
358.7492183302
 10
175.297275641
 20
358.4098753815
 10
175.0196314103
 20
358.1983369199
 10
174.7552083333
 20
357.9559490994
 10
174.499599359
 20
357.6827119199
 10
174.2572115385
 20
357.3698112789
 10
174.0192307692
 20
357.0260612789
 10
173.7988782051
 20
356.6514619199
 10
173.5873397436
 20
356.2416061507
 10
173.3846153846
 20
355.7964939712
  0
POINT
  5
148
330
1F
100
AcDbEntity
  8
0
  6
Continuous
 62
     7
100
AcDbPoint
 10
51.5551080554
 20
150.8100448329
 30
0.0
  0
POINT
  5
149
330
1F
100
AcDbEntity
  8
0
  6
Continuous
 62
     7
100
AcDbPoint
 10
3.2951080554
 20
149.5400448329
 30
0.0
  0
POINT
  5
14A
330
1F
100
AcDbEntity
  8
0
  6
Continuous
 62
     7
100
AcDbPoint
 10
51.5551080554
 20
68.2600448329
 30
0.0
  0
POINT
  5
14B
330
1F
100
AcDbEntity
  8
0
  6
Continuous
 62
     7
100
AcDbPoint
 10
3.2951080554
 20
74.6100448329
 30
0.0
  0
POINT
  5
14C
330
1F
100
AcDbEntity
  8
0
  6
Continuous
 62
     7
100
AcDbPoint
 10
236.0117323362
 20
215.0
 30
0.0
  0
POINT
  5
14D
330
1F
100
AcDbEntity
  8
0
  6
Continuous
 62
     7
100
AcDbPoint
 10
104.0376194079
 20
215.0
 30
0.0
  0
POINT
  5
14E
330
1F
100
AcDbEntity
  8
0
  6
Continuous
 62
     7
100
AcDbPoint
 10
170.024675872
 20
244.4357974285
 30
0.0
  0
POINT
  5
14F
330
1F
100
AcDbEntity
  8
0
  6
Continuous
 62
     7
100
AcDbPoint
 10
170.024675872
 20
283.0796424554
 30
0.0
  0
POINT
  5
150
330
1F
100
AcDbEntity
  8
0
  6
Continuous
 62
     7
100
AcDbPoint
 10
3.2951080554
 20
157.1600448329
 30
0.0
  0
POINT
  5
151
330
1F
100
AcDbEntity
  8
0
  6
Continuous
 62
     7
100
AcDbPoint
 10
51.5551080554
 20
75.8800448329
 30
0.0
  0
ENDSEC
  0
SECTION
  2
OBJECTS
  0
DICTIONARY
  5
C
330
0
100
AcDbDictionary
281
     1
  3
ACAD_GROUP
350
D
  3
ACAD_LAYOUT
350
1A
  3
ACAD_MLINESTYLE
350
17
  3
ACAD_PLOTSETTINGS
350
19
  3
ACAD_PLOTSTYLENAME
350
E
  3
ACAD_SCALELIST
350
47
  0
DICTIONARY
  5
D
102
{ACAD_REACTORS
330
C
102
}
330
C
100
AcDbDictionary
281
     1
  0
DICTIONARY
  5
1A
102
{ACAD_REACTORS
330
C
102
}
330
C
100
AcDbDictionary
281
     1
  3
Layout1
350
1E
  3
Layout2
350
26
  3
Model
350
22
  0
DICTIONARY
  5
17
102
{ACAD_REACTORS
330
C
102
}
330
C
100
AcDbDictionary
281
     1
  3
Standard
350
18
  0
DICTIONARY
  5
19
102
{ACAD_REACTORS
330
C
102
}
330
C
100
AcDbDictionary
281
     1
  0
ACDBDICTIONARYWDFLT
  5
E
102
{ACAD_REACTORS
330
C
102
}
330
C
100
AcDbDictionary
281
     1
  3
Normal
350
F
100
AcDbDictionaryWithDefault
340
F
  0
DICTIONARY
  5
47
102
{ACAD_REACTORS
330
C
102
}
330
C
100
AcDbDictionary
281
     1
  3
A0
350
48
  3
A1
350
49
  3
A2
350
4A
  3
A3
350
4B
  3
A4
350
4C
  3
A5
350
4D
  3
A6
350
4E
  3
A7
350
4F
  3
A8
350
50
  3
A9
350
51
  3
B0
350
52
  3
B1
350
53
  3
B2
350
54
  3
B3
350
55
  3
B4
350
56
  3
B5
350
57
  3
B6
350
58
  3
B7
350
59
  3
B8
350
5A
  3
B9
350
5B
  3
C0
350
5C
  3
C1
350
5D
  3
C2
350
5E
  3
C3
350
5F
  3
C4
350
60
  3
C5
350
61
  3
C6
350
62
  3
C7
350
63
  3
C8
350
64
  3
C9
350
65
  3
D0
350
66
  3
D1
350
67
  3
D2
350
68
  0
LAYOUT
  5
1E
102
{ACAD_REACTORS
330
1A
102
}
330
1A
100
AcDbPlotSettings
  1

  2
none_device
  4

  6

 40
0.0
 41
0.0
 42
0.0
 43
0.0
 44
0.0
 45
0.0
 46
0.0
 47
0.0
 48
0.0
 49
0.0
140
0.0
141
0.0
142
1.0
143
1.0
 70
   688
 72
     1
 73
     0
 74
     5
  7

 75
    16
147
1.0
148
0.0
149
0.0
100
AcDbLayout
  1
Layout1
 70
     1
 71
     1
 10
0.0
 20
0.0
 11
420.0
 21
297.0
 12
0.0
 22
0.0
 32
0.0
 14
1.0000000000E+20
 24
1.0000000000E+20
 34
1.0000000000E+20
 15
-1.0000000000E+20
 25
-1.0000000000E+20
 35
-1.0000000000E+20
146
0.0
 13
0.0
 23
0.0
 33
0.0
 16
1.0
 26
0.0
 36
0.0
 17
0.0
 27
1.0
 37
0.0
 76
     0
330
1B
  0
LAYOUT
  5
26
102
{ACAD_REACTORS
330
1A
102
}
330
1A
100
AcDbPlotSettings
  1

  2
none_device
  4

  6

 40
0.0
 41
0.0
 42
0.0
 43
0.0
 44
0.0
 45
0.0
 46
0.0
 47
0.0
 48
0.0
 49
0.0
140
0.0
141
0.0
142
1.0
143
1.0
 70
   688
 72
     1
 73
     0
 74
     5
  7

 75
    16
147
1.0
148
0.0
149
0.0
100
AcDbLayout
  1
Layout2
 70
     1
 71
     2
 10
0.0
 20
0.0
 11
0.0
 21
0.0
 12
0.0
 22
0.0
 32
0.0
 14
0.0
 24
0.0
 34
0.0
 15
0.0
 25
0.0
 35
0.0
146
0.0
 13
0.0
 23
0.0
 33
0.0
 16
1.0
 26
0.0
 36
0.0
 17
0.0
 27
1.0
 37
0.0
 76
     0
330
23
  0
LAYOUT
  5
22
102
{ACAD_REACTORS
330
1A
102
}
330
1A
100
AcDbPlotSettings
  1

  2
none_device
  4
ANSI_A_(11.00_x_8.50_Inches)
  6

 40
6.35
 41
19.05
 42
6.35000508
 43
19.05000254
 44
279.4
 45
215.9
 46
26.47949746
 47
-17.97050127
 48
0.0
 49
0.0
140
0.0
141
0.0
142
0.0227432432
143
1.0
 70
  1696
 72
     0
 73
     0
 74
     0
  7

 75
     0
147
0.0179189148
148
-1300.4909072572
149
0.0
100
AcDbLayout
  1
Model
 70
     1
 71
     0
 10
0.0
 20
0.0
 11
420.0
 21
297.0
 12
0.0
 22
0.0
 32
0.0
 14
0.0
 24
0.0
 34
0.0
 15
370.0
 25
370.0
 35
0.0
146
0.0
 13
0.0
 23
0.0
 33
0.0
 16
1.0
 26
0.0
 36
0.0
 17
0.0
 27
1.0
 37
0.0
 76
     0
330
1F
331
29
  0
MLINESTYLE
  5
18
102
{ACAD_REACTORS
330
17
102
}
330
17
100
AcDbMlineStyle
  2
Standard
 70
     0
  3

 62
   256
 51
90.0
 52
90.0
 71
     2
 49
0.5
 62
   256
  6
BYLAYER
 49
-0.5
 62
   256
  6
BYLAYER
  0
ACDBPLACEHOLDER
  5
F
102
{ACAD_REACTORS
330
E
102
}
330
E
  0
SCALE
  5
48
102
{ACAD_REACTORS
330
47
102
}
330
47
100
AcDbScale
 70
     0
300
1:1
140
1.0
141
1.0
290
     1
  0
SCALE
  5
49
102
{ACAD_REACTORS
330
47
102
}
330
47
100
AcDbScale
 70
     0
300
1:2
140
1.0
141
2.0
290
     0
  0
SCALE
  5
4A
102
{ACAD_REACTORS
330
47
102
}
330
47
100
AcDbScale
 70
     0
300
1:4
140
1.0
141
4.0
290
     0
  0
SCALE
  5
4B
102
{ACAD_REACTORS
330
47
102
}
330
47
100
AcDbScale
 70
     0
300
1:5
140
1.0
141
5.0
290
     0
  0
SCALE
  5
4C
102
{ACAD_REACTORS
330
47
102
}
330
47
100
AcDbScale
 70
     0
300
1:8
140
1.0
141
8.0
290
     0
  0
SCALE
  5
4D
102
{ACAD_REACTORS
330
47
102
}
330
47
100
AcDbScale
 70
     0
300
1:10
140
1.0
141
10.0
290
     0
  0
SCALE
  5
4E
102
{ACAD_REACTORS
330
47
102
}
330
47
100
AcDbScale
 70
     0
300
1:16
140
1.0
141
16.0
290
     0
  0
SCALE
  5
4F
102
{ACAD_REACTORS
330
47
102
}
330
47
100
AcDbScale
 70
     0
300
1:20
140
1.0
141
20.0
290
     0
  0
SCALE
  5
50
102
{ACAD_REACTORS
330
47
102
}
330
47
100
AcDbScale
 70
     0
300
1:30
140
1.0
141
30.0
290
     0
  0
SCALE
  5
51
102
{ACAD_REACTORS
330
47
102
}
330
47
100
AcDbScale
 70
     0
300
1:40
140
1.0
141
40.0
290
     0
  0
SCALE
  5
52
102
{ACAD_REACTORS
330
47
102
}
330
47
100
AcDbScale
 70
     0
300
1:50
140
1.0
141
50.0
290
     0
  0
SCALE
  5
53
102
{ACAD_REACTORS
330
47
102
}
330
47
100
AcDbScale
 70
     0
300
1:100
140
1.0
141
100.0
290
     0
  0
SCALE
  5
54
102
{ACAD_REACTORS
330
47
102
}
330
47
100
AcDbScale
 70
     0
300
2:1
140
2.0
141
1.0
290
     0
  0
SCALE
  5
55
102
{ACAD_REACTORS
330
47
102
}
330
47
100
AcDbScale
 70
     0
300
4:1
140
4.0
141
1.0
290
     0
  0
SCALE
  5
56
102
{ACAD_REACTORS
330
47
102
}
330
47
100
AcDbScale
 70
     0
300
8:1
140
8.0
141
1.0
290
     0
  0
SCALE
  5
57
102
{ACAD_REACTORS
330
47
102
}
330
47
100
AcDbScale
 70
     0
300
10:1
140
10.0
141
1.0
290
     0
  0
SCALE
  5
58
102
{ACAD_REACTORS
330
47
102
}
330
47
100
AcDbScale
 70
     0
300
100:1
140
100.0
141
1.0
290
     0
  0
SCALE
  5
59
102
{ACAD_REACTORS
330
47
102
}
330
47
100
AcDbScale
 70
     0
300
1/128" = 1'-0"
140
0.0078125
141
12.0
290
     0
  0
SCALE
  5
5A
102
{ACAD_REACTORS
330
47
102
}
330
47
100
AcDbScale
 70
     0
300
1/64" = 1'-0"
140
0.015625
141
12.0
290
     0
  0
SCALE
  5
5B
102
{ACAD_REACTORS
330
47
102
}
330
47
100
AcDbScale
 70
     0
300
1/32" = 1'-0"
140
0.03125
141
12.0
290
     0
  0
SCALE
  5
5C
102
{ACAD_REACTORS
330
47
102
}
330
47
100
AcDbScale
 70
     0
300
1/16" = 1'-0"
140
0.0625
141
12.0
290
     0
  0
SCALE
  5
5D
102
{ACAD_REACTORS
330
47
102
}
330
47
100
AcDbScale
 70
     0
300
3/32" = 1'-0"
140
0.09375
141
12.0
290
     0
  0
SCALE
  5
5E
102
{ACAD_REACTORS
330
47
102
}
330
47
100
AcDbScale
 70
     0
300
1/8" = 1'-0"
140
0.125
141
12.0
290
     0
  0
SCALE
  5
5F
102
{ACAD_REACTORS
330
47
102
}
330
47
100
AcDbScale
 70
     0
300
3/16" = 1'-0"
140
0.1875
141
12.0
290
     0
  0
SCALE
  5
60
102
{ACAD_REACTORS
330
47
102
}
330
47
100
AcDbScale
 70
     0
300
1/4" = 1'-0"
140
0.25
141
12.0
290
     0
  0
SCALE
  5
61
102
{ACAD_REACTORS
330
47
102
}
330
47
100
AcDbScale
 70
     0
300
3/8" = 1'-0"
140
0.375
141
12.0
290
     0
  0
SCALE
  5
62
102
{ACAD_REACTORS
330
47
102
}
330
47
100
AcDbScale
 70
     0
300
1/2" = 1'-0"
140
0.5
141
12.0
290
     0
  0
SCALE
  5
63
102
{ACAD_REACTORS
330
47
102
}
330
47
100
AcDbScale
 70
     0
300
3/4" = 1'-0"
140
0.75
141
12.0
290
     0
  0
SCALE
  5
64
102
{ACAD_REACTORS
330
47
102
}
330
47
100
AcDbScale
 70
     0
300
1" = 1'-0"
140
1.0
141
12.0
290
     0
  0
SCALE
  5
65
102
{ACAD_REACTORS
330
47
102
}
330
47
100
AcDbScale
 70
     0
300
1-1/2" = 1'-0"
140
1.5
141
12.0
290
     0
  0
SCALE
  5
66
102
{ACAD_REACTORS
330
47
102
}
330
47
100
AcDbScale
 70
     0
300
3" = 1'-0"
140
3.0
141
12.0
290
     0
  0
SCALE
  5
67
102
{ACAD_REACTORS
330
47
102
}
330
47
100
AcDbScale
 70
     0
300
6" = 1'-0"
140
6.0
141
12.0
290
     0
  0
SCALE
  5
68
102
{ACAD_REACTORS
330
47
102
}
330
47
100
AcDbScale
 70
     0
300
1'-0" = 1'-0"
140
12.0
141
12.0
290
     0
  0
ENDSEC
  0
EOF
